<svg version="1.1" xmlns="http://www.w3.org/2000/svg" xmlns:xlink="http://www.w3.org/1999/xlink" width="525" height="1004"><defs/><g><g transform="translate(-294,-14) scale(1,1)"><path fill="#ffffff" stroke="none" d="M 496.5 24 L 551.5 24 Q 568 24 568 40.5 L 568 39.5 Q 568 56 551.5 56 L 496.5 56 Q 480 56 480 39.5 L 480 40.5 Q 480 24 496.5 24 Z"/></g><g transform="translate(-294,-14) scale(1,1)"><path fill="none" stroke="#000000" d="M 496.5 24 L 551.5 24 Q 568 24 568 40.5 L 568 39.5 Q 568 56 551.5 56 L 496.5 56 Q 480 56 480 39.5 L 480 40.5 Q 480 24 496.5 24 Z" stroke-miterlimit="10"/></g><g transform="translate(-294,-14) scale(1,1)"><g><path fill="none" stroke="none"/><text fill="#000000" stroke="none" font-family="Arial" font-size="13px" font-style="normal" font-weight="normal" text-decoration="none" x="510" y="46.5">Start</text></g></g><g transform="translate(-294,-14) scale(1,1)"><path fill="#ffffff" stroke="none" d="M 400 129.5 L 516.5 104 L 633 129.5 L 516.5 155 L 400 129.5"/></g><g transform="translate(-294,-14) scale(1,1)"><path fill="none" stroke="#000000" d="M 400 129.5 L 516.5 104 L 633 129.5 L 516.5 155 L 400 129.5 L 400 129.5" stroke-miterlimit="10"/></g><g transform="translate(-294,-14) scale(1,1)"><g><path fill="none" stroke="none"/><text fill="#000000" stroke="none" font-family="Arial" font-size="13px" font-style="normal" font-weight="normal" text-decoration="none" x="458" y="129.5">sceneStack.empty()</text><text fill="#000000" stroke="none" font-family="Arial" font-size="13px" font-style="normal" font-weight="normal" text-decoration="none" x="513" y="142.5">?</text></g></g><g transform="translate(-294,-14) scale(1,1)"><path fill="none" stroke="#000000" d="M 516 56 L 516 104" stroke-miterlimit="10"/></g><g transform="translate(-294,-14) scale(1,1)"><path fill="#000000" stroke="none" d="M 511.790482243984 93.83732514237585 L 516 104 L 520.209517756016 93.83732514237585"/></g><g transform="translate(-294,-14) scale(1,1)"><path fill="none" stroke="#000000" d="M 511.790482243984 93.83732514237585 L 516 104 L 520.209517756016 93.83732514237585 L 511.790482243984 93.83732514237585" stroke-miterlimit="10"/></g><g transform="translate(-294,-14) scale(1,1)"><rect fill="#ffffff" stroke="none" x="424" y="208" width="192" height="32"/></g><g transform="translate(-294,-14) scale(1,1)"><path fill="none" stroke="#000000" d="M 424 208 L 616 208 L 616 240 L 424 240 L 424 208 Z Z" stroke-miterlimit="10"/></g><g transform="translate(-294,-14) scale(1,1)"><g><path fill="none" stroke="none"/><text fill="#000000" stroke="none" font-family="Arial" font-size="13px" font-style="normal" font-weight="normal" text-decoration="none" x="433.5" y="230.5">sceneStack.top()-&gt;initScene()</text></g></g><g transform="translate(-294,-14) scale(1,1)"><path fill="none" stroke="#000000" d="M 520 155 L 520 208" stroke-miterlimit="10"/></g><g transform="translate(-294,-14) scale(1,1)"><path fill="#000000" stroke="none" d="M 515.790482243984 197.83732514237585 L 520 208 L 524.209517756016 197.83732514237585"/></g><g transform="translate(-294,-14) scale(1,1)"><path fill="none" stroke="#000000" d="M 515.790482243984 197.83732514237585 L 520 208 L 524.209517756016 197.83732514237585 L 515.790482243984 197.83732514237585" stroke-miterlimit="10"/></g><g transform="translate(-294,-14) scale(1,1)"><g><path fill="none" stroke="none"/><text fill="#000000" stroke="none" font-family="Arial" font-size="13px" font-style="normal" font-weight="normal" text-decoration="none" x="527" y="187">no</text></g></g><g transform="translate(-294,-14) scale(1,1)"><rect fill="#ffffff" stroke="none" x="408" y="560" width="168" height="32"/></g><g transform="translate(-294,-14) scale(1,1)"><path fill="none" stroke="#000000" d="M 408 560 L 576 560 L 576 592 L 408 592 L 408 560 Z Z" stroke-miterlimit="10"/></g><g transform="translate(-294,-14) scale(1,1)"><g><path fill="none" stroke="none"/><text fill="#000000" stroke="none" font-family="Arial" font-size="13px" font-style="normal" font-weight="normal" text-decoration="none" x="427" y="582.5">pushScene( scene_b )</text></g></g><g transform="translate(-294,-14) scale(1,1)"><path fill="none" stroke="#000000" d="M 480 515 L 480 560" stroke-miterlimit="10"/></g><g transform="translate(-294,-14) scale(1,1)"><path fill="#000000" stroke="none" d="M 475.790482243984 549.8373251423759 L 480 560 L 484.209517756016 549.8373251423759"/></g><g transform="translate(-294,-14) scale(1,1)"><path fill="none" stroke="#000000" d="M 475.790482243984 549.8373251423759 L 480 560 L 484.209517756016 549.8373251423759 L 475.790482243984 549.8373251423759" stroke-miterlimit="10"/></g><g transform="translate(-294,-14) scale(1,1)"><g><path fill="none" stroke="none"/><text fill="#000000" stroke="none" font-family="Arial" font-size="13px" font-style="normal" font-weight="normal" text-decoration="none" x="480" y="543">no_1</text></g></g><g transform="translate(-294,-14) scale(1,1)"><rect fill="#ffffff" stroke="none" x="448" y="360" width="160" height="58"/></g><g transform="translate(-294,-14) scale(1,1)"><path fill="none" stroke="#000000" d="M 448 360 L 608 360 L 608 418 L 448 418 L 448 360 Z Z" stroke-miterlimit="10"/></g><g transform="translate(-294,-14) scale(1,1)"><g><path fill="none" stroke="none"/><text fill="#000000" stroke="none" font-family="Arial" font-size="13px" font-style="normal" font-weight="normal" text-decoration="none" x="495.5" y="382.5">loopScene(</text><text fill="#000000" stroke="none" font-family="Arial" font-size="13px" font-style="normal" font-weight="normal" text-decoration="none" x="474.5" y="395.5">sceneStack.top() )</text></g></g><g transform="translate(-294,-14) scale(1,1)"><path fill="none" stroke="#000000" d="M 520 320 L 520 360" stroke-miterlimit="10"/></g><g transform="translate(-294,-14) scale(1,1)"><path fill="#000000" stroke="none" d="M 515.790482243984 349.83732514237585 L 520 360 L 524.209517756016 349.83732514237585"/></g><g transform="translate(-294,-14) scale(1,1)"><path fill="none" stroke="#000000" d="M 515.790482243984 349.83732514237585 L 520 360 L 524.209517756016 349.83732514237585 L 515.790482243984 349.83732514237585" stroke-miterlimit="10"/></g><g transform="translate(-294,-14) scale(1,1)"><path fill="#ffffff" stroke="none" d="M 464 489.5 L 521.5 464 L 579 489.5 L 521.5 515 L 464 489.5"/></g><g transform="translate(-294,-14) scale(1,1)"><path fill="none" stroke="#000000" d="M 464 489.5 L 521.5 464 L 579 489.5 L 521.5 515 L 464 489.5 L 464 489.5" stroke-miterlimit="10"/></g><g transform="translate(-294,-14) scale(1,1)"><g><path fill="none" stroke="none"/><text fill="#000000" stroke="none" font-family="Arial" font-size="13px" font-style="normal" font-weight="normal" text-decoration="none" x="492.5" y="489.5">exitScene</text><text fill="#000000" stroke="none" font-family="Arial" font-size="13px" font-style="normal" font-weight="normal" text-decoration="none" x="518" y="502.5">?</text></g></g><g transform="translate(-294,-14) scale(1,1)"><path fill="none" stroke="#000000" d="M 520 418 L 520 464" stroke-miterlimit="10"/></g><g transform="translate(-294,-14) scale(1,1)"><path fill="#000000" stroke="none" d="M 515.790482243984 453.83732514237585 L 520 464 L 524.209517756016 453.83732514237585"/></g><g transform="translate(-294,-14) scale(1,1)"><path fill="none" stroke="#000000" d="M 515.790482243984 453.83732514237585 L 520 464 L 524.209517756016 453.83732514237585 L 515.790482243984 453.83732514237585" stroke-miterlimit="10"/></g><g transform="translate(-294,-14) scale(1,1)"><rect fill="#ffffff" stroke="none" x="408" y="662" width="143" height="32"/></g><g transform="translate(-294,-14) scale(1,1)"><path fill="none" stroke="#000000" d="M 408 662 L 551 662 L 551 694 L 408 694 L 408 662 Z Z" stroke-miterlimit="10"/></g><g transform="translate(-294,-14) scale(1,1)"><g><path fill="none" stroke="none"/><text fill="#000000" stroke="none" font-family="Arial" font-size="13px" font-style="normal" font-weight="normal" text-decoration="none" x="417.5" y="684.5">currentScene.pause()</text></g></g><g transform="translate(-294,-14) scale(1,1)"><path fill="none" stroke="#000000" d="M 480 592 L 480 662" stroke-miterlimit="10"/></g><g transform="translate(-294,-14) scale(1,1)"><path fill="#000000" stroke="none" d="M 475.790482243984 651.8373251423759 L 480 662 L 484.209517756016 651.8373251423759"/></g><g transform="translate(-294,-14) scale(1,1)"><path fill="none" stroke="#000000" d="M 475.790482243984 651.8373251423759 L 480 662 L 484.209517756016 651.8373251423759 L 475.790482243984 651.8373251423759" stroke-miterlimit="10"/></g><g transform="translate(-294,-14) scale(1,1)"><path fill="none" stroke="#000000" d="M 440 784 L 392 784 M 392 784 A 8 8 0 0 1 384 776 L 384 496 M 384 496 A 8 8 0 0 1 392 488 L 464 488" stroke-miterlimit="10"/></g><g transform="translate(-294,-14) scale(1,1)"><path fill="#000000" stroke="none" d="M 453.83732514237585 492.209517756016 L 464 488 L 453.83732514237585 483.790482243984"/></g><g transform="translate(-294,-14) scale(1,1)"><path fill="none" stroke="#000000" d="M 453.83732514237585 492.209517756016 L 464 488 L 453.83732514237585 483.790482243984 L 453.83732514237585 492.209517756016" stroke-miterlimit="10"/></g><g transform="translate(-294,-14) scale(1,1)"><rect fill="#ffffff" stroke="none" x="586" y="560" width="85" height="32"/></g><g transform="translate(-294,-14) scale(1,1)"><path fill="none" stroke="#000000" d="M 586 560 L 671 560 L 671 592 L 586 592 L 586 560 Z Z" stroke-miterlimit="10"/></g><g transform="translate(-294,-14) scale(1,1)"><g><path fill="none" stroke="none"/><text fill="#000000" stroke="none" font-family="Arial" font-size="13px" font-style="normal" font-weight="normal" text-decoration="none" x="595.5" y="582.5">popScene()</text></g></g><g transform="translate(-294,-14) scale(1,1)"><path fill="none" stroke="#000000" d="M 579 515 L 584 515 M 584 515 A 8 8 0 0 1 592 523 L 592 560" stroke-miterlimit="10"/></g><g transform="translate(-294,-14) scale(1,1)"><path fill="#000000" stroke="none" d="M 587.790482243984 549.8373251423759 L 592 560 L 596.209517756016 549.8373251423759"/></g><g transform="translate(-294,-14) scale(1,1)"><path fill="none" stroke="#000000" d="M 587.790482243984 549.8373251423759 L 592 560 L 596.209517756016 549.8373251423759 L 587.790482243984 549.8373251423759" stroke-miterlimit="10"/></g><g transform="translate(-294,-14) scale(1,1)"><g><path fill="none" stroke="none"/><text fill="#000000" stroke="none" font-family="Arial" font-size="13px" font-style="normal" font-weight="normal" text-decoration="none" x="592" y="521">no_2</text></g></g><g transform="translate(-294,-14) scale(1,1)"><rect fill="#ffffff" stroke="none" x="586" y="662" width="133" height="32"/></g><g transform="translate(-294,-14) scale(1,1)"><path fill="none" stroke="#000000" d="M 586 662 L 719 662 L 719 694 L 586 694 L 586 662 Z Z" stroke-miterlimit="10"/></g><g transform="translate(-294,-14) scale(1,1)"><g><path fill="none" stroke="none"/><text fill="#000000" stroke="none" font-family="Arial" font-size="13px" font-style="normal" font-weight="normal" text-decoration="none" x="595.5" y="684.5">currentScene.stop()</text></g></g><g transform="translate(-294,-14) scale(1,1)"><path fill="none" stroke="#000000" d="M 620 592 L 620 662" stroke-miterlimit="10"/></g><g transform="translate(-294,-14) scale(1,1)"><path fill="#000000" stroke="none" d="M 615.790482243984 651.8373251423759 L 620 662 L 624.209517756016 651.8373251423759"/></g><g transform="translate(-294,-14) scale(1,1)"><path fill="none" stroke="#000000" d="M 615.790482243984 651.8373251423759 L 620 662 L 624.209517756016 651.8373251423759 L 615.790482243984 651.8373251423759" stroke-miterlimit="10"/></g><g transform="translate(-294,-14) scale(1,1)"><rect fill="#ffffff" stroke="none" x="440" y="760" width="123" height="32"/></g><g transform="translate(-294,-14) scale(1,1)"><path fill="none" stroke="#000000" d="M 440 760 L 563 760 L 563 792 L 440 792 L 440 760 Z Z" stroke-miterlimit="10"/></g><g transform="translate(-294,-14) scale(1,1)"><g><path fill="none" stroke="none"/><text fill="#000000" stroke="none" font-family="Arial" font-size="13px" font-style="normal" font-weight="normal" text-decoration="none" x="449.5" y="782.5">managers.pause()</text></g></g><g transform="translate(-294,-14) scale(1,1)"><path fill="none" stroke="#000000" d="M 480 694 L 480 760" stroke-miterlimit="10"/></g><g transform="translate(-294,-14) scale(1,1)"><path fill="#000000" stroke="none" d="M 475.790482243984 749.8373251423759 L 480 760 L 484.209517756016 749.8373251423759"/></g><g transform="translate(-294,-14) scale(1,1)"><path fill="none" stroke="#000000" d="M 475.790482243984 749.8373251423759 L 480 760 L 484.209517756016 749.8373251423759 L 475.790482243984 749.8373251423759" stroke-miterlimit="10"/></g><g transform="translate(-294,-14) scale(1,1)"><rect fill="#ffffff" stroke="none" x="586" y="760" width="142" height="32"/></g><g transform="translate(-294,-14) scale(1,1)"><path fill="none" stroke="#000000" d="M 586 760 L 728 760 L 728 792 L 586 792 L 586 760 Z Z" stroke-miterlimit="10"/></g><g transform="translate(-294,-14) scale(1,1)"><g><path fill="none" stroke="none"/><text fill="#000000" stroke="none" font-family="Arial" font-size="13px" font-style="normal" font-weight="normal" text-decoration="none" x="599" y="782.5">delete currentScene</text></g></g><g transform="translate(-294,-14) scale(1,1)"><path fill="none" stroke="#000000" d="M 624 694 L 624 760" stroke-miterlimit="10"/></g><g transform="translate(-294,-14) scale(1,1)"><path fill="#000000" stroke="none" d="M 619.790482243984 749.8373251423759 L 624 760 L 628.209517756016 749.8373251423759"/></g><g transform="translate(-294,-14) scale(1,1)"><path fill="none" stroke="#000000" d="M 619.790482243984 749.8373251423759 L 624 760 L 628.209517756016 749.8373251423759 L 619.790482243984 749.8373251423759" stroke-miterlimit="10"/></g><g transform="translate(-294,-14) scale(1,1)"><rect fill="#ffffff" stroke="none" x="472" y="288" width="108" height="32"/></g><g transform="translate(-294,-14) scale(1,1)"><path fill="none" stroke="#000000" d="M 472 288 L 580 288 L 580 320 L 472 320 L 472 288 Z Z" stroke-miterlimit="10"/></g><g transform="translate(-294,-14) scale(1,1)"><g><path fill="none" stroke="none"/><text fill="#000000" stroke="none" font-family="Arial" font-size="13px" font-style="normal" font-weight="normal" text-decoration="none" x="481.5" y="310.5">readyManagers</text></g></g><g transform="translate(-294,-14) scale(1,1)"><path fill="none" stroke="#000000" d="M 520 240 L 520 288" stroke-miterlimit="10"/></g><g transform="translate(-294,-14) scale(1,1)"><path fill="#000000" stroke="none" d="M 515.790482243984 277.83732514237585 L 520 288 L 524.209517756016 277.83732514237585"/></g><g transform="translate(-294,-14) scale(1,1)"><path fill="none" stroke="#000000" d="M 515.790482243984 277.83732514237585 L 520 288 L 524.209517756016 277.83732514237585 L 515.790482243984 277.83732514237585" stroke-miterlimit="10"/></g><g transform="translate(-294,-14) scale(1,1)"><path fill="none" stroke="#000000" d="M 579 488 L 760 488 M 760 488 A 8 8 0 0 1 768 496 L 768 848 M 768 848 A 8 8 0 0 1 760 856 L 560 856" stroke-miterlimit="10"/></g><g transform="translate(-294,-14) scale(1,1)"><path fill="#000000" stroke="none" d="M 570.1626748576241 851.790482243984 L 560 856 L 570.1626748576241 860.209517756016"/></g><g transform="translate(-294,-14) scale(1,1)"><path fill="none" stroke="#000000" d="M 570.1626748576241 851.790482243984 L 560 856 L 570.1626748576241 860.209517756016 L 570.1626748576241 851.790482243984" stroke-miterlimit="10"/></g><g transform="translate(-294,-14) scale(1,1)"><g><path fill="none" stroke="none"/><text fill="#000000" stroke="none" font-family="Arial" font-size="13px" font-style="normal" font-weight="normal" text-decoration="none" x="773" y="678">yes</text></g></g><g transform="translate(-294,-14) scale(1,1)"><rect fill="#ffffff" stroke="none" x="488" y="976" width="75" height="32"/></g><g transform="translate(-294,-14) scale(1,1)"><path fill="none" stroke="#000000" d="M 488 976 L 563 976 L 563 1008 L 488 1008 L 488 976 Z Z" stroke-miterlimit="10"/></g><g transform="translate(-294,-14) scale(1,1)"><g><path fill="none" stroke="none"/><text fill="#000000" stroke="none" font-family="Arial" font-size="13px" font-style="normal" font-weight="normal" text-decoration="none" x="497.5" y="998.5">exitGame</text></g></g><g transform="translate(-294,-14) scale(1,1)"><path fill="none" stroke="#000000" d="M 633 128 L 792 128 M 792 128 A 8 8 0 0 1 800 136 L 800 920 M 800 920 A 8 8 0 0 1 792 928 L 536 928 M 536 928 A 8 8 0 0 0 528 936 L 528 976" stroke-miterlimit="10"/></g><g transform="translate(-294,-14) scale(1,1)"><path fill="#000000" stroke="none" d="M 523.790482243984 965.8373251423759 L 528 976 L 532.209517756016 965.8373251423759"/></g><g transform="translate(-294,-14) scale(1,1)"><path fill="none" stroke="#000000" d="M 523.790482243984 965.8373251423759 L 528 976 L 532.209517756016 965.8373251423759 L 523.790482243984 965.8373251423759" stroke-miterlimit="10"/></g><g transform="translate(-294,-14) scale(1,1)"><g><path fill="none" stroke="none"/><text fill="#000000" stroke="none" font-family="Arial" font-size="13px" font-style="normal" font-weight="normal" text-decoration="none" x="789" y="950">yes</text></g></g><g transform="translate(-294,-14) scale(1,1)"><rect fill="#ffffff" stroke="none" x="480" y="840" width="80" height="45"/></g><g transform="translate(-294,-14) scale(1,1)"><path fill="none" stroke="#000000" d="M 480 840 L 560 840 L 560 885 L 480 885 L 480 840 Z Z" stroke-miterlimit="10"/></g><g transform="translate(-294,-14) scale(1,1)"><g><path fill="none" stroke="none"/><text fill="#000000" stroke="none" font-family="Arial" font-size="13px" font-style="normal" font-weight="normal" text-decoration="none" x="489.5" y="862.5">loopScene</text><text fill="#000000" stroke="none" font-family="Arial" font-size="13px" font-style="normal" font-weight="normal" text-decoration="none" x="509.5" y="875.5">end</text></g></g><g transform="translate(-294,-14) scale(1,1)"><path fill="none" stroke="#000000" d="M 480 856 L 312 856 M 312 856 A 8 8 0 0 1 304 848 L 304 136 M 304 136 A 8 8 0 0 1 312 128 L 400 128" stroke-miterlimit="10"/></g><g transform="translate(-294,-14) scale(1,1)"><path fill="#000000" stroke="none" d="M 389.83732514237585 132.209517756016 L 400 128 L 389.83732514237585 123.79048224398402"/></g><g transform="translate(-294,-14) scale(1,1)"><path fill="none" stroke="#000000" d="M 389.83732514237585 132.209517756016 L 400 128 L 389.83732514237585 123.79048224398402 L 389.83732514237585 132.209517756016" stroke-miterlimit="10"/></g></g></svg>