<svg version="1.1" xmlns="http://www.w3.org/2000/svg" xmlns:xlink="http://www.w3.org/1999/xlink" width="409" height="1080"><defs/><g><g transform="translate(-590,-242) scale(1,1)"><path fill="#ffffff" stroke="none" d="M 800.5 440 L 860.38037109375 440 Q 876.88037109375 440 876.88037109375 456.5 L 876.88037109375 455.5 Q 876.88037109375 472 860.38037109375 472 L 800.5 472 Q 784 472 784 455.5 L 784 456.5 Q 784 440 800.5 440 Z"/></g><g transform="translate(-590,-242) scale(1,1)"><path fill="none" stroke="#000000" d="M 800.5 440 L 860.38037109375 440 Q 876.88037109375 440 876.88037109375 456.5 L 876.88037109375 455.5 Q 876.88037109375 472 860.38037109375 472 L 800.5 472 Q 784 472 784 455.5 L 784 456.5 Q 784 440 800.5 440 Z" stroke-miterlimit="10"/></g><g transform="translate(-590,-242) scale(1,1)"><g><path fill="none" stroke="none"/><text fill="#000000" stroke="none" font-family="Arial" font-size="13px" font-style="normal" font-weight="normal" text-decoration="none" x="795.940185546875" y="462.5">UpdateStart</text></g></g><g transform="translate(-590,-242) scale(1,1)"><rect fill="#ffffff" stroke="none" x="736" y="504" width="170.8486328125" height="32"/></g><g transform="translate(-590,-242) scale(1,1)"><path fill="none" stroke="#000000" d="M 736 504 L 906.8486328125 504 L 906.8486328125 536 L 736 536 L 736 504 Z Z" stroke-miterlimit="10"/></g><g transform="translate(-590,-242) scale(1,1)"><g><path fill="none" stroke="none"/><text fill="#000000" stroke="none" font-family="Arial" font-size="13px" font-style="normal" font-weight="normal" text-decoration="none" x="748.42431640625" y="526.5">TimeService::gameBegin</text></g></g><g transform="translate(-590,-242) scale(1,1)"><path fill="none" stroke="#000000" d="M 824 472 L 824 504" stroke-miterlimit="10"/></g><g transform="translate(-590,-242) scale(1,1)"><path fill="#000000" stroke="none" d="M 819.790482243984 493.83732514237585 L 824 504 L 828.209517756016 493.83732514237585"/></g><g transform="translate(-590,-242) scale(1,1)"><path fill="none" stroke="#000000" d="M 819.790482243984 493.83732514237585 L 824 504 L 828.209517756016 493.83732514237585 L 819.790482243984 493.83732514237585" stroke-miterlimit="10"/></g><g transform="translate(-590,-242) scale(1,1)"><path fill="#ffffff" stroke="none" d="M 760 590.5 L 825.31884765625 576 L 890.6376953125 590.5 L 825.31884765625 605 L 760 590.5"/></g><g transform="translate(-590,-242) scale(1,1)"><path fill="none" stroke="#000000" d="M 760 590.5 L 825.31884765625 576 L 890.6376953125 590.5 L 825.31884765625 605 L 760 590.5 L 760 590.5" stroke-miterlimit="10"/></g><g transform="translate(-590,-242) scale(1,1)"><g><path fill="none" stroke="none"/><text fill="#000000" stroke="none" font-family="Arial" font-size="13px" font-style="normal" font-weight="normal" text-decoration="none" x="792.81884765625" y="597">exitScene?</text></g></g><g transform="translate(-590,-242) scale(1,1)"><path fill="none" stroke="#000000" d="M 824 536 L 824 576" stroke-miterlimit="10"/></g><g transform="translate(-590,-242) scale(1,1)"><path fill="#000000" stroke="none" d="M 819.790482243984 565.8373251423759 L 824 576 L 828.209517756016 565.8373251423759"/></g><g transform="translate(-590,-242) scale(1,1)"><path fill="none" stroke="#000000" d="M 819.790482243984 565.8373251423759 L 824 576 L 828.209517756016 565.8373251423759 L 819.790482243984 565.8373251423759" stroke-miterlimit="10"/></g><g transform="translate(-590,-242) scale(1,1)"><rect fill="#ffffff" stroke="none" x="768" y="640" width="111.447265625" height="32"/></g><g transform="translate(-590,-242) scale(1,1)"><path fill="none" stroke="#000000" d="M 768 640 L 879.447265625 640 L 879.447265625 672 L 768 672 L 768 640 Z Z" stroke-miterlimit="10"/></g><g transform="translate(-590,-242) scale(1,1)"><g><path fill="none" stroke="none"/><text fill="#000000" stroke="none" font-family="Arial" font-size="13px" font-style="normal" font-weight="normal" text-decoration="none" x="779.2236328125" y="662.5">checkSchedule</text></g></g><g transform="translate(-590,-242) scale(1,1)"><path fill="none" stroke="#000000" d="M 824 605 L 824 640" stroke-miterlimit="10"/></g><g transform="translate(-590,-242) scale(1,1)"><path fill="#000000" stroke="none" d="M 819.790482243984 629.8373251423759 L 824 640 L 828.209517756016 629.8373251423759"/></g><g transform="translate(-590,-242) scale(1,1)"><path fill="none" stroke="#000000" d="M 819.790482243984 629.8373251423759 L 824 640 L 828.209517756016 629.8373251423759 L 819.790482243984 629.8373251423759" stroke-miterlimit="10"/></g><g transform="translate(-590,-242) scale(1,1)"><g><path fill="none" stroke="none"/><text fill="#000000" stroke="none" font-family="Arial" font-size="13px" font-style="normal" font-weight="normal" text-decoration="none" x="831" y="628">no</text></g></g><g transform="translate(-590,-242) scale(1,1)"><rect fill="#ffffff" stroke="none" x="776" y="856" width="102.1669921875" height="32"/></g><g transform="translate(-590,-242) scale(1,1)"><path fill="none" stroke="#000000" d="M 776 856 L 878.1669921875 856 L 878.1669921875 888 L 776 888 L 776 856 Z Z" stroke-miterlimit="10"/></g><g transform="translate(-590,-242) scale(1,1)"><g><path fill="none" stroke="none"/><text fill="#000000" stroke="none" font-family="Arial" font-size="13px" font-style="normal" font-weight="normal" text-decoration="none" x="789.08349609375" y="878.5">actionUpdate</text></g></g><g transform="translate(-590,-242) scale(1,1)"><path fill="none" stroke="#000000" d="M 824 672 L 824 712" stroke-miterlimit="10"/></g><g transform="translate(-590,-242) scale(1,1)"><path fill="#000000" stroke="none" d="M 819.790482243984 701.8373251423759 L 824 712 L 828.209517756016 701.8373251423759"/></g><g transform="translate(-590,-242) scale(1,1)"><path fill="none" stroke="#000000" d="M 819.790482243984 701.8373251423759 L 824 712 L 828.209517756016 701.8373251423759 L 819.790482243984 701.8373251423759" stroke-miterlimit="10"/></g><g transform="translate(-590,-242) scale(1,1)"><rect fill="#ffffff" stroke="none" x="776" y="920" width="108.1337890625" height="32"/></g><g transform="translate(-590,-242) scale(1,1)"><path fill="none" stroke="#000000" d="M 776 920 L 884.1337890625 920 L 884.1337890625 952 L 776 952 L 776 920 Z Z" stroke-miterlimit="10"/></g><g transform="translate(-590,-242) scale(1,1)"><g><path fill="none" stroke="none"/><text fill="#000000" stroke="none" font-family="Arial" font-size="13px" font-style="normal" font-weight="normal" text-decoration="none" x="789.06689453125" y="942.5">displayUpdate</text></g></g><g transform="translate(-590,-242) scale(1,1)"><path fill="none" stroke="#000000" d="M 822 888 L 822 920" stroke-miterlimit="10"/></g><g transform="translate(-590,-242) scale(1,1)"><path fill="#000000" stroke="none" d="M 817.790482243984 909.8373251423759 L 822 920 L 826.209517756016 909.8373251423759"/></g><g transform="translate(-590,-242) scale(1,1)"><path fill="none" stroke="#000000" d="M 817.790482243984 909.8373251423759 L 822 920 L 826.209517756016 909.8373251423759 L 817.790482243984 909.8373251423759" stroke-miterlimit="10"/></g><g transform="translate(-590,-242) scale(1,1)"><rect fill="#ffffff" stroke="none" x="784" y="992" width="74" height="32"/></g><g transform="translate(-590,-242) scale(1,1)"><path fill="none" stroke="#000000" d="M 784 992 L 858 992 L 858 1024 L 784 1024 L 784 992 Z Z" stroke-miterlimit="10"/></g><g transform="translate(-590,-242) scale(1,1)"><g><path fill="none" stroke="none"/><text fill="#000000" stroke="none" font-family="Arial" font-size="13px" font-style="normal" font-weight="normal" text-decoration="none" x="805.5" y="1014.5">sleep</text></g></g><g transform="translate(-590,-242) scale(1,1)"><path fill="none" stroke="#000000" d="M 824 952 L 824 992" stroke-miterlimit="10"/></g><g transform="translate(-590,-242) scale(1,1)"><path fill="#000000" stroke="none" d="M 819.790482243984 981.8373251423759 L 824 992 L 828.209517756016 981.8373251423759"/></g><g transform="translate(-590,-242) scale(1,1)"><path fill="none" stroke="#000000" d="M 819.790482243984 981.8373251423759 L 824 992 L 828.209517756016 981.8373251423759 L 819.790482243984 981.8373251423759" stroke-miterlimit="10"/></g><g transform="translate(-590,-242) scale(1,1)"><path fill="none" stroke="#000000" d="M 824 1024 L 824 1032 M 824 1032 A 8 8 0 0 1 816 1040 L 728 1040 M 728 1040 A 8 8 0 0 1 720 1032 L 720 598 M 720 598 A 8 8 0 0 1 728 590 L 760 590" stroke-miterlimit="10"/></g><g transform="translate(-590,-242) scale(1,1)"><path fill="#000000" stroke="none" d="M 749.8373251423759 594.209517756016 L 760 590 L 749.8373251423758 585.790482243984"/></g><g transform="translate(-590,-242) scale(1,1)"><path fill="none" stroke="#000000" d="M 749.8373251423759 594.209517756016 L 760 590 L 749.8373251423758 585.790482243984 L 749.8373251423759 594.209517756016" stroke-miterlimit="10"/></g><g transform="translate(-590,-242) scale(1,1)"><rect fill="#ffffff" stroke="none" x="784" y="328" width="75.27197265625" height="32"/></g><g transform="translate(-590,-242) scale(1,1)"><path fill="none" stroke="#000000" d="M 784 328 L 859.27197265625 328 L 859.27197265625 360 L 784 360 L 784 328 Z Z" stroke-miterlimit="10"/></g><g transform="translate(-590,-242) scale(1,1)"><g><path fill="none" stroke="none"/><text fill="#000000" stroke="none" font-family="Arial" font-size="13px" font-style="normal" font-weight="normal" text-decoration="none" x="795.135986328125" y="350.5">sceneInit</text></g></g><g transform="translate(-590,-242) scale(1,1)"><rect fill="#ffffff" stroke="none" x="768" y="1184" width="129.07470703125" height="32"/></g><g transform="translate(-590,-242) scale(1,1)"><path fill="none" stroke="#000000" d="M 768 1184 L 897.07470703125 1184 L 897.07470703125 1216 L 768 1216 L 768 1184 Z Z" stroke-miterlimit="10"/></g><g transform="translate(-590,-242) scale(1,1)"><g><path fill="none" stroke="none"/><text fill="#000000" stroke="none" font-family="Arial" font-size="13px" font-style="normal" font-weight="normal" text-decoration="none" x="781.537353515625" y="1206.5">cleanupManagers</text></g></g><g transform="translate(-590,-242) scale(1,1)"><path fill="none" stroke="#000000" d="M 891 590 L 920 590 M 920 590 A 8 8 0 0 1 928 598 L 928 1048 M 928 1048 A 8 8 0 0 1 920 1056 L 832 1056 M 832 1056 A 8 8 0 0 0 824 1064 L 824 1080" stroke-miterlimit="10"/></g><g transform="translate(-590,-242) scale(1,1)"><path fill="#000000" stroke="none" d="M 819.790482243984 1069.837325142376 L 824 1080 L 828.209517756016 1069.837325142376"/></g><g transform="translate(-590,-242) scale(1,1)"><path fill="none" stroke="#000000" d="M 819.790482243984 1069.837325142376 L 824 1080 L 828.209517756016 1069.837325142376 L 819.790482243984 1069.837325142376" stroke-miterlimit="10"/></g><g transform="translate(-590,-242) scale(1,1)"><g><path fill="none" stroke="none"/><text fill="#000000" stroke="none" font-family="Arial" font-size="13px" font-style="normal" font-weight="normal" text-decoration="none" x="917" y="1078">yes</text></g></g><g transform="translate(-590,-242) scale(1,1)"><path fill="#ffffff" stroke="none" d="M 736 266.5 L 829.0390625 252 L 922.078125 266.5 L 829.0390625 281 L 736 266.5"/></g><g transform="translate(-590,-242) scale(1,1)"><path fill="none" stroke="#000000" d="M 736 266.5 L 829.0390625 252 L 922.078125 266.5 L 829.0390625 281 L 736 266.5 L 736 266.5" stroke-miterlimit="10"/></g><g transform="translate(-590,-242) scale(1,1)"><g><path fill="none" stroke="none"/><text fill="#000000" stroke="none" font-family="Arial" font-size="13px" font-style="normal" font-weight="normal" text-decoration="none" x="783.0390625" y="273">hasNextScene?</text></g></g><g transform="translate(-590,-242) scale(1,1)"><path fill="none" stroke="#000000" d="M 824 281 L 824 328" stroke-miterlimit="10"/></g><g transform="translate(-590,-242) scale(1,1)"><path fill="#000000" stroke="none" d="M 819.790482243984 317.83732514237585 L 824 328 L 828.209517756016 317.83732514237585"/></g><g transform="translate(-590,-242) scale(1,1)"><path fill="none" stroke="#000000" d="M 819.790482243984 317.83732514237585 L 824 328 L 828.209517756016 317.83732514237585 L 819.790482243984 317.83732514237585" stroke-miterlimit="10"/></g><g transform="translate(-590,-242) scale(1,1)"><g><path fill="none" stroke="none"/><text fill="#000000" stroke="none" font-family="Arial" font-size="13px" font-style="normal" font-weight="normal" text-decoration="none" x="828" y="310">yes</text></g></g><g transform="translate(-590,-242) scale(1,1)"><path fill="none" stroke="#000000" d="M 824 360 L 824 440" stroke-miterlimit="10"/></g><g transform="translate(-590,-242) scale(1,1)"><path fill="#000000" stroke="none" d="M 819.790482243984 429.83732514237585 L 824 440 L 828.209517756016 429.83732514237585"/></g><g transform="translate(-590,-242) scale(1,1)"><path fill="none" stroke="#000000" d="M 819.790482243984 429.83732514237585 L 824 440 L 828.209517756016 429.83732514237585 L 819.790482243984 429.83732514237585" stroke-miterlimit="10"/></g><g transform="translate(-590,-242) scale(1,1)"><path fill="none" stroke="#000000" d="M 768 1200 L 608 1200 M 608 1200 A 8 8 0 0 1 600 1192 L 600 274 M 600 274 A 8 8 0 0 1 608 266 L 736 266" stroke-miterlimit="10"/></g><g transform="translate(-590,-242) scale(1,1)"><path fill="#000000" stroke="none" d="M 725.8373251423759 270.209517756016 L 736 266 L 725.8373251423758 261.790482243984"/></g><g transform="translate(-590,-242) scale(1,1)"><path fill="none" stroke="#000000" d="M 725.8373251423759 270.209517756016 L 736 266 L 725.8373251423758 261.790482243984 L 725.8373251423759 270.209517756016" stroke-miterlimit="10"/></g><g transform="translate(-590,-242) scale(1,1)"><rect fill="#ffffff" stroke="none" x="784" y="1280" width="74" height="32"/></g><g transform="translate(-590,-242) scale(1,1)"><path fill="none" stroke="#000000" d="M 784 1280 L 858 1280 L 858 1312 L 784 1312 L 784 1280 Z Z" stroke-miterlimit="10"/></g><g transform="translate(-590,-242) scale(1,1)"><g><path fill="none" stroke="none"/><text fill="#000000" stroke="none" font-family="Arial" font-size="13px" font-style="normal" font-weight="normal" text-decoration="none" x="810.5" y="1302.5">end</text></g></g><g transform="translate(-590,-242) scale(1,1)"><path fill="none" stroke="#000000" d="M 922 266 L 976 266 M 976 266 A 8 8 0 0 1 984 274 L 984 1248 M 984 1248 A 8 8 0 0 1 976 1256 L 832 1256 M 832 1256 A 8 8 0 0 0 824 1264 L 824 1280" stroke-miterlimit="10"/></g><g transform="translate(-590,-242) scale(1,1)"><path fill="#000000" stroke="none" d="M 819.790482243984 1269.837325142376 L 824 1280 L 828.209517756016 1269.837325142376"/></g><g transform="translate(-590,-242) scale(1,1)"><path fill="none" stroke="#000000" d="M 819.790482243984 1269.837325142376 L 824 1280 L 828.209517756016 1269.837325142376 L 819.790482243984 1269.837325142376" stroke-miterlimit="10"/></g><g transform="translate(-590,-242) scale(1,1)"><g><path fill="none" stroke="none"/><text fill="#000000" stroke="none" font-family="Arial" font-size="13px" font-style="normal" font-weight="normal" text-decoration="none" x="976" y="1278">no</text></g></g><g transform="translate(-590,-242) scale(1,1)"><path fill="#ffffff" stroke="none" d="M 792.5 1080 L 847.5 1080 Q 864 1080 864 1096.5 L 864 1095.5 Q 864 1112 847.5 1112 L 792.5 1112 Q 776 1112 776 1095.5 L 776 1096.5 Q 776 1080 792.5 1080 Z"/></g><g transform="translate(-590,-242) scale(1,1)"><path fill="none" stroke="#000000" d="M 792.5 1080 L 847.5 1080 Q 864 1080 864 1096.5 L 864 1095.5 Q 864 1112 847.5 1112 L 792.5 1112 Q 776 1112 776 1095.5 L 776 1096.5 Q 776 1080 792.5 1080 Z" stroke-miterlimit="10"/></g><g transform="translate(-590,-242) scale(1,1)"><g><path fill="none" stroke="none"/><text fill="#000000" stroke="none" font-family="Arial" font-size="13px" font-style="normal" font-weight="normal" text-decoration="none" x="788" y="1102.5">UpdateEnd</text></g></g><g transform="translate(-590,-242) scale(1,1)"><path fill="none" stroke="#000000" d="M 822 1112 L 822 1184" stroke-miterlimit="10"/></g><g transform="translate(-590,-242) scale(1,1)"><path fill="#000000" stroke="none" d="M 817.790482243984 1173.837325142376 L 822 1184 L 826.209517756016 1173.837325142376"/></g><g transform="translate(-590,-242) scale(1,1)"><path fill="none" stroke="#000000" d="M 817.790482243984 1173.837325142376 L 822 1184 L 826.209517756016 1173.837325142376 L 817.790482243984 1173.837325142376" stroke-miterlimit="10"/></g><g transform="translate(-590,-242) scale(1,1)"><path fill="#ffffff" stroke="none" d="M 784 712 L 866 712 L 853 757 L 797 757 L 784 712"/></g><g transform="translate(-590,-242) scale(1,1)"><path fill="none" stroke="#000000" d="M 784 712 L 866 712 L 853 757 L 797 757 L 784 712 L 784 712" stroke-miterlimit="10"/></g><g transform="translate(-590,-242) scale(1,1)"><g><path fill="none" stroke="none"/><text fill="#000000" stroke="none" font-family="Arial" font-size="13px" font-style="normal" font-weight="normal" text-decoration="none" x="796" y="734.5">exitScene</text><text fill="#000000" stroke="none" font-family="Arial" font-size="13px" font-style="normal" font-weight="normal" text-decoration="none" x="808" y="747.5">= true</text></g></g><g transform="translate(-590,-242) scale(1,1)"><path fill="#ffffff" stroke="none" d="M 784 776 L 867.35888671875 776 L 853.35888671875 834 L 798 834 L 784 776"/></g><g transform="translate(-590,-242) scale(1,1)"><path fill="none" stroke="#000000" d="M 784 776 L 867.35888671875 776 L 853.35888671875 834 L 798 834 L 784 776 L 784 776" stroke-miterlimit="10"/></g><g transform="translate(-590,-242) scale(1,1)"><g><path fill="none" stroke="none"/><text fill="#000000" stroke="none" font-family="Arial" font-size="13px" font-style="normal" font-weight="normal" text-decoration="none" x="794.679443359375" y="792">nextScene</text><text fill="#000000" stroke="none" font-family="Arial" font-size="13px" font-style="normal" font-weight="normal" text-decoration="none" x="821.679443359375" y="805">=</text><text fill="#000000" stroke="none" font-family="Arial" font-size="13px" font-style="normal" font-weight="normal" text-decoration="none" x="809.679443359375" y="818">Lala()</text></g></g><g transform="translate(-590,-242) scale(1,1)"><path fill="none" stroke="#000000" d="M 825 757 L 825 776" stroke-miterlimit="10"/></g><g transform="translate(-590,-242) scale(1,1)"><path fill="#000000" stroke="none" d="M 820.790482243984 765.8373251423759 L 825 776 L 829.209517756016 765.8373251423759"/></g><g transform="translate(-590,-242) scale(1,1)"><path fill="none" stroke="#000000" d="M 820.790482243984 765.8373251423759 L 825 776 L 829.209517756016 765.8373251423759 L 820.790482243984 765.8373251423759" stroke-miterlimit="10"/></g><g transform="translate(-590,-242) scale(1,1)"><path fill="none" stroke="#000000" d="M 824 834 L 824 856" stroke-miterlimit="10"/></g><g transform="translate(-590,-242) scale(1,1)"><path fill="#000000" stroke="none" d="M 819.790482243984 845.8373251423759 L 824 856 L 828.209517756016 845.8373251423759"/></g><g transform="translate(-590,-242) scale(1,1)"><path fill="none" stroke="#000000" d="M 819.790482243984 845.8373251423759 L 824 856 L 828.209517756016 845.8373251423759 L 819.790482243984 845.8373251423759" stroke-miterlimit="10"/></g></g></svg>