<svg version="1.1" xmlns="http://www.w3.org/2000/svg" xmlns:xlink="http://www.w3.org/1999/xlink" width="328.337890625" height="210"><defs/><g><g transform="translate(-310,-294) scale(1,1)"><rect fill="#C0C0C0" stroke="none" x="327" y="311" width="140.47900390625" height="190" opacity="0.2"/></g><g transform="translate(-310,-294) scale(1,1)"><rect fill="#ffffff" stroke="none" x="320" y="304" width="140.47900390625" height="190"/></g><g transform="translate(-310,-294) scale(1,1)"><path fill="none" stroke="#000000" d="M 320 304 L 460.47900390625 304 L 460.47900390625 494 L 320 494 L 320 304 Z Z" stroke-miterlimit="10"/></g><g transform="translate(-310,-294) scale(1,1)"><path fill="none" stroke="#000000" d="M 320 329 L 460.47900390625 329" stroke-miterlimit="10"/></g><g transform="translate(-310,-294) scale(1,1)"><path fill="none" stroke="#000000" d="M 320 412 L 460.47900390625 412" stroke-miterlimit="10"/></g><g transform="translate(-310,-294) scale(1,1)"><g><path fill="none" stroke="none"/><text fill="#000000" stroke="none" font-family="Arial" font-size="13px" font-style="normal" font-weight="bold" text-decoration="none" x="374.239501953125" y="323.5">Menu</text></g></g><g transform="translate(-310,-294) scale(1,1)"><g><path fill="none" stroke="none"/><text fill="#000000" stroke="none" font-family="Arial" font-size="13px" font-style="normal" font-weight="normal" text-decoration="none" x="325" y="346.5">+int curItem</text></g></g><g transform="translate(-310,-294) scale(1,1)"><g><path fill="none" stroke="none"/><text fill="#000000" stroke="none" font-family="Arial" font-size="13px" font-style="normal" font-weight="normal" text-decoration="none" x="325" y="361.5">+ColorPair normal</text></g></g><g transform="translate(-310,-294) scale(1,1)"><g><path fill="none" stroke="none"/><text fill="#000000" stroke="none" font-family="Arial" font-size="13px" font-style="normal" font-weight="normal" text-decoration="none" x="325" y="376.5">+ColorPair highlight</text></g></g><g transform="translate(-310,-294) scale(1,1)"><g><path fill="none" stroke="none"/><text fill="#000000" stroke="none" font-family="Arial" font-size="13px" font-style="normal" font-weight="normal" text-decoration="none" x="325" y="391.5">+ColorPair disable</text></g></g><g transform="translate(-310,-294) scale(1,1)"><g><path fill="none" stroke="none"/><text fill="#000000" stroke="none" font-family="Arial" font-size="13px" font-style="normal" font-weight="normal" text-decoration="none" x="325" y="406.5">+Item items</text></g></g><g transform="translate(-310,-294) scale(1,1)"><g><path fill="none" stroke="none"/><text fill="#000000" stroke="none" font-family="Arial" font-size="13px" font-style="normal" font-weight="normal" text-decoration="none" x="325" y="429.5">+void addItem(Item*)</text></g></g><g transform="translate(-310,-294) scale(1,1)"><g><path fill="none" stroke="none"/><text fill="#000000" stroke="none" font-family="Arial" font-size="13px" font-style="normal" font-weight="normal" text-decoration="none" x="325" y="444.5">+void nextItem()</text></g></g><g transform="translate(-310,-294) scale(1,1)"><g><path fill="none" stroke="none"/><text fill="#000000" stroke="none" font-family="Arial" font-size="13px" font-style="normal" font-weight="normal" text-decoration="none" x="325" y="459.5">+void prevItem()</text></g></g><g transform="translate(-310,-294) scale(1,1)"><g><path fill="none" stroke="none"/><text fill="#000000" stroke="none" font-family="Arial" font-size="13px" font-style="normal" font-weight="normal" text-decoration="none" x="325" y="474.5">+void keyEnter()</text></g></g><g transform="translate(-310,-294) scale(1,1)"><g><path fill="none" stroke="none"/><text fill="#000000" stroke="none" font-family="Arial" font-size="13px" font-style="normal" font-weight="normal" text-decoration="none" x="325" y="489.5">+void keyBack()</text></g></g><g transform="translate(-310,-294) scale(1,1)"><rect fill="#C0C0C0" stroke="none" x="528" y="311" width="107.337890625" height="102" opacity="0.2"/></g><g transform="translate(-310,-294) scale(1,1)"><rect fill="#ffffff" stroke="none" x="521" y="304" width="107.337890625" height="102"/></g><g transform="translate(-310,-294) scale(1,1)"><path fill="none" stroke="#000000" d="M 521 304 L 628.337890625 304 L 628.337890625 406 L 521 406 L 521 304 Z Z" stroke-miterlimit="10"/></g><g transform="translate(-310,-294) scale(1,1)"><path fill="none" stroke="#000000" d="M 521 329 L 628.337890625 329" stroke-miterlimit="10"/></g><g transform="translate(-310,-294) scale(1,1)"><path fill="none" stroke="#000000" d="M 521 397 L 628.337890625 397" stroke-miterlimit="10"/></g><g transform="translate(-310,-294) scale(1,1)"><g><path fill="none" stroke="none"/><text fill="#000000" stroke="none" font-family="Arial" font-size="13px" font-style="normal" font-weight="bold" text-decoration="none" x="561.6689453125" y="323.5">Item</text></g></g><g transform="translate(-310,-294) scale(1,1)"><g><path fill="none" stroke="none"/><text fill="#000000" stroke="none" font-family="Arial" font-size="13px" font-style="normal" font-weight="normal" text-decoration="none" x="526" y="346.5">+string label</text></g></g><g transform="translate(-310,-294) scale(1,1)"><g><path fill="none" stroke="none"/><text fill="#000000" stroke="none" font-family="Arial" font-size="13px" font-style="normal" font-weight="normal" text-decoration="none" x="526" y="361.5">+function func</text></g></g><g transform="translate(-310,-294) scale(1,1)"><g><path fill="none" stroke="none"/><text fill="#000000" stroke="none" font-family="Arial" font-size="13px" font-style="normal" font-weight="normal" text-decoration="none" x="526" y="376.5">+Window win</text></g></g><g transform="translate(-310,-294) scale(1,1)"><g><path fill="none" stroke="none"/><text fill="#000000" stroke="none" font-family="Arial" font-size="13px" font-style="normal" font-weight="normal" text-decoration="none" x="526" y="391.5">+bool isEnabled</text></g></g><g transform="translate(-310,-294) scale(1,1)"><path fill="none" stroke="#000000" d="M 461 382 L 520 368" stroke-miterlimit="10"/></g><g transform="translate(-310,-294) scale(1,1)"><path fill="#000000" stroke="none" d="M 469.9162265426272 375.5578804543419 L 461 382 L 471.85999066683644 383.7494578349379 L 482.40562325881166 376.9206995657057"/></g><g transform="translate(-310,-294) scale(1,1)"><path fill="none" stroke="#000000" d="M 469.9162265426272 375.5578804543419 L 461 382 L 471.85999066683644 383.7494578349379 L 482.40562325881166 376.9206995657057 L 469.9162265426272 375.5578804543419" stroke-miterlimit="10"/></g></g></svg>