<svg version="1.1" xmlns="http://www.w3.org/2000/svg" xmlns:xlink="http://www.w3.org/1999/xlink" width="310" height="229"><defs/><g><g transform="translate(-88,-30) scale(1,1)"><rect fill="#C0C0C0" stroke="none" x="175" y="47" width="108" height="39" opacity="0.2"/></g><g transform="translate(-88,-30) scale(1,1)"><rect fill="#ffffff" stroke="none" x="168" y="40" width="108" height="39"/></g><g transform="translate(-88,-30) scale(1,1)"><path fill="none" stroke="#000000" d="M 168 40 L 276 40 L 276 79 L 168 79 L 168 40 Z Z" stroke-miterlimit="10"/></g><g transform="translate(-88,-30) scale(1,1)"><g><path fill="none" stroke="none"/><text fill="#000000" stroke="none" font-family="Arial" font-size="13px" font-style="normal" font-weight="bold" text-decoration="none" x="179.5" y="59.5">KeyDispatcher</text></g></g><g transform="translate(-88,-30) scale(1,1)"><path fill="none" stroke="#000000" d="M 223.5 80 L 223.5 249" stroke-miterlimit="10" stroke-dasharray="3"/></g><g transform="translate(-88,-30) scale(1,1)"><rect fill="#ffffff" stroke="none" x="98" y="92.5" width="14" height="14"/></g><g transform="translate(-88,-30) scale(1,1)"><path fill="none" stroke="#000000" d="M 98 92.5 L 112 92.5 L 112 106.5 L 98 106.5 L 98 92.5 Z Z" stroke-miterlimit="10"/></g><g transform="translate(-88,-30) scale(1,1)"><rect fill="#C0C0C0" stroke="none" x="303" y="47" width="92" height="39" opacity="0.2"/></g><g transform="translate(-88,-30) scale(1,1)"><rect fill="#ffffff" stroke="none" x="296" y="40" width="92" height="39"/></g><g transform="translate(-88,-30) scale(1,1)"><path fill="none" stroke="#000000" d="M 296 40 L 388 40 L 388 79 L 296 79 L 296 40 Z Z" stroke-miterlimit="10"/></g><g transform="translate(-88,-30) scale(1,1)"><g><path fill="none" stroke="none"/><text fill="#000000" stroke="none" font-family="Arial" font-size="13px" font-style="normal" font-weight="bold" text-decoration="none" x="307.5" y="59.5">KeyListener</text></g></g><g transform="translate(-88,-30) scale(1,1)"><path fill="none" stroke="#000000" d="M 343.5 80 L 343.5 239" stroke-miterlimit="10" stroke-dasharray="3"/></g><g transform="translate(-88,-30) scale(1,1)"><path fill="none" stroke="#000000" d="M 112 100 L 216 100" stroke-miterlimit="10"/></g><g transform="translate(-88,-30) scale(1,1)"><path fill="#000000" stroke="none" d="M 205.83732514237585 104.20951775601598 L 216 100 L 205.83732514237585 95.79048224398402"/></g><g transform="translate(-88,-30) scale(1,1)"><path fill="none" stroke="#000000" d="M 205.83732514237585 104.20951775601598 L 216 100 L 205.83732514237585 95.79048224398402 L 205.83732514237585 104.20951775601598" stroke-miterlimit="10"/></g><g transform="translate(-88,-30) scale(1,1)"><g><path fill="none" stroke="none"/><text fill="#000000" stroke="none" font-family="Arial" font-size="13px" font-style="normal" font-weight="normal" text-decoration="none" x="139" y="97">1 : getch</text></g></g><g transform="translate(-88,-30) scale(1,1)"><rect fill="#ffffff" stroke="none" x="216" y="100" width="13" height="28"/></g><g transform="translate(-88,-30) scale(1,1)"><path fill="none" stroke="#000000" d="M 216 100 L 229 100 L 229 128 L 216 128 L 216 100 Z Z" stroke-miterlimit="10"/></g><g transform="translate(-88,-30) scale(1,1)"><path fill="none" stroke="#000000" d="M 229 120 L 259 120 L 259 140 L 229 140" stroke-miterlimit="10"/></g><g transform="translate(-88,-30) scale(1,1)"><path fill="#000000" stroke="none" d="M 239.16267485762415 135.790482243984 L 229 140 L 239.16267485762415 144.209517756016"/></g><g transform="translate(-88,-30) scale(1,1)"><path fill="none" stroke="#000000" d="M 239.16267485762415 135.790482243984 L 229 140 L 239.16267485762415 144.209517756016 L 239.16267485762415 135.790482243984" stroke-miterlimit="10"/></g><g transform="translate(-88,-30) scale(1,1)"><g><path fill="none" stroke="none"/><text fill="#000000" stroke="none" font-family="Arial" font-size="13px" font-style="normal" font-weight="normal" text-decoration="none" x="234" y="136">2 : translate</text></g></g><g transform="translate(-88,-30) scale(1,1)"><rect fill="#ffffff" stroke="none" x="216" y="140" width="13" height="28"/></g><g transform="translate(-88,-30) scale(1,1)"><path fill="none" stroke="#000000" d="M 216 140 L 229 140 L 229 168 L 216 168 L 216 140 Z Z" stroke-miterlimit="10"/></g><g transform="translate(-88,-30) scale(1,1)"><path fill="none" stroke="#000000" d="M 223 168 L 336 168" stroke-miterlimit="10"/></g><g transform="translate(-88,-30) scale(1,1)"><path fill="#000000" stroke="none" d="M 325.83732514237585 172.209517756016 L 336 168 L 325.83732514237585 163.790482243984"/></g><g transform="translate(-88,-30) scale(1,1)"><path fill="none" stroke="#000000" d="M 325.83732514237585 172.209517756016 L 336 168 L 325.83732514237585 163.790482243984 L 325.83732514237585 172.209517756016" stroke-miterlimit="10"/></g><g transform="translate(-88,-30) scale(1,1)"><g><path fill="none" stroke="none"/><text fill="#000000" stroke="none" font-family="Arial" font-size="13px" font-style="normal" font-weight="normal" text-decoration="none" x="247" y="165">3 : respond</text></g></g><g transform="translate(-88,-30) scale(1,1)"><rect fill="#ffffff" stroke="none" x="336" y="168" width="13" height="28"/></g><g transform="translate(-88,-30) scale(1,1)"><path fill="none" stroke="#000000" d="M 336 168 L 349 168 L 349 196 L 336 196 L 336 168 Z Z" stroke-miterlimit="10"/></g></g></svg>