<svg version="1.1" xmlns="http://www.w3.org/2000/svg" xmlns:xlink="http://www.w3.org/1999/xlink" width="1337" height="763"><defs/><g><g transform="translate(-166,-235) scale(1,1)"><rect fill="#C0C0C0" stroke="none" x="386" y="512" width="219.4501953125" height="102" opacity="0.2"/></g><g transform="translate(-166,-235) scale(1,1)"><rect fill="#ffffff" stroke="none" x="379" y="505" width="219.4501953125" height="102"/></g><g transform="translate(-166,-235) scale(1,1)"><path fill="none" stroke="#000000" d="M 379 505 L 598.4501953125 505 L 598.4501953125 607 L 379 607 L 379 505 Z Z" stroke-miterlimit="10"/></g><g transform="translate(-166,-235) scale(1,1)"><path fill="none" stroke="#000000" d="M 379 530 L 598.4501953125 530" stroke-miterlimit="10"/></g><g transform="translate(-166,-235) scale(1,1)"><path fill="none" stroke="#000000" d="M 379 540 L 598.4501953125 540" stroke-miterlimit="10"/></g><g transform="translate(-166,-235) scale(1,1)"><g><path fill="none" stroke="none"/><text fill="#000000" stroke="none" font-family="Arial" font-size="13px" font-style="normal" font-weight="bold" text-decoration="none" x="445.22509765625" y="524.5">ActionManager</text></g></g><g transform="translate(-166,-235) scale(1,1)"><g><path fill="none" stroke="none"/><text fill="#000000" stroke="none" font-family="Arial" font-size="13px" font-style="normal" font-weight="normal" text-decoration="none" x="384" y="557.5">+addAction(Action*)</text></g></g><g transform="translate(-166,-235) scale(1,1)"><g><path fill="none" stroke="none"/><text fill="#000000" stroke="none" font-family="Arial" font-size="13px" font-style="normal" font-weight="normal" text-decoration="none" x="384" y="572.5">+void update()</text></g></g><g transform="translate(-166,-235) scale(1,1)"><g><path fill="none" stroke="none"/><text fill="#000000" stroke="none" font-family="Arial" font-size="13px" font-style="normal" font-weight="normal" text-decoration="none" x="384" y="587.5">+void pauseHost(VisibleObject*)</text></g></g><g transform="translate(-166,-235) scale(1,1)"><g><path fill="none" stroke="none"/><text fill="#000000" stroke="none" font-family="Arial" font-size="13px" font-style="normal" font-weight="normal" text-decoration="none" x="384" y="602.5">+void resumeHost(VisibleObject*)</text></g></g><g transform="translate(-166,-235) scale(1,1)"><rect fill="#C0C0C0" stroke="none" x="690" y="504" width="178.52685546875" height="117" opacity="0.2"/></g><g transform="translate(-166,-235) scale(1,1)"><rect fill="#ffffff" stroke="none" x="683" y="497" width="178.52685546875" height="117"/></g><g transform="translate(-166,-235) scale(1,1)"><path fill="none" stroke="#000000" d="M 683 497 L 861.52685546875 497 L 861.52685546875 614 L 683 614 L 683 497 Z Z" stroke-miterlimit="10"/></g><g transform="translate(-166,-235) scale(1,1)"><path fill="none" stroke="#000000" d="M 683 522 L 861.52685546875 522" stroke-miterlimit="10"/></g><g transform="translate(-166,-235) scale(1,1)"><path fill="none" stroke="#000000" d="M 683 605 L 861.52685546875 605" stroke-miterlimit="10"/></g><g transform="translate(-166,-235) scale(1,1)"><g><path fill="none" stroke="none"/><text fill="#000000" stroke="none" font-family="Arial" font-size="13px" font-style="normal" font-weight="bold" text-decoration="none" x="753.763427734375" y="516.5">Action</text></g></g><g transform="translate(-166,-235) scale(1,1)"><g><path fill="none" stroke="none"/><text fill="#000000" stroke="none" font-family="Arial" font-size="13px" font-style="normal" font-weight="normal" text-decoration="none" x="688" y="539.5">+Node* host</text></g></g><g transform="translate(-166,-235) scale(1,1)"><g><path fill="none" stroke="none"/><text fill="#000000" stroke="none" font-family="Arial" font-size="13px" font-style="normal" font-weight="normal" text-decoration="none" x="688" y="554.5">+int duration</text></g></g><g transform="translate(-166,-235) scale(1,1)"><g><path fill="none" stroke="none"/><text fill="#000000" stroke="none" font-family="Arial" font-size="13px" font-style="normal" font-weight="normal" text-decoration="none" x="688" y="569.5">+bool isRepeat</text></g></g><g transform="translate(-166,-235) scale(1,1)"><g><path fill="none" stroke="none"/><text fill="#000000" stroke="none" font-family="Arial" font-size="13px" font-style="normal" font-weight="normal" text-decoration="none" x="688" y="584.5">+bool isPause</text></g></g><g transform="translate(-166,-235) scale(1,1)"><g><path fill="none" stroke="none"/><text fill="#000000" stroke="none" font-family="Arial" font-size="13px" font-style="normal" font-weight="normal" text-decoration="none" x="688" y="599.5">+queue_Command cmdList</text></g></g><g transform="translate(-166,-235) scale(1,1)"><path fill="none" stroke="#000000" d="M 599 556 L 682 555" stroke-miterlimit="10"/></g><g transform="translate(-166,-235) scale(1,1)"><path fill="#000000" stroke="none" d="M 609.1112239355363 551.668354755357 L 599 556 L 609.212650737095 560.0867792847318 L 620.9984034253762 555.734958994875"/></g><g transform="translate(-166,-235) scale(1,1)"><path fill="none" stroke="#000000" d="M 609.1112239355363 551.668354755357 L 599 556 L 609.212650737095 560.0867792847318 L 620.9984034253762 555.734958994875 L 609.1112239355363 551.668354755357" stroke-miterlimit="10"/></g><g transform="translate(-166,-235) scale(1,1)"><rect fill="#C0C0C0" stroke="none" x="928" y="536" width="76.57080078125" height="44" opacity="0.2"/></g><g transform="translate(-166,-235) scale(1,1)"><rect fill="#ffffff" stroke="none" x="921" y="529" width="76.57080078125" height="44"/></g><g transform="translate(-166,-235) scale(1,1)"><path fill="none" stroke="#000000" d="M 921 529 L 997.57080078125 529 L 997.57080078125 573 L 921 573 L 921 529 Z Z" stroke-miterlimit="10"/></g><g transform="translate(-166,-235) scale(1,1)"><path fill="none" stroke="#000000" d="M 921 554 L 997.57080078125 554" stroke-miterlimit="10"/></g><g transform="translate(-166,-235) scale(1,1)"><path fill="none" stroke="#000000" d="M 921 564 L 997.57080078125 564" stroke-miterlimit="10"/></g><g transform="translate(-166,-235) scale(1,1)"><g><path fill="none" stroke="none"/><text fill="#000000" stroke="none" font-family="Arial" font-size="13px" font-style="normal" font-weight="bold" text-decoration="none" x="929.785400390625" y="548.5">Command</text></g></g><g transform="translate(-166,-235) scale(1,1)"><path fill="none" stroke="#000000" d="M 863 553 L 920 552" stroke-miterlimit="10"/></g><g transform="translate(-166,-235) scale(1,1)"><path fill="#000000" stroke="none" d="M 873.0872714227911 548.612864802295 L 863 553 L 873.2349510750042 557.0306049784455 L 884.9966151242203 552.6140944715049"/></g><g transform="translate(-166,-235) scale(1,1)"><path fill="none" stroke="#000000" d="M 873.0872714227911 548.612864802295 L 863 553 L 873.2349510750042 557.0306049784455 L 884.9966151242203 552.6140944715049 L 873.0872714227911 548.612864802295" stroke-miterlimit="10"/></g><g transform="translate(-166,-235) scale(1,1)"><rect fill="#C0C0C0" stroke="none" x="826" y="352" width="97.79736328125" height="44" opacity="0.2"/></g><g transform="translate(-166,-235) scale(1,1)"><rect fill="#ffffff" stroke="none" x="819" y="345" width="97.79736328125" height="44"/></g><g transform="translate(-166,-235) scale(1,1)"><path fill="none" stroke="#000000" d="M 819 345 L 916.79736328125 345 L 916.79736328125 389 L 819 389 L 819 345 Z Z" stroke-miterlimit="10"/></g><g transform="translate(-166,-235) scale(1,1)"><path fill="none" stroke="#000000" d="M 819 370 L 916.79736328125 370" stroke-miterlimit="10"/></g><g transform="translate(-166,-235) scale(1,1)"><path fill="none" stroke="#000000" d="M 819 380 L 916.79736328125 380" stroke-miterlimit="10"/></g><g transform="translate(-166,-235) scale(1,1)"><g><path fill="none" stroke="none"/><text fill="#000000" stroke="none" font-family="Arial" font-size="13px" font-style="normal" font-weight="bold" text-decoration="none" x="852.898681640625" y="364.5">Node</text></g></g><g transform="translate(-166,-235) scale(1,1)"><path fill="none" stroke="#000000" d="M 802 496 L 855 390" stroke-miterlimit="10" stroke-dasharray="3"/></g><g transform="translate(-166,-235) scale(1,1)"><path fill="none" stroke="#000000" d="M 854.2202207790025 400.97232629693906 L 855 390 L 846.6900064950472 397.2072191549614" stroke-miterlimit="10"/></g><g transform="translate(-166,-235) scale(1,1)"><path fill="none" stroke="#000000" d="M 948 528 L 879 390" stroke-miterlimit="10" stroke-dasharray="3"/></g><g transform="translate(-166,-235) scale(1,1)"><path fill="none" stroke="#000000" d="M 887.3099935049528 397.2072191549614 L 879 390 L 879.7797792209975 400.97232629693906" stroke-miterlimit="10"/></g><g transform="translate(-166,-235) scale(1,1)"><rect fill="#C0C0C0" stroke="none" x="815" y="847" width="60.2001953125" height="44" opacity="0.2"/></g><g transform="translate(-166,-235) scale(1,1)"><rect fill="#ffffff" stroke="none" x="808" y="840" width="60.2001953125" height="44"/></g><g transform="translate(-166,-235) scale(1,1)"><path fill="none" stroke="#000000" d="M 808 840 L 868.2001953125 840 L 868.2001953125 884 L 808 884 L 808 840 Z Z" stroke-miterlimit="10"/></g><g transform="translate(-166,-235) scale(1,1)"><path fill="none" stroke="#000000" d="M 808 865 L 868.2001953125 865" stroke-miterlimit="10"/></g><g transform="translate(-166,-235) scale(1,1)"><path fill="none" stroke="#000000" d="M 808 875 L 868.2001953125 875" stroke-miterlimit="10"/></g><g transform="translate(-166,-235) scale(1,1)"><g><path fill="none" stroke="none"/><text fill="#000000" stroke="none" font-family="Arial" font-size="13px" font-style="normal" font-weight="bold" text-decoration="none" x="814.10009765625" y="859.5">MoveBy</text></g></g><g transform="translate(-166,-235) scale(1,1)"><path fill="none" stroke="#000000" d="M 833 839 L 785 615" stroke-miterlimit="10"/></g><g transform="translate(-166,-235) scale(1,1)"><path fill="#FFFFFF" stroke="none" d="M 797.4909052518406 633.1101431797084 L 785 615 L 781.026598756104 636.6382088573663"/></g><g transform="translate(-166,-235) scale(1,1)"><path fill="none" stroke="#000000" d="M 797.4909052518406 633.1101431797084 L 785 615 L 781.026598756104 636.6382088573663 L 797.4909052518406 633.1101431797084" stroke-miterlimit="10"/></g><g transform="translate(-166,-235) scale(1,1)"><rect fill="#C0C0C0" stroke="none" x="906" y="847" width="127.77099609375" height="44" opacity="0.2"/></g><g transform="translate(-166,-235) scale(1,1)"><rect fill="#ffffff" stroke="none" x="899" y="840" width="127.77099609375" height="44"/></g><g transform="translate(-166,-235) scale(1,1)"><path fill="none" stroke="#000000" d="M 899 840 L 1026.77099609375 840 L 1026.77099609375 884 L 899 884 L 899 840 Z Z" stroke-miterlimit="10"/></g><g transform="translate(-166,-235) scale(1,1)"><path fill="none" stroke="#000000" d="M 899 865 L 1026.77099609375 865" stroke-miterlimit="10"/></g><g transform="translate(-166,-235) scale(1,1)"><path fill="none" stroke="#000000" d="M 899 875 L 1026.77099609375 875" stroke-miterlimit="10"/></g><g transform="translate(-166,-235) scale(1,1)"><g><path fill="none" stroke="none"/><text fill="#000000" stroke="none" font-family="Arial" font-size="13px" font-style="normal" font-weight="bold" text-decoration="none" x="909.385498046875" y="859.5">MoveByCommand</text></g></g><g transform="translate(-166,-235) scale(1,1)"><path fill="none" stroke="#000000" d="M 962 839 L 959 574" stroke-miterlimit="10"/></g><g transform="translate(-166,-235) scale(1,1)"><path fill="#FFFFFF" stroke="none" d="M 967.6485796296846 594.2287436680829 L 959 574 L 950.8115874811959 594.4193511263677"/></g><g transform="translate(-166,-235) scale(1,1)"><path fill="none" stroke="#000000" d="M 967.6485796296846 594.2287436680829 L 959 574 L 950.8115874811959 594.4193511263677 L 967.6485796296846 594.2287436680829" stroke-miterlimit="10"/></g><g transform="translate(-166,-235) scale(1,1)"><rect fill="#C0C0C0" stroke="none" x="1450" y="296" width="50" height="44" opacity="0.2"/></g><g transform="translate(-166,-235) scale(1,1)"><rect fill="#ffffff" stroke="none" x="1443" y="289" width="50" height="44"/></g><g transform="translate(-166,-235) scale(1,1)"><path fill="none" stroke="#000000" d="M 1443 289 L 1493 289 L 1493 333 L 1443 333 L 1443 289 Z Z" stroke-miterlimit="10"/></g><g transform="translate(-166,-235) scale(1,1)"><path fill="none" stroke="#000000" d="M 1443 314 L 1493 314" stroke-miterlimit="10"/></g><g transform="translate(-166,-235) scale(1,1)"><path fill="none" stroke="#000000" d="M 1443 324 L 1493 324" stroke-miterlimit="10"/></g><g transform="translate(-166,-235) scale(1,1)"><g><path fill="none" stroke="none"/><text fill="#000000" stroke="none" font-family="Arial" font-size="13px" font-style="normal" font-weight="bold" text-decoration="none" x="1451" y="308.5">Coord</text></g></g><g transform="translate(-166,-235) scale(1,1)"><rect fill="#C0C0C0" stroke="none" x="1290" y="296" width="89.85009765625" height="44" opacity="0.2"/></g><g transform="translate(-166,-235) scale(1,1)"><rect fill="#ffffff" stroke="none" x="1283" y="289" width="89.85009765625" height="44"/></g><g transform="translate(-166,-235) scale(1,1)"><path fill="none" stroke="#000000" d="M 1283 289 L 1372.85009765625 289 L 1372.85009765625 333 L 1283 333 L 1283 289 Z Z" stroke-miterlimit="10"/></g><g transform="translate(-166,-235) scale(1,1)"><path fill="none" stroke="#000000" d="M 1283 314 L 1372.85009765625 314" stroke-miterlimit="10"/></g><g transform="translate(-166,-235) scale(1,1)"><path fill="none" stroke="#000000" d="M 1283 324 L 1372.85009765625 324" stroke-miterlimit="10"/></g><g transform="translate(-166,-235) scale(1,1)"><g><path fill="none" stroke="none"/><text fill="#000000" stroke="none" font-family="Arial" font-size="13px" font-style="normal" font-weight="bold" text-decoration="none" x="1291.425048828125" y="308.5">TimeService</text></g></g><g transform="translate(-166,-235) scale(1,1)"><path fill="none" stroke="#000000" d="M 864 839 L 1442 334" stroke-miterlimit="10" stroke-dasharray="3"/></g><g transform="translate(-166,-235) scale(1,1)"><path fill="none" stroke="#000000" d="M 1437.1165449047346 343.8565646313778 L 1442 334 L 1431.5772320964672 337.51651947656865" stroke-miterlimit="10"/></g><g transform="translate(-166,-235) scale(1,1)"><path fill="none" stroke="#000000" d="M 983 839 L 1447 334" stroke-miterlimit="10" stroke-dasharray="3"/></g><g transform="translate(-166,-235) scale(1,1)"><path fill="none" stroke="#000000" d="M 1443.2238605582847 344.3315425235888 L 1447 334 L 1437.0243624155105 338.635369972604" stroke-miterlimit="10"/></g><g transform="translate(-166,-235) scale(1,1)"><path fill="none" stroke="#000000" d="M 858 839 L 1307 334" stroke-miterlimit="10" stroke-dasharray="3"/></g><g transform="translate(-166,-235) scale(1,1)"><path fill="none" stroke="#000000" d="M 1303.3932419744276 344.3918860918011 L 1307 334 L 1297.101463817188 338.7978100668495" stroke-miterlimit="10"/></g><g transform="translate(-166,-235) scale(1,1)"><path fill="none" stroke="#000000" d="M 592 504 L 821 390" stroke-miterlimit="10" stroke-dasharray="3"/></g><g transform="translate(-166,-235) scale(1,1)"><path fill="none" stroke="#000000" d="M 813.778263920557 398.2973807914831 L 821 390 L 810.0263272225417 390.7605956700311" stroke-miterlimit="10"/></g><g transform="translate(-166,-235) scale(1,1)"><rect fill="#C0C0C0" stroke="none" x="663" y="951" width="77.9228515625" height="44" opacity="0.2"/></g><g transform="translate(-166,-235) scale(1,1)"><rect fill="#ffffff" stroke="none" x="656" y="944" width="77.9228515625" height="44"/></g><g transform="translate(-166,-235) scale(1,1)"><path fill="none" stroke="#000000" d="M 656 944 L 733.9228515625 944 L 733.9228515625 988 L 656 988 L 656 944 Z Z" stroke-miterlimit="10"/></g><g transform="translate(-166,-235) scale(1,1)"><path fill="none" stroke="#000000" d="M 656 969 L 733.9228515625 969" stroke-miterlimit="10"/></g><g transform="translate(-166,-235) scale(1,1)"><path fill="none" stroke="#000000" d="M 656 979 L 733.9228515625 979" stroke-miterlimit="10"/></g><g transform="translate(-166,-235) scale(1,1)"><g><path fill="none" stroke="none"/><text fill="#000000" stroke="none" font-family="Arial" font-size="13px" font-style="normal" font-weight="bold" text-decoration="none" x="665.96142578125" y="963.5">Animation</text></g></g><g transform="translate(-166,-235) scale(1,1)"><path fill="none" stroke="#000000" d="M 698 943 L 761 615" stroke-miterlimit="10"/></g><g transform="translate(-166,-235) scale(1,1)"><path fill="#FFFFFF" stroke="none" d="M 765.434031524955 636.5485350879289 L 761 615 L 748.8982184739798 633.3724490446014"/></g><g transform="translate(-166,-235) scale(1,1)"><path fill="none" stroke="#000000" d="M 765.434031524955 636.5485350879289 L 761 615 L 748.8982184739798 633.3724490446014 L 765.434031524955 636.5485350879289" stroke-miterlimit="10"/></g><g transform="translate(-166,-235) scale(1,1)"><rect fill="#C0C0C0" stroke="none" x="735" y="847" width="61.70458984375" height="44" opacity="0.2"/></g><g transform="translate(-166,-235) scale(1,1)"><rect fill="#ffffff" stroke="none" x="728" y="840" width="61.70458984375" height="44"/></g><g transform="translate(-166,-235) scale(1,1)"><path fill="none" stroke="#000000" d="M 728 840 L 789.70458984375 840 L 789.70458984375 884 L 728 884 L 728 840 Z Z" stroke-miterlimit="10"/></g><g transform="translate(-166,-235) scale(1,1)"><path fill="none" stroke="#000000" d="M 728 865 L 789.70458984375 865" stroke-miterlimit="10"/></g><g transform="translate(-166,-235) scale(1,1)"><path fill="none" stroke="#000000" d="M 728 875 L 789.70458984375 875" stroke-miterlimit="10"/></g><g transform="translate(-166,-235) scale(1,1)"><g><path fill="none" stroke="none"/><text fill="#000000" stroke="none" font-family="Arial" font-size="13px" font-style="normal" font-weight="bold" text-decoration="none" x="735.352294921875" y="859.5">MoveTo</text></g></g><g transform="translate(-166,-235) scale(1,1)"><path fill="none" stroke="#000000" d="M 759 839 L 769 615" stroke-miterlimit="10"/></g><g transform="translate(-166,-235) scale(1,1)"><path fill="#FFFFFF" stroke="none" d="M 776.5041796927875 635.6806017112258 L 769 615 L 759.6828626389865 634.9296500570383"/></g><g transform="translate(-166,-235) scale(1,1)"><path fill="none" stroke="#000000" d="M 776.5041796927875 635.6806017112258 L 769 615 L 759.6828626389865 634.9296500570383 L 776.5041796927875 635.6806017112258" stroke-miterlimit="10"/></g><g transform="translate(-166,-235) scale(1,1)"><rect fill="#C0C0C0" stroke="none" x="543" y="847" width="50" height="44" opacity="0.2"/></g><g transform="translate(-166,-235) scale(1,1)"><rect fill="#ffffff" stroke="none" x="536" y="840" width="50" height="44"/></g><g transform="translate(-166,-235) scale(1,1)"><path fill="none" stroke="#000000" d="M 536 840 L 586 840 L 586 884 L 536 884 L 536 840 Z Z" stroke-miterlimit="10"/></g><g transform="translate(-166,-235) scale(1,1)"><path fill="none" stroke="#000000" d="M 536 865 L 586 865" stroke-miterlimit="10"/></g><g transform="translate(-166,-235) scale(1,1)"><path fill="none" stroke="#000000" d="M 536 875 L 586 875" stroke-miterlimit="10"/></g><g transform="translate(-166,-235) scale(1,1)"><g><path fill="none" stroke="none"/><text fill="#000000" stroke="none" font-family="Arial" font-size="13px" font-style="normal" font-weight="bold" text-decoration="none" x="544.5" y="859.5">Sleep</text></g></g><g transform="translate(-166,-235) scale(1,1)"><path fill="none" stroke="#000000" d="M 577 839 L 731 615" stroke-miterlimit="10"/></g><g transform="translate(-166,-235) scale(1,1)"><path fill="#FFFFFF" stroke="none" d="M 726.4227417742901 636.5185665678541 L 731 615 L 712.5474653278147 626.9793140109024"/></g><g transform="translate(-166,-235) scale(1,1)"><path fill="none" stroke="#000000" d="M 726.4227417742901 636.5185665678541 L 731 615 L 712.5474653278147 626.9793140109024 L 726.4227417742901 636.5185665678541" stroke-miterlimit="10"/></g><g transform="translate(-166,-235) scale(1,1)"><rect fill="#C0C0C0" stroke="none" x="655" y="847" width="54.37939453125" height="44" opacity="0.2"/></g><g transform="translate(-166,-235) scale(1,1)"><rect fill="#ffffff" stroke="none" x="648" y="840" width="54.37939453125" height="44"/></g><g transform="translate(-166,-235) scale(1,1)"><path fill="none" stroke="#000000" d="M 648 840 L 702.37939453125 840 L 702.37939453125 884 L 648 884 L 648 840 Z Z" stroke-miterlimit="10"/></g><g transform="translate(-166,-235) scale(1,1)"><path fill="none" stroke="#000000" d="M 648 865 L 702.37939453125 865" stroke-miterlimit="10"/></g><g transform="translate(-166,-235) scale(1,1)"><path fill="none" stroke="#000000" d="M 648 875 L 702.37939453125 875" stroke-miterlimit="10"/></g><g transform="translate(-166,-235) scale(1,1)"><g><path fill="none" stroke="none"/><text fill="#000000" stroke="none" font-family="Arial" font-size="13px" font-style="normal" font-weight="bold" text-decoration="none" x="655.189697265625" y="859.5">Vanish</text></g></g><g transform="translate(-166,-235) scale(1,1)"><path fill="none" stroke="#000000" d="M 682 839 L 753 615" stroke-miterlimit="10"/></g><g transform="translate(-166,-235) scale(1,1)"><path fill="#FFFFFF" stroke="none" d="M 754.8842391414031 636.9191615455063 L 753 615 L 738.8331705075122 631.8315460410142"/></g><g transform="translate(-166,-235) scale(1,1)"><path fill="none" stroke="#000000" d="M 754.8842391414031 636.9191615455063 L 753 615 L 738.8331705075122 631.8315460410142 L 754.8842391414031 636.9191615455063" stroke-miterlimit="10"/></g><g transform="translate(-166,-235) scale(1,1)"><rect fill="#C0C0C0" stroke="none" x="183" y="847" width="71.88623046875" height="44" opacity="0.2"/></g><g transform="translate(-166,-235) scale(1,1)"><rect fill="#ffffff" stroke="none" x="176" y="840" width="71.88623046875" height="44"/></g><g transform="translate(-166,-235) scale(1,1)"><path fill="none" stroke="#000000" d="M 176 840 L 247.88623046875 840 L 247.88623046875 884 L 176 884 L 176 840 Z Z" stroke-miterlimit="10"/></g><g transform="translate(-166,-235) scale(1,1)"><path fill="none" stroke="#000000" d="M 176 865 L 247.88623046875 865" stroke-miterlimit="10"/></g><g transform="translate(-166,-235) scale(1,1)"><path fill="none" stroke="#000000" d="M 176 875 L 247.88623046875 875" stroke-miterlimit="10"/></g><g transform="translate(-166,-235) scale(1,1)"><g><path fill="none" stroke="none"/><text fill="#000000" stroke="none" font-family="Arial" font-size="13px" font-style="normal" font-weight="bold" text-decoration="none" x="182.943115234375" y="859.5">Sequence</text></g></g><g transform="translate(-166,-235) scale(1,1)"><path fill="none" stroke="#000000" d="M 249 841 L 682 604" stroke-miterlimit="10"/></g><g transform="translate(-166,-235) scale(1,1)"><path fill="#FFFFFF" stroke="none" d="M 668.2128706732186 621.1439512635392 L 682 604 L 660.1284231651567 606.3736315547172"/></g><g transform="translate(-166,-235) scale(1,1)"><path fill="none" stroke="#000000" d="M 668.2128706732186 621.1439512635392 L 682 604 L 660.1284231651567 606.3736315547172 L 668.2128706732186 621.1439512635392" stroke-miterlimit="10"/></g><g transform="translate(-166,-235) scale(1,1)"><rect fill="#C0C0C0" stroke="none" x="279" y="847" width="54.728515625" height="44" opacity="0.2"/></g><g transform="translate(-166,-235) scale(1,1)"><rect fill="#ffffff" stroke="none" x="272" y="840" width="54.728515625" height="44"/></g><g transform="translate(-166,-235) scale(1,1)"><path fill="none" stroke="#000000" d="M 272 840 L 326.728515625 840 L 326.728515625 884 L 272 884 L 272 840 Z Z" stroke-miterlimit="10"/></g><g transform="translate(-166,-235) scale(1,1)"><path fill="none" stroke="#000000" d="M 272 865 L 326.728515625 865" stroke-miterlimit="10"/></g><g transform="translate(-166,-235) scale(1,1)"><path fill="none" stroke="#000000" d="M 272 875 L 326.728515625 875" stroke-miterlimit="10"/></g><g transform="translate(-166,-235) scale(1,1)"><g><path fill="none" stroke="none"/><text fill="#000000" stroke="none" font-family="Arial" font-size="13px" font-style="normal" font-weight="bold" text-decoration="none" x="278.8642578125" y="859.5">Repeat</text></g></g><g transform="translate(-166,-235) scale(1,1)"><path fill="none" stroke="#000000" d="M 328 843 L 682 613" stroke-miterlimit="10"/></g><g transform="translate(-166,-235) scale(1,1)"><path fill="#FFFFFF" stroke="none" d="M 669.5430148259418 631.1334916762684 L 682 613 L 660.3692663794039 617.0138962411623"/></g><g transform="translate(-166,-235) scale(1,1)"><path fill="none" stroke="#000000" d="M 669.5430148259418 631.1334916762684 L 682 613 L 660.3692663794039 617.0138962411623 L 669.5430148259418 631.1334916762684" stroke-miterlimit="10"/></g><g transform="translate(-166,-235) scale(1,1)"><rect fill="#C0C0C0" stroke="none" x="823" y="252" width="97.79736328125" height="44" opacity="0.2"/></g><g transform="translate(-166,-235) scale(1,1)"><rect fill="#ffffff" stroke="none" x="816" y="245" width="97.79736328125" height="44"/></g><g transform="translate(-166,-235) scale(1,1)"><path fill="none" stroke="#000000" d="M 816 245 L 913.79736328125 245 L 913.79736328125 289 L 816 289 L 816 245 Z Z" stroke-miterlimit="10"/></g><g transform="translate(-166,-235) scale(1,1)"><path fill="none" stroke="#000000" d="M 816 270 L 913.79736328125 270" stroke-miterlimit="10"/></g><g transform="translate(-166,-235) scale(1,1)"><path fill="none" stroke="#000000" d="M 816 280 L 913.79736328125 280" stroke-miterlimit="10"/></g><g transform="translate(-166,-235) scale(1,1)"><g><path fill="none" stroke="none"/><text fill="#000000" stroke="none" font-family="Arial" font-size="13px" font-style="normal" font-weight="bold" text-decoration="none" x="826.398681640625" y="264.5">VisibleObject</text></g></g><g transform="translate(-166,-235) scale(1,1)"><path fill="none" stroke="#000000" d="M 866 344 L 865 290" stroke-miterlimit="10"/></g><g transform="translate(-166,-235) scale(1,1)"><path fill="#FFFFFF" stroke="none" d="M 873.7939231320462 310.16598413040293 L 865 290 L 856.9587385519949 310.4777468078113"/></g><g transform="translate(-166,-235) scale(1,1)"><path fill="none" stroke="#000000" d="M 873.7939231320462 310.16598413040293 L 865 290 L 856.9587385519949 310.4777468078113 L 873.7939231320462 310.16598413040293" stroke-miterlimit="10"/></g><g transform="translate(-166,-235) scale(1,1)"><rect fill="#C0C0C0" stroke="none" x="439" y="847" width="50" height="44" opacity="0.2"/></g><g transform="translate(-166,-235) scale(1,1)"><rect fill="#ffffff" stroke="none" x="432" y="840" width="50" height="44"/></g><g transform="translate(-166,-235) scale(1,1)"><path fill="none" stroke="#000000" d="M 432 840 L 482 840 L 482 884 L 432 884 L 432 840 Z Z" stroke-miterlimit="10"/></g><g transform="translate(-166,-235) scale(1,1)"><path fill="none" stroke="#000000" d="M 432 865 L 482 865" stroke-miterlimit="10"/></g><g transform="translate(-166,-235) scale(1,1)"><path fill="none" stroke="#000000" d="M 432 875 L 482 875" stroke-miterlimit="10"/></g><g transform="translate(-166,-235) scale(1,1)"><g><path fill="none" stroke="none"/><text fill="#000000" stroke="none" font-family="Arial" font-size="13px" font-style="normal" font-weight="bold" text-decoration="none" x="441" y="859.5">Jump</text></g></g><g transform="translate(-166,-235) scale(1,1)"><path fill="none" stroke="#000000" d="M 481 839 L 710 615" stroke-miterlimit="10"/></g><g transform="translate(-166,-235) scale(1,1)"><path fill="#FFFFFF" stroke="none" d="M 701.3571493299493 635.2311920631288 L 710 615 L 689.5829685830986 623.1941947817502"/></g><g transform="translate(-166,-235) scale(1,1)"><path fill="none" stroke="#000000" d="M 701.3571493299493 635.2311920631288 L 710 615 L 689.5829685830986 623.1941947817502 L 701.3571493299493 635.2311920631288" stroke-miterlimit="10"/></g><g transform="translate(-166,-235) scale(1,1)"><rect fill="#C0C0C0" stroke="none" x="391" y="951" width="64" height="44" opacity="0.2"/></g><g transform="translate(-166,-235) scale(1,1)"><rect fill="#ffffff" stroke="none" x="384" y="944" width="64" height="44"/></g><g transform="translate(-166,-235) scale(1,1)"><path fill="none" stroke="#000000" d="M 384 944 L 448 944 L 448 988 L 384 988 L 384 944 Z Z" stroke-miterlimit="10"/></g><g transform="translate(-166,-235) scale(1,1)"><path fill="none" stroke="#000000" d="M 384 969 L 448 969" stroke-miterlimit="10"/></g><g transform="translate(-166,-235) scale(1,1)"><path fill="none" stroke="#000000" d="M 384 979 L 448 979" stroke-miterlimit="10"/></g><g transform="translate(-166,-235) scale(1,1)"><g><path fill="none" stroke="none"/><text fill="#000000" stroke="none" font-family="Arial" font-size="13px" font-style="normal" font-weight="bold" text-decoration="none" x="390.5" y="963.5">CallFunc</text></g></g><g transform="translate(-166,-235) scale(1,1)"><path fill="none" stroke="#000000" d="M 436 943 L 720 615" stroke-miterlimit="10"/></g><g transform="translate(-166,-235) scale(1,1)"><path fill="#FFFFFF" stroke="none" d="M 713.0601768298926 635.8767539231471 L 720 615 L 700.3307097079613 624.8548982444017"/></g><g transform="translate(-166,-235) scale(1,1)"><path fill="none" stroke="#000000" d="M 713.0601768298926 635.8767539231471 L 720 615 L 700.3307097079613 624.8548982444017 L 713.0601768298926 635.8767539231471" stroke-miterlimit="10"/></g></g></svg>