<svg version="1.1" xmlns="http://www.w3.org/2000/svg" xmlns:xlink="http://www.w3.org/1999/xlink" width="1134" height="531"><defs/><g><g transform="translate(-198,-126) scale(1,1)"><rect fill="#C0C0C0" stroke="none" x="215" y="359" width="219.4501953125" height="102" opacity="0.2"/></g><g transform="translate(-198,-126) scale(1,1)"><rect fill="#ffffff" stroke="none" x="208" y="352" width="219.4501953125" height="102"/></g><g transform="translate(-198,-126) scale(1,1)"><path fill="none" stroke="#000000" d="M 208 352 L 427.4501953125 352 L 427.4501953125 454 L 208 454 L 208 352 Z Z" stroke-miterlimit="10"/></g><g transform="translate(-198,-126) scale(1,1)"><path fill="none" stroke="#000000" d="M 208 377 L 427.4501953125 377" stroke-miterlimit="10"/></g><g transform="translate(-198,-126) scale(1,1)"><path fill="none" stroke="#000000" d="M 208 387 L 427.4501953125 387" stroke-miterlimit="10"/></g><g transform="translate(-198,-126) scale(1,1)"><g><path fill="none" stroke="none"/><text fill="#000000" stroke="none" font-family="Arial" font-size="13px" font-style="normal" font-weight="bold" text-decoration="none" x="274.22509765625" y="371.5">ActionManager</text></g></g><g transform="translate(-198,-126) scale(1,1)"><g><path fill="none" stroke="none"/><text fill="#000000" stroke="none" font-family="Arial" font-size="13px" font-style="normal" font-weight="normal" text-decoration="none" x="213" y="404.5">+addAction(Action*)</text></g></g><g transform="translate(-198,-126) scale(1,1)"><g><path fill="none" stroke="none"/><text fill="#000000" stroke="none" font-family="Arial" font-size="13px" font-style="normal" font-weight="normal" text-decoration="none" x="213" y="419.5">+void update()</text></g></g><g transform="translate(-198,-126) scale(1,1)"><g><path fill="none" stroke="none"/><text fill="#000000" stroke="none" font-family="Arial" font-size="13px" font-style="normal" font-weight="normal" text-decoration="none" x="213" y="434.5">+void pauseHost(VisibleObject*)</text></g></g><g transform="translate(-198,-126) scale(1,1)"><g><path fill="none" stroke="none"/><text fill="#000000" stroke="none" font-family="Arial" font-size="13px" font-style="normal" font-weight="normal" text-decoration="none" x="213" y="449.5">+void resumeHost(VisibleObject*)</text></g></g><g transform="translate(-198,-126) scale(1,1)"><rect fill="#C0C0C0" stroke="none" x="519" y="351" width="178.52685546875" height="117" opacity="0.2"/></g><g transform="translate(-198,-126) scale(1,1)"><rect fill="#ffffff" stroke="none" x="512" y="344" width="178.52685546875" height="117"/></g><g transform="translate(-198,-126) scale(1,1)"><path fill="none" stroke="#000000" d="M 512 344 L 690.52685546875 344 L 690.52685546875 461 L 512 461 L 512 344 Z Z" stroke-miterlimit="10"/></g><g transform="translate(-198,-126) scale(1,1)"><path fill="none" stroke="#000000" d="M 512 369 L 690.52685546875 369" stroke-miterlimit="10"/></g><g transform="translate(-198,-126) scale(1,1)"><path fill="none" stroke="#000000" d="M 512 452 L 690.52685546875 452" stroke-miterlimit="10"/></g><g transform="translate(-198,-126) scale(1,1)"><g><path fill="none" stroke="none"/><text fill="#000000" stroke="none" font-family="Arial" font-size="13px" font-style="normal" font-weight="bold" text-decoration="none" x="582.763427734375" y="363.5">Action</text></g></g><g transform="translate(-198,-126) scale(1,1)"><g><path fill="none" stroke="none"/><text fill="#000000" stroke="none" font-family="Arial" font-size="13px" font-style="normal" font-weight="normal" text-decoration="none" x="517" y="386.5">+VisibleObject* host</text></g></g><g transform="translate(-198,-126) scale(1,1)"><g><path fill="none" stroke="none"/><text fill="#000000" stroke="none" font-family="Arial" font-size="13px" font-style="normal" font-weight="normal" text-decoration="none" x="517" y="401.5">+int duration</text></g></g><g transform="translate(-198,-126) scale(1,1)"><g><path fill="none" stroke="none"/><text fill="#000000" stroke="none" font-family="Arial" font-size="13px" font-style="normal" font-weight="normal" text-decoration="none" x="517" y="416.5">+bool isRepeat</text></g></g><g transform="translate(-198,-126) scale(1,1)"><g><path fill="none" stroke="none"/><text fill="#000000" stroke="none" font-family="Arial" font-size="13px" font-style="normal" font-weight="normal" text-decoration="none" x="517" y="431.5">+bool isPause</text></g></g><g transform="translate(-198,-126) scale(1,1)"><g><path fill="none" stroke="none"/><text fill="#000000" stroke="none" font-family="Arial" font-size="13px" font-style="normal" font-weight="normal" text-decoration="none" x="517" y="446.5">+queue_Command cmdList</text></g></g><g transform="translate(-198,-126) scale(1,1)"><path fill="none" stroke="#000000" d="M 428 403 L 511 402" stroke-miterlimit="10"/></g><g transform="translate(-198,-126) scale(1,1)"><path fill="#000000" stroke="none" d="M 438.11122393553626 398.6683547553569 L 428 403 L 438.212650737095 407.08677928473185 L 449.9984034253762 402.734958994875"/></g><g transform="translate(-198,-126) scale(1,1)"><path fill="none" stroke="#000000" d="M 438.11122393553626 398.6683547553569 L 428 403 L 438.212650737095 407.08677928473185 L 449.9984034253762 402.734958994875 L 438.11122393553626 398.6683547553569" stroke-miterlimit="10"/></g><g transform="translate(-198,-126) scale(1,1)"><rect fill="#C0C0C0" stroke="none" x="757" y="383" width="76.57080078125" height="44" opacity="0.2"/></g><g transform="translate(-198,-126) scale(1,1)"><rect fill="#ffffff" stroke="none" x="750" y="376" width="76.57080078125" height="44"/></g><g transform="translate(-198,-126) scale(1,1)"><path fill="none" stroke="#000000" d="M 750 376 L 826.57080078125 376 L 826.57080078125 420 L 750 420 L 750 376 Z Z" stroke-miterlimit="10"/></g><g transform="translate(-198,-126) scale(1,1)"><path fill="none" stroke="#000000" d="M 750 401 L 826.57080078125 401" stroke-miterlimit="10"/></g><g transform="translate(-198,-126) scale(1,1)"><path fill="none" stroke="#000000" d="M 750 411 L 826.57080078125 411" stroke-miterlimit="10"/></g><g transform="translate(-198,-126) scale(1,1)"><g><path fill="none" stroke="none"/><text fill="#000000" stroke="none" font-family="Arial" font-size="13px" font-style="normal" font-weight="bold" text-decoration="none" x="758.785400390625" y="395.5">Command</text></g></g><g transform="translate(-198,-126) scale(1,1)"><path fill="none" stroke="#000000" d="M 692 400 L 749 399" stroke-miterlimit="10"/></g><g transform="translate(-198,-126) scale(1,1)"><path fill="#000000" stroke="none" d="M 702.0872714227911 395.612864802295 L 692 400 L 702.2349510750042 404.03060497844547 L 713.9966151242203 399.6140944715049"/></g><g transform="translate(-198,-126) scale(1,1)"><path fill="none" stroke="#000000" d="M 702.0872714227911 395.612864802295 L 692 400 L 702.2349510750042 404.03060497844547 L 713.9966151242203 399.6140944715049 L 702.0872714227911 395.612864802295" stroke-miterlimit="10"/></g><g transform="translate(-198,-126) scale(1,1)"><rect fill="#C0C0C0" stroke="none" x="663" y="143" width="97.79736328125" height="44" opacity="0.2"/></g><g transform="translate(-198,-126) scale(1,1)"><rect fill="#ffffff" stroke="none" x="656" y="136" width="97.79736328125" height="44"/></g><g transform="translate(-198,-126) scale(1,1)"><path fill="none" stroke="#000000" d="M 656 136 L 753.79736328125 136 L 753.79736328125 180 L 656 180 L 656 136 Z Z" stroke-miterlimit="10"/></g><g transform="translate(-198,-126) scale(1,1)"><path fill="none" stroke="#000000" d="M 656 161 L 753.79736328125 161" stroke-miterlimit="10"/></g><g transform="translate(-198,-126) scale(1,1)"><path fill="none" stroke="#000000" d="M 656 171 L 753.79736328125 171" stroke-miterlimit="10"/></g><g transform="translate(-198,-126) scale(1,1)"><g><path fill="none" stroke="none"/><text fill="#000000" stroke="none" font-family="Arial" font-size="13px" font-style="normal" font-weight="bold" text-decoration="none" x="666.398681640625" y="155.5">VisibleObject</text></g></g><g transform="translate(-198,-126) scale(1,1)"><path fill="none" stroke="#000000" d="M 626 343 L 694 181" stroke-miterlimit="10" stroke-dasharray="3"/></g><g transform="translate(-198,-126) scale(1,1)"><path fill="none" stroke="#000000" d="M 693.9480911686156 191.99987752082833 L 694 181 L 686.1852069261255 188.7413829005238" stroke-miterlimit="10"/></g><g transform="translate(-198,-126) scale(1,1)"><path fill="none" stroke="#000000" d="M 780 375 L 712 181" stroke-miterlimit="10" stroke-dasharray="3"/></g><g transform="translate(-198,-126) scale(1,1)"><path fill="none" stroke="#000000" d="M 719.3341973078917 189.19814307321568 L 712 181 L 711.389098090762 191.98302321117868" stroke-miterlimit="10"/></g><g transform="translate(-198,-126) scale(1,1)"><rect fill="#C0C0C0" stroke="none" x="575" y="610" width="58" height="44" opacity="0.2"/></g><g transform="translate(-198,-126) scale(1,1)"><rect fill="#ffffff" stroke="none" x="568" y="603" width="58" height="44"/></g><g transform="translate(-198,-126) scale(1,1)"><path fill="none" stroke="#000000" d="M 568 603 L 626 603 L 626 647 L 568 647 L 568 603 Z Z" stroke-miterlimit="10"/></g><g transform="translate(-198,-126) scale(1,1)"><path fill="none" stroke="#000000" d="M 568 628 L 626 628" stroke-miterlimit="10"/></g><g transform="translate(-198,-126) scale(1,1)"><path fill="none" stroke="#000000" d="M 568 638 L 626 638" stroke-miterlimit="10"/></g><g transform="translate(-198,-126) scale(1,1)"><g><path fill="none" stroke="none"/><text fill="#000000" stroke="none" font-family="Arial" font-size="13px" font-style="normal" font-weight="bold" text-decoration="none" x="573" y="622.5">MoveBy</text></g></g><g transform="translate(-198,-126) scale(1,1)"><path fill="none" stroke="#000000" d="M 597 602 L 600 462" stroke-miterlimit="10"/></g><g transform="translate(-198,-126) scale(1,1)"><path fill="#FFFFFF" stroke="none" d="M 607.9816599901887 482.5010512852639 L 600 462 L 591.1474535189245 482.1403182894511"/></g><g transform="translate(-198,-126) scale(1,1)"><path fill="none" stroke="#000000" d="M 607.9816599901887 482.5010512852639 L 600 462 L 591.1474535189245 482.1403182894511 L 607.9816599901887 482.5010512852639" stroke-miterlimit="10"/></g><g transform="translate(-198,-126) scale(1,1)"><rect fill="#C0C0C0" stroke="none" x="735" y="607" width="122" height="44" opacity="0.2"/></g><g transform="translate(-198,-126) scale(1,1)"><rect fill="#ffffff" stroke="none" x="728" y="600" width="122" height="44"/></g><g transform="translate(-198,-126) scale(1,1)"><path fill="none" stroke="#000000" d="M 728 600 L 850 600 L 850 644 L 728 644 L 728 600 Z Z" stroke-miterlimit="10"/></g><g transform="translate(-198,-126) scale(1,1)"><path fill="none" stroke="#000000" d="M 728 625 L 850 625" stroke-miterlimit="10"/></g><g transform="translate(-198,-126) scale(1,1)"><path fill="none" stroke="#000000" d="M 728 635 L 850 635" stroke-miterlimit="10"/></g><g transform="translate(-198,-126) scale(1,1)"><g><path fill="none" stroke="none"/><text fill="#000000" stroke="none" font-family="Arial" font-size="13px" font-style="normal" font-weight="bold" text-decoration="none" x="735.5" y="619.5">MoveByCommand</text></g></g><g transform="translate(-198,-126) scale(1,1)"><path fill="none" stroke="#000000" d="M 789 599 L 788 421" stroke-miterlimit="10"/></g><g transform="translate(-198,-126) scale(1,1)"><path fill="#FFFFFF" stroke="none" d="M 796.5330882117818 441.277731765904 L 788 421 L 779.6952829002613 441.37232617776647"/></g><g transform="translate(-198,-126) scale(1,1)"><path fill="none" stroke="#000000" d="M 796.5330882117818 441.277731765904 L 788 421 L 779.6952829002613 441.37232617776647 L 796.5330882117818 441.277731765904" stroke-miterlimit="10"/></g><g transform="translate(-198,-126) scale(1,1)"><rect fill="#C0C0C0" stroke="none" x="1279" y="143" width="50" height="44" opacity="0.2"/></g><g transform="translate(-198,-126) scale(1,1)"><rect fill="#ffffff" stroke="none" x="1272" y="136" width="50" height="44"/></g><g transform="translate(-198,-126) scale(1,1)"><path fill="none" stroke="#000000" d="M 1272 136 L 1322 136 L 1322 180 L 1272 180 L 1272 136 Z Z" stroke-miterlimit="10"/></g><g transform="translate(-198,-126) scale(1,1)"><path fill="none" stroke="#000000" d="M 1272 161 L 1322 161" stroke-miterlimit="10"/></g><g transform="translate(-198,-126) scale(1,1)"><path fill="none" stroke="#000000" d="M 1272 171 L 1322 171" stroke-miterlimit="10"/></g><g transform="translate(-198,-126) scale(1,1)"><g><path fill="none" stroke="none"/><text fill="#000000" stroke="none" font-family="Arial" font-size="13px" font-style="normal" font-weight="bold" text-decoration="none" x="1280" y="155.5">Coord</text></g></g><g transform="translate(-198,-126) scale(1,1)"><rect fill="#C0C0C0" stroke="none" x="1119" y="143" width="86" height="44" opacity="0.2"/></g><g transform="translate(-198,-126) scale(1,1)"><rect fill="#ffffff" stroke="none" x="1112" y="136" width="86" height="44"/></g><g transform="translate(-198,-126) scale(1,1)"><path fill="none" stroke="#000000" d="M 1112 136 L 1198 136 L 1198 180 L 1112 180 L 1112 136 Z Z" stroke-miterlimit="10"/></g><g transform="translate(-198,-126) scale(1,1)"><path fill="none" stroke="#000000" d="M 1112 161 L 1198 161" stroke-miterlimit="10"/></g><g transform="translate(-198,-126) scale(1,1)"><path fill="none" stroke="#000000" d="M 1112 171 L 1198 171" stroke-miterlimit="10"/></g><g transform="translate(-198,-126) scale(1,1)"><g><path fill="none" stroke="none"/><text fill="#000000" stroke="none" font-family="Arial" font-size="13px" font-style="normal" font-weight="bold" text-decoration="none" x="1118.5" y="155.5">TimeService</text></g></g><g transform="translate(-198,-126) scale(1,1)"><path fill="none" stroke="#000000" d="M 627 605 L 1271 175" stroke-miterlimit="10" stroke-dasharray="3"/></g><g transform="translate(-198,-126) scale(1,1)"><path fill="none" stroke="#000000" d="M 1264.8857123993575 184.14415043274275 L 1271 175 L 1260.2106549962787 177.14243655464315" stroke-miterlimit="10"/></g><g transform="translate(-198,-126) scale(1,1)"><path fill="none" stroke="#000000" d="M 814 599 L 1272 181" stroke-miterlimit="10" stroke-dasharray="3"/></g><g transform="translate(-198,-126) scale(1,1)"><path fill="none" stroke="#000000" d="M 1267.3312978153456 190.9600813205015 L 1272 181 L 1261.6558879829943 184.7415700687865" stroke-miterlimit="10"/></g><g transform="translate(-198,-126) scale(1,1)"><path fill="none" stroke="#000000" d="M 624 602 L 1128 181" stroke-miterlimit="10" stroke-dasharray="3"/></g><g transform="translate(-198,-126) scale(1,1)"><path fill="none" stroke="#000000" d="M 1122.8990818360653 190.74580083342778 L 1128 181 L 1117.501784318594 184.28442803341443" stroke-miterlimit="10"/></g><g transform="translate(-198,-126) scale(1,1)"><path fill="none" stroke="#000000" d="M 399 351 L 668 181" stroke-miterlimit="10" stroke-dasharray="3"/></g><g transform="translate(-198,-126) scale(1,1)"><path fill="none" stroke="#000000" d="M 661.6579375959686 189.98767180438693 L 668 181 L 657.16024098744 182.87072834736227" stroke-miterlimit="10"/></g></g></svg>