<svg version="1.1" xmlns="http://www.w3.org/2000/svg" xmlns:xlink="http://www.w3.org/1999/xlink" width="807.00732421875" height="368"><defs/><g><g transform="translate(-414,-318) scale(1,1)"><rect fill="#C0C0C0" stroke="none" x="431" y="639" width="73.9873046875" height="44" opacity="0.2"/></g><g transform="translate(-414,-318) scale(1,1)"><rect fill="#ffffff" stroke="none" x="424" y="632" width="73.9873046875" height="44"/></g><g transform="translate(-414,-318) scale(1,1)"><path fill="none" stroke="#000000" d="M 424 632 L 497.9873046875 632 L 497.9873046875 676 L 424 676 L 424 632 Z Z" stroke-miterlimit="10"/></g><g transform="translate(-414,-318) scale(1,1)"><path fill="none" stroke="#000000" d="M 424 657 L 497.9873046875 657" stroke-miterlimit="10"/></g><g transform="translate(-414,-318) scale(1,1)"><path fill="none" stroke="#000000" d="M 424 667 L 497.9873046875 667" stroke-miterlimit="10"/></g><g transform="translate(-414,-318) scale(1,1)"><g><path fill="none" stroke="none"/><text fill="#000000" stroke="none" font-family="Arial" font-size="13px" font-style="normal" font-weight="bold" text-decoration="none" x="432.99365234375" y="651.5">MainLoop</text></g></g><g transform="translate(-414,-318) scale(1,1)"><rect fill="#C0C0C0" stroke="none" x="575" y="423" width="105.82080078125" height="44" opacity="0.2"/></g><g transform="translate(-414,-318) scale(1,1)"><rect fill="#ffffff" stroke="none" x="568" y="416" width="105.82080078125" height="44"/></g><g transform="translate(-414,-318) scale(1,1)"><path fill="none" stroke="#000000" d="M 568 416 L 673.82080078125 416 L 673.82080078125 460 L 568 460 L 568 416 Z Z" stroke-miterlimit="10"/></g><g transform="translate(-414,-318) scale(1,1)"><path fill="none" stroke="#000000" d="M 568 441 L 673.82080078125 441" stroke-miterlimit="10"/></g><g transform="translate(-414,-318) scale(1,1)"><path fill="none" stroke="#000000" d="M 568 451 L 673.82080078125 451" stroke-miterlimit="10"/></g><g transform="translate(-414,-318) scale(1,1)"><g><path fill="none" stroke="none"/><text fill="#000000" stroke="none" font-family="Arial" font-size="13px" font-style="normal" font-weight="bold" text-decoration="none" x="578.410400390625" y="435.5">KeyDispatcher</text></g></g><g transform="translate(-414,-318) scale(1,1)"><rect fill="#C0C0C0" stroke="none" x="823" y="335" width="87.51416015625" height="44" opacity="0.2"/></g><g transform="translate(-414,-318) scale(1,1)"><rect fill="#ffffff" stroke="none" x="816" y="328" width="87.51416015625" height="44"/></g><g transform="translate(-414,-318) scale(1,1)"><path fill="none" stroke="#000000" d="M 816 328 L 903.51416015625 328 L 903.51416015625 372 L 816 372 L 816 328 Z Z" stroke-miterlimit="10"/></g><g transform="translate(-414,-318) scale(1,1)"><path fill="none" stroke="#000000" d="M 816 353 L 903.51416015625 353" stroke-miterlimit="10"/></g><g transform="translate(-414,-318) scale(1,1)"><path fill="none" stroke="#000000" d="M 816 363 L 903.51416015625 363" stroke-miterlimit="10"/></g><g transform="translate(-414,-318) scale(1,1)"><g><path fill="none" stroke="none"/><text fill="#000000" stroke="none" font-family="Arial" font-size="13px" font-style="normal" font-weight="bold" text-decoration="none" x="825.257080078125" y="347.5">KeyListener</text></g></g><g transform="translate(-414,-318) scale(1,1)"><path fill="none" stroke="#000000" d="M 815 350 L 624 352 L 621 415" stroke-miterlimit="10"/></g><g transform="translate(-414,-318) scale(1,1)"><path fill="#000000" stroke="none" d="M 617.2786359863939 404.6486015496341 L 621 415 L 625.6881423097332 405.0490542316979 L 622.0464332871398 393.0249009700624"/></g><g transform="translate(-414,-318) scale(1,1)"><path fill="none" stroke="#000000" d="M 617.2786359863939 404.6486015496341 L 621 415 L 625.6881423097332 405.0490542316979 L 622.0464332871398 393.0249009700624 L 617.2786359863939 404.6486015496341" stroke-miterlimit="10"/></g><g transform="translate(-414,-318) scale(1,1)"><path fill="none" stroke="#000000" d="M 620 461 L 616 656 L 499 654" stroke-miterlimit="10"/></g><g transform="translate(-414,-318) scale(1,1)"><path fill="#FFFFFF" stroke="none" d="M 509.2331374461906 649.9647926933834 L 499 654 L 509.0892433310174 658.3825984310133 L 520.9967864446221 654.3760134434979"/></g><g transform="translate(-414,-318) scale(1,1)"><path fill="none" stroke="#000000" d="M 509.2331374461906 649.9647926933834 L 499 654 L 509.0892433310174 658.3825984310133 L 520.9967864446221 654.3760134434979 L 509.2331374461906 649.9647926933834" stroke-miterlimit="10"/></g><g transform="translate(-414,-318) scale(1,1)"><rect fill="#C0C0C0" stroke="none" x="1007" y="471" width="54.271484375" height="44" opacity="0.2"/></g><g transform="translate(-414,-318) scale(1,1)"><rect fill="#ffffff" stroke="none" x="1000" y="464" width="54.271484375" height="44"/></g><g transform="translate(-414,-318) scale(1,1)"><path fill="none" stroke="#000000" d="M 1000 464 L 1054.271484375 464 L 1054.271484375 508 L 1000 508 L 1000 464 Z Z" stroke-miterlimit="10"/></g><g transform="translate(-414,-318) scale(1,1)"><path fill="none" stroke="#000000" d="M 1000 489 L 1054.271484375 489" stroke-miterlimit="10"/></g><g transform="translate(-414,-318) scale(1,1)"><path fill="none" stroke="#000000" d="M 1000 499 L 1054.271484375 499" stroke-miterlimit="10"/></g><g transform="translate(-414,-318) scale(1,1)"><g><path fill="none" stroke="none"/><text fill="#000000" stroke="none" font-family="Arial" font-size="13px" font-style="normal" font-weight="bold" text-decoration="none" x="1008.1357421875" y="483.5">Cursor</text></g></g><g transform="translate(-414,-318) scale(1,1)"><path fill="none" stroke="#000000" d="M 999 463 L 887 373" stroke-miterlimit="10"/></g><g transform="translate(-414,-318) scale(1,1)"><path fill="#FFFFFF" stroke="none" d="M 908.1174006911685 379.1689049310746 L 887 373 L 897.5701827205007 392.29433173901674"/></g><g transform="translate(-414,-318) scale(1,1)"><path fill="none" stroke="#000000" d="M 908.1174006911685 379.1689049310746 L 887 373 L 897.5701827205007 392.29433173901674 L 908.1174006911685 379.1689049310746" stroke-miterlimit="10"/></g><g transform="translate(-414,-318) scale(1,1)"><rect fill="#C0C0C0" stroke="none" x="1151" y="335" width="50" height="44" opacity="0.2"/></g><g transform="translate(-414,-318) scale(1,1)"><rect fill="#ffffff" stroke="none" x="1144" y="328" width="50" height="44"/></g><g transform="translate(-414,-318) scale(1,1)"><path fill="none" stroke="#000000" d="M 1144 328 L 1194 328 L 1194 372 L 1144 372 L 1144 328 Z Z" stroke-miterlimit="10"/></g><g transform="translate(-414,-318) scale(1,1)"><path fill="none" stroke="#000000" d="M 1144 353 L 1194 353" stroke-miterlimit="10"/></g><g transform="translate(-414,-318) scale(1,1)"><path fill="none" stroke="#000000" d="M 1144 363 L 1194 363" stroke-miterlimit="10"/></g><g transform="translate(-414,-318) scale(1,1)"><g><path fill="none" stroke="none"/><text fill="#000000" stroke="none" font-family="Arial" font-size="13px" font-style="normal" font-weight="bold" text-decoration="none" x="1152" y="347.5">Sprite</text></g></g><g transform="translate(-414,-318) scale(1,1)"><path fill="none" stroke="#000000" d="M 1051 463 L 1145 373" stroke-miterlimit="10"/></g><g transform="translate(-414,-318) scale(1,1)"><path fill="#FFFFFF" stroke="none" d="M 1136.141202100846 393.1375693613192 L 1145 373 L 1124.4964720803437 380.9752957843503"/></g><g transform="translate(-414,-318) scale(1,1)"><path fill="none" stroke="#000000" d="M 1136.141202100846 393.1375693613192 L 1145 373 L 1124.4964720803437 380.9752957843503 L 1136.141202100846 393.1375693613192" stroke-miterlimit="10"/></g><g transform="translate(-414,-318) scale(1,1)"><rect fill="#C0C0C0" stroke="none" x="991" y="551" width="89.21533203125" height="44" opacity="0.2"/></g><g transform="translate(-414,-318) scale(1,1)"><rect fill="#ffffff" stroke="none" x="984" y="544" width="89.21533203125" height="44"/></g><g transform="translate(-414,-318) scale(1,1)"><path fill="none" stroke="#000000" d="M 984 544 L 1073.21533203125 544 L 1073.21533203125 588 L 984 588 L 984 544 Z Z" stroke-miterlimit="10"/></g><g transform="translate(-414,-318) scale(1,1)"><path fill="none" stroke="#000000" d="M 984 569 L 1073.21533203125 569" stroke-miterlimit="10"/></g><g transform="translate(-414,-318) scale(1,1)"><path fill="none" stroke="#000000" d="M 984 579 L 1073.21533203125 579" stroke-miterlimit="10"/></g><g transform="translate(-414,-318) scale(1,1)"><g><path fill="none" stroke="none"/><text fill="#000000" stroke="none" font-family="Arial" font-size="13px" font-style="normal" font-weight="bold" text-decoration="none" x="994.607666015625" y="563.5">AnimCursor</text></g></g><g transform="translate(-414,-318) scale(1,1)"><path fill="none" stroke="#000000" d="M 1010 543 L 877 373" stroke-miterlimit="10"/></g><g transform="translate(-414,-318) scale(1,1)"><path fill="#FFFFFF" stroke="none" d="M 896.1549972901802 383.82063208935546 L 877 373 L 882.8932861503883 394.19597080460437"/></g><g transform="translate(-414,-318) scale(1,1)"><path fill="none" stroke="#000000" d="M 896.1549972901802 383.82063208935546 L 877 373 L 882.8932861503883 394.19597080460437 L 896.1549972901802 383.82063208935546" stroke-miterlimit="10"/></g><g transform="translate(-414,-318) scale(1,1)"><rect fill="#C0C0C0" stroke="none" x="1135" y="431" width="83.00732421875" height="44" opacity="0.2"/></g><g transform="translate(-414,-318) scale(1,1)"><rect fill="#ffffff" stroke="none" x="1128" y="424" width="83.00732421875" height="44"/></g><g transform="translate(-414,-318) scale(1,1)"><path fill="none" stroke="#000000" d="M 1128 424 L 1211.00732421875 424 L 1211.00732421875 468 L 1128 468 L 1128 424 Z Z" stroke-miterlimit="10"/></g><g transform="translate(-414,-318) scale(1,1)"><path fill="none" stroke="#000000" d="M 1128 449 L 1211.00732421875 449" stroke-miterlimit="10"/></g><g transform="translate(-414,-318) scale(1,1)"><path fill="none" stroke="#000000" d="M 1128 459 L 1211.00732421875 459" stroke-miterlimit="10"/></g><g transform="translate(-414,-318) scale(1,1)"><g><path fill="none" stroke="none"/><text fill="#000000" stroke="none" font-family="Arial" font-size="13px" font-style="normal" font-weight="bold" text-decoration="none" x="1137.503662109375" y="443.5">AnimSprite</text></g></g><g transform="translate(-414,-318) scale(1,1)"><path fill="none" stroke="#000000" d="M 1055 543 L 1142 469" stroke-miterlimit="10"/></g><g transform="translate(-414,-318) scale(1,1)"><path fill="#FFFFFF" stroke="none" d="M 1131.972423022611 488.58182064984106 L 1142 469 L 1121.062994150937 475.7558704898997"/></g><g transform="translate(-414,-318) scale(1,1)"><path fill="none" stroke="#000000" d="M 1131.972423022611 488.58182064984106 L 1142 469 L 1121.062994150937 475.7558704898997 L 1131.972423022611 488.58182064984106" stroke-miterlimit="10"/></g><g transform="translate(-414,-318) scale(1,1)"><path fill="none" stroke="#000000" d="M 1169 423 L 1169 373" stroke-miterlimit="10"/></g><g transform="translate(-414,-318) scale(1,1)"><path fill="#FFFFFF" stroke="none" d="M 1177.419035512032 393.3253497152483 L 1169 373 L 1160.580964487968 393.3253497152483"/></g><g transform="translate(-414,-318) scale(1,1)"><path fill="none" stroke="#000000" d="M 1177.419035512032 393.3253497152483 L 1169 373 L 1160.580964487968 393.3253497152483 L 1177.419035512032 393.3253497152483" stroke-miterlimit="10"/></g><g transform="translate(-414,-318) scale(1,1)"><rect fill="#C0C0C0" stroke="none" x="663" y="535" width="126" height="44" opacity="0.2"/></g><g transform="translate(-414,-318) scale(1,1)"><rect fill="#ffffff" stroke="none" x="656" y="528" width="126" height="44"/></g><g transform="translate(-414,-318) scale(1,1)"><path fill="none" stroke="#000000" d="M 656 528 L 782 528 L 782 572 L 656 572 L 656 528 Z Z" stroke-miterlimit="10"/></g><g transform="translate(-414,-318) scale(1,1)"><path fill="none" stroke="#000000" d="M 656 553 L 782 553" stroke-miterlimit="10"/></g><g transform="translate(-414,-318) scale(1,1)"><path fill="none" stroke="#000000" d="M 656 563 L 782 563" stroke-miterlimit="10"/></g><g transform="translate(-414,-318) scale(1,1)"><g><path fill="none" stroke="none"/><text fill="#000000" stroke="none" font-family="Arial" font-size="13px" font-style="normal" font-weight="bold" text-decoration="none" x="663.5" y="547.5">UnixKeyDispatcher</text></g></g><g transform="translate(-414,-318) scale(1,1)"><rect fill="#C0C0C0" stroke="none" x="471" y="535" width="122" height="44" opacity="0.2"/></g><g transform="translate(-414,-318) scale(1,1)"><rect fill="#ffffff" stroke="none" x="464" y="528" width="122" height="44"/></g><g transform="translate(-414,-318) scale(1,1)"><path fill="none" stroke="#000000" d="M 464 528 L 586 528 L 586 572 L 464 572 L 464 528 Z Z" stroke-miterlimit="10"/></g><g transform="translate(-414,-318) scale(1,1)"><path fill="none" stroke="#000000" d="M 464 553 L 586 553" stroke-miterlimit="10"/></g><g transform="translate(-414,-318) scale(1,1)"><path fill="none" stroke="#000000" d="M 464 563 L 586 563" stroke-miterlimit="10"/></g><g transform="translate(-414,-318) scale(1,1)"><g><path fill="none" stroke="none"/><text fill="#000000" stroke="none" font-family="Arial" font-size="13px" font-style="normal" font-weight="bold" text-decoration="none" x="471.5" y="547.5">WinKeyDispatcher</text></g></g><g transform="translate(-414,-318) scale(1,1)"><path fill="none" stroke="#000000" d="M 545 527 L 600 461" stroke-miterlimit="10"/></g><g transform="translate(-414,-318) scale(1,1)"><path fill="#FFFFFF" stroke="none" d="M 593.4557104286021 482.00410136153636 L 600 461 L 580.5203459605442 471.22463097148807"/></g><g transform="translate(-414,-318) scale(1,1)"><path fill="none" stroke="#000000" d="M 593.4557104286021 482.00410136153636 L 600 461 L 580.5203459605442 471.22463097148807 L 593.4557104286021 482.00410136153636" stroke-miterlimit="10"/></g><g transform="translate(-414,-318) scale(1,1)"><path fill="none" stroke="#000000" d="M 699 527 L 640 461" stroke-miterlimit="10"/></g><g transform="translate(-414,-318) scale(1,1)"><path fill="#FFFFFF" stroke="none" d="M 659.8228258659195 470.5423044747814 L 640 461 L 647.2694263898071 481.76428279433645"/></g><g transform="translate(-414,-318) scale(1,1)"><path fill="none" stroke="#000000" d="M 659.8228258659195 470.5423044747814 L 640 461 L 647.2694263898071 481.76428279433645 L 659.8228258659195 470.5423044747814" stroke-miterlimit="10"/></g></g></svg>