<svg version="1.1" xmlns="http://www.w3.org/2000/svg" xmlns:xlink="http://www.w3.org/1999/xlink" width="259" height="320"><defs/><g><g transform="translate(-310,-142) scale(1,1)"><rect fill="#C0C0C0" stroke="none" x="327" y="415" width="71" height="44" opacity="0.2"/></g><g transform="translate(-310,-142) scale(1,1)"><rect fill="#ffffff" stroke="none" x="320" y="408" width="71" height="44"/></g><g transform="translate(-310,-142) scale(1,1)"><path fill="none" stroke="#000000" d="M 320 408 L 391 408 L 391 452 L 320 452 L 320 408 Z Z" stroke-miterlimit="10"/></g><g transform="translate(-310,-142) scale(1,1)"><path fill="none" stroke="#000000" d="M 320 433 L 391 433" stroke-miterlimit="10"/></g><g transform="translate(-310,-142) scale(1,1)"><path fill="none" stroke="#000000" d="M 320 443 L 391 443" stroke-miterlimit="10"/></g><g transform="translate(-310,-142) scale(1,1)"><g><path fill="none" stroke="none"/><text fill="#000000" stroke="none" font-family="Arial" font-size="13px" font-style="normal" font-weight="bold" text-decoration="none" x="327.5" y="427.5">MainLoop</text></g></g><g transform="translate(-310,-142) scale(1,1)"><rect fill="#C0C0C0" stroke="none" x="468" y="287" width="98" height="44" opacity="0.2"/></g><g transform="translate(-310,-142) scale(1,1)"><rect fill="#ffffff" stroke="none" x="461" y="280" width="98" height="44"/></g><g transform="translate(-310,-142) scale(1,1)"><path fill="none" stroke="#000000" d="M 461 280 L 559 280 L 559 324 L 461 324 L 461 280 Z Z" stroke-miterlimit="10"/></g><g transform="translate(-310,-142) scale(1,1)"><path fill="none" stroke="#000000" d="M 461 305 L 559 305" stroke-miterlimit="10"/></g><g transform="translate(-310,-142) scale(1,1)"><path fill="none" stroke="#000000" d="M 461 315 L 559 315" stroke-miterlimit="10"/></g><g transform="translate(-310,-142) scale(1,1)"><g><path fill="none" stroke="none"/><text fill="#000000" stroke="none" font-family="Arial" font-size="13px" font-style="normal" font-weight="bold" text-decoration="none" x="467.5" y="299.5">KeyDispatcher</text></g></g><g transform="translate(-310,-142) scale(1,1)"><rect fill="#C0C0C0" stroke="none" x="479" y="159" width="82" height="44" opacity="0.2"/></g><g transform="translate(-310,-142) scale(1,1)"><rect fill="#ffffff" stroke="none" x="472" y="152" width="82" height="44"/></g><g transform="translate(-310,-142) scale(1,1)"><path fill="none" stroke="#000000" d="M 472 152 L 554 152 L 554 196 L 472 196 L 472 152 Z Z" stroke-miterlimit="10"/></g><g transform="translate(-310,-142) scale(1,1)"><path fill="none" stroke="#000000" d="M 472 177 L 554 177" stroke-miterlimit="10"/></g><g transform="translate(-310,-142) scale(1,1)"><path fill="none" stroke="#000000" d="M 472 187 L 554 187" stroke-miterlimit="10"/></g><g transform="translate(-310,-142) scale(1,1)"><g><path fill="none" stroke="none"/><text fill="#000000" stroke="none" font-family="Arial" font-size="13px" font-style="normal" font-weight="bold" text-decoration="none" x="478.5" y="171.5">KeyListener</text></g></g><g transform="translate(-310,-142) scale(1,1)"><path fill="none" stroke="#000000" d="M 510 325 L 512 432 L 392 430" stroke-miterlimit="10"/></g><g transform="translate(-310,-142) scale(1,1)"><path fill="#000000" stroke="none" d="M 402.2314125560383 425.96042117193616 L 392 430 L 402.0911147819534 434.37828761703037 L 413.9969450808712 430.36661575134787"/></g><g transform="translate(-310,-142) scale(1,1)"><path fill="none" stroke="#000000" d="M 402.2314125560383 425.96042117193616 L 392 430 L 402.0911147819534 434.37828761703037 L 413.9969450808712 430.36661575134787 L 402.2314125560383 425.96042117193616" stroke-miterlimit="10"/></g><g transform="translate(-310,-142) scale(1,1)"><path fill="none" stroke="#000000" d="M 512 197 L 511 279" stroke-miterlimit="10"/></g><g transform="translate(-310,-142) scale(1,1)"><path fill="#000000" stroke="none" d="M 506.9147210753117 268.7867489941989 L 511 279 L 515.3331306134767 268.8894125251521 L 511.26827273477386 257.0016357485431"/></g><g transform="translate(-310,-142) scale(1,1)"><path fill="none" stroke="#000000" d="M 506.9147210753117 268.7867489941989 L 511 279 L 515.3331306134767 268.8894125251521 L 511.26827273477386 257.0016357485431 L 506.9147210753117 268.7867489941989" stroke-miterlimit="10"/></g></g></svg>