<svg version="1.1" xmlns="http://www.w3.org/2000/svg" xmlns:xlink="http://www.w3.org/1999/xlink" width="930.98974609375" height="835"><defs/><g><g transform="translate(-702,-14) scale(1,1)"><rect fill="#C0C0C0" stroke="none" x="1207" y="527" width="209.70654296875" height="72" opacity="0.2"/></g><g transform="translate(-702,-14) scale(1,1)"><rect fill="#ffffff" stroke="none" x="1200" y="520" width="209.70654296875" height="72"/></g><g transform="translate(-702,-14) scale(1,1)"><path fill="none" stroke="#000000" d="M 1200 520 L 1409.70654296875 520 L 1409.70654296875 592 L 1200 592 L 1200 520 Z Z" stroke-miterlimit="10"/></g><g transform="translate(-702,-14) scale(1,1)"><path fill="none" stroke="#000000" d="M 1200 545 L 1409.70654296875 545" stroke-miterlimit="10"/></g><g transform="translate(-702,-14) scale(1,1)"><path fill="none" stroke="#000000" d="M 1200 555 L 1409.70654296875 555" stroke-miterlimit="10"/></g><g transform="translate(-702,-14) scale(1,1)"><g><path fill="none" stroke="none"/><text fill="#000000" stroke="none" font-family="Arial" font-size="13px" font-style="normal" font-weight="bold" text-decoration="none" x="1262.853271484375" y="539.5">DisplayCentral</text></g></g><g transform="translate(-702,-14) scale(1,1)"><g><path fill="none" stroke="none"/><text fill="#000000" stroke="none" font-family="Arial" font-size="13px" font-style="normal" font-weight="normal" text-decoration="none" x="1205" y="572.5">+DisplayCentral()</text></g></g><g transform="translate(-702,-14) scale(1,1)"><g><path fill="none" stroke="none"/><text fill="#000000" stroke="none" font-family="Arial" font-size="13px" font-style="normal" font-weight="normal" text-decoration="none" x="1205" y="587.5">+void printFrame(const Image&amp;)</text></g></g><g transform="translate(-702,-14) scale(1,1)"><rect fill="#C0C0C0" stroke="none" x="1455" y="519" width="104.38623046875" height="87" opacity="0.2"/></g><g transform="translate(-702,-14) scale(1,1)"><rect fill="#ffffff" stroke="none" x="1448" y="512" width="104.38623046875" height="87"/></g><g transform="translate(-702,-14) scale(1,1)"><path fill="none" stroke="#000000" d="M 1448 512 L 1552.38623046875 512 L 1552.38623046875 599 L 1448 599 L 1448 512 Z Z" stroke-miterlimit="10"/></g><g transform="translate(-702,-14) scale(1,1)"><path fill="none" stroke="#000000" d="M 1448 537 L 1552.38623046875 537" stroke-miterlimit="10"/></g><g transform="translate(-702,-14) scale(1,1)"><path fill="none" stroke="#000000" d="M 1448 547 L 1552.38623046875 547" stroke-miterlimit="10"/></g><g transform="translate(-702,-14) scale(1,1)"><g><path fill="none" stroke="none"/><text fill="#000000" stroke="none" font-family="Arial" font-size="13px" font-style="normal" font-weight="bold" text-decoration="none" x="1481.193115234375" y="531.5">Printer</text></g></g><g transform="translate(-702,-14) scale(1,1)"><g><path fill="none" stroke="none"/><text fill="#000000" stroke="none" font-family="Arial" font-size="13px" font-style="normal" font-weight="normal" text-decoration="none" x="1453" y="564.5">+Printer()</text></g></g><g transform="translate(-702,-14) scale(1,1)"><g><path fill="none" stroke="none"/><text fill="#000000" stroke="none" font-family="Arial" font-size="13px" font-style="normal" font-weight="normal" text-decoration="none" x="1453" y="579.5">+print(PrintJob)</text></g></g><g transform="translate(-702,-14) scale(1,1)"><g><path fill="none" stroke="none"/><text fill="#000000" stroke="none" font-family="Arial" font-size="13px" font-style="normal" font-weight="normal" text-decoration="none" x="1453" y="594.5">~Printer()</text></g></g><g transform="translate(-702,-14) scale(1,1)"><path fill="none" stroke="#000000" d="M 1411 555 L 1447 555" stroke-miterlimit="10"/></g><g transform="translate(-702,-14) scale(1,1)"><path fill="#000000" stroke="none" d="M 1421.162674857624 550.790482243984 L 1411 555 L 1421.162674857624 559.209517756016 L 1433 555"/></g><g transform="translate(-702,-14) scale(1,1)"><path fill="none" stroke="#000000" d="M 1421.162674857624 550.790482243984 L 1411 555 L 1421.162674857624 559.209517756016 L 1433 555 L 1421.162674857624 550.790482243984" stroke-miterlimit="10"/></g><g transform="translate(-702,-14) scale(1,1)"><rect fill="#C0C0C0" stroke="none" x="1423" y="415" width="153.6376953125" height="72" opacity="0.2"/></g><g transform="translate(-702,-14) scale(1,1)"><rect fill="#ffffff" stroke="none" x="1416" y="408" width="153.6376953125" height="72"/></g><g transform="translate(-702,-14) scale(1,1)"><path fill="none" stroke="#000000" d="M 1416 408 L 1569.6376953125 408 L 1569.6376953125 480 L 1416 480 L 1416 408 Z Z" stroke-miterlimit="10"/></g><g transform="translate(-702,-14) scale(1,1)"><path fill="none" stroke="#000000" d="M 1416 433 L 1569.6376953125 433" stroke-miterlimit="10"/></g><g transform="translate(-702,-14) scale(1,1)"><path fill="none" stroke="#000000" d="M 1416 471 L 1569.6376953125 471" stroke-miterlimit="10"/></g><g transform="translate(-702,-14) scale(1,1)"><g><path fill="none" stroke="none"/><text fill="#000000" stroke="none" font-family="Arial" font-size="13px" font-style="normal" font-weight="bold" text-decoration="none" x="1468.81884765625" y="427.5">PrintJob</text></g></g><g transform="translate(-702,-14) scale(1,1)"><g><path fill="none" stroke="none"/><text fill="#000000" stroke="none" font-family="Arial" font-size="13px" font-style="normal" font-weight="normal" text-decoration="none" x="1421" y="450.5">+ConsoleCoord cCoord</text></g></g><g transform="translate(-702,-14) scale(1,1)"><g><path fill="none" stroke="none"/><text fill="#000000" stroke="none" font-family="Arial" font-size="13px" font-style="normal" font-weight="normal" text-decoration="none" x="1421" y="465.5">+ColoredChar graph</text></g></g><g transform="translate(-702,-14) scale(1,1)"><path fill="none" stroke="#000000" d="M 1497 511 L 1495 481" stroke-miterlimit="10" stroke-dasharray="3"/></g><g transform="translate(-702,-14) scale(1,1)"><path fill="none" stroke="#000000" d="M 1499.8762054144906 490.86015318114744 L 1495 481 L 1491.4758167371174 491.4201790929724" stroke-miterlimit="10"/></g><g transform="translate(-702,-14) scale(1,1)"><rect fill="#C0C0C0" stroke="none" x="1527" y="271" width="102.98974609375" height="44" opacity="0.2"/></g><g transform="translate(-702,-14) scale(1,1)"><rect fill="#ffffff" stroke="none" x="1520" y="264" width="102.98974609375" height="44"/></g><g transform="translate(-702,-14) scale(1,1)"><path fill="none" stroke="#000000" d="M 1520 264 L 1622.98974609375 264 L 1622.98974609375 308 L 1520 308 L 1520 264 Z Z" stroke-miterlimit="10"/></g><g transform="translate(-702,-14) scale(1,1)"><path fill="none" stroke="#000000" d="M 1520 289 L 1622.98974609375 289" stroke-miterlimit="10"/></g><g transform="translate(-702,-14) scale(1,1)"><path fill="none" stroke="#000000" d="M 1520 299 L 1622.98974609375 299" stroke-miterlimit="10"/></g><g transform="translate(-702,-14) scale(1,1)"><g><path fill="none" stroke="none"/><text fill="#000000" stroke="none" font-family="Arial" font-size="13px" font-style="normal" font-weight="bold" text-decoration="none" x="1530.994873046875" y="283.5">ConsoleCoord</text></g></g><g transform="translate(-702,-14) scale(1,1)"><rect fill="#C0C0C0" stroke="none" x="1391" y="271" width="92.5859375" height="44" opacity="0.2"/></g><g transform="translate(-702,-14) scale(1,1)"><rect fill="#ffffff" stroke="none" x="1384" y="264" width="92.5859375" height="44"/></g><g transform="translate(-702,-14) scale(1,1)"><path fill="none" stroke="#000000" d="M 1384 264 L 1476.5859375 264 L 1476.5859375 308 L 1384 308 L 1384 264 Z Z" stroke-miterlimit="10"/></g><g transform="translate(-702,-14) scale(1,1)"><path fill="none" stroke="#000000" d="M 1384 289 L 1476.5859375 289" stroke-miterlimit="10"/></g><g transform="translate(-702,-14) scale(1,1)"><path fill="none" stroke="#000000" d="M 1384 299 L 1476.5859375 299" stroke-miterlimit="10"/></g><g transform="translate(-702,-14) scale(1,1)"><g><path fill="none" stroke="none"/><text fill="#000000" stroke="none" font-family="Arial" font-size="13px" font-style="normal" font-weight="bold" text-decoration="none" x="1394.79296875" y="283.5">ColoredChar</text></g></g><g transform="translate(-702,-14) scale(1,1)"><rect fill="#C0C0C0" stroke="none" x="1551" y="131" width="50" height="44" opacity="0.2"/></g><g transform="translate(-702,-14) scale(1,1)"><rect fill="#ffffff" stroke="none" x="1544" y="124" width="50" height="44"/></g><g transform="translate(-702,-14) scale(1,1)"><path fill="none" stroke="#000000" d="M 1544 124 L 1594 124 L 1594 168 L 1544 168 L 1544 124 Z Z" stroke-miterlimit="10"/></g><g transform="translate(-702,-14) scale(1,1)"><path fill="none" stroke="#000000" d="M 1544 149 L 1594 149" stroke-miterlimit="10"/></g><g transform="translate(-702,-14) scale(1,1)"><path fill="none" stroke="#000000" d="M 1544 159 L 1594 159" stroke-miterlimit="10"/></g><g transform="translate(-702,-14) scale(1,1)"><g><path fill="none" stroke="none"/><text fill="#000000" stroke="none" font-family="Arial" font-size="13px" font-style="normal" font-weight="bold" text-decoration="none" x="1552" y="143.5">Coord</text></g></g><g transform="translate(-702,-14) scale(1,1)"><path fill="none" stroke="#000000" d="M 1571 263 L 1569 169" stroke-miterlimit="10"/></g><g transform="translate(-702,-14) scale(1,1)"><path fill="#FFFFFF" stroke="none" d="M 1577.8494869352094 189.14166281575476 L 1569 169 L 1561.015225860515 189.49983858330145"/></g><g transform="translate(-702,-14) scale(1,1)"><path fill="none" stroke="#000000" d="M 1577.8494869352094 189.14166281575476 L 1569 169 L 1561.015225860515 189.49983858330145 L 1577.8494869352094 189.14166281575476" stroke-miterlimit="10"/></g><g transform="translate(-702,-14) scale(1,1)"><rect fill="#C0C0C0" stroke="none" x="1495" y="31" width="89.73583984375" height="44" opacity="0.2"/></g><g transform="translate(-702,-14) scale(1,1)"><rect fill="#ffffff" stroke="none" x="1488" y="24" width="89.73583984375" height="44"/></g><g transform="translate(-702,-14) scale(1,1)"><path fill="none" stroke="#000000" d="M 1488 24 L 1577.73583984375 24 L 1577.73583984375 68 L 1488 68 L 1488 24 Z Z" stroke-miterlimit="10"/></g><g transform="translate(-702,-14) scale(1,1)"><path fill="none" stroke="#000000" d="M 1488 49 L 1577.73583984375 49" stroke-miterlimit="10"/></g><g transform="translate(-702,-14) scale(1,1)"><path fill="none" stroke="#000000" d="M 1488 59 L 1577.73583984375 59" stroke-miterlimit="10"/></g><g transform="translate(-702,-14) scale(1,1)"><g><path fill="none" stroke="none"/><text fill="#000000" stroke="none" font-family="Arial" font-size="13px" font-style="normal" font-weight="bold" text-decoration="none" x="1498.367919921875" y="43.5">OrderedPair</text></g></g><g transform="translate(-702,-14) scale(1,1)"><path fill="none" stroke="#000000" d="M 1560 123 L 1541 69" stroke-miterlimit="10"/></g><g transform="translate(-702,-14) scale(1,1)"><path fill="#FFFFFF" stroke="none" d="M 1555.6878903406487 85.37882405244889 L 1541 69 L 1539.8043293058493 90.96748441654503"/></g><g transform="translate(-702,-14) scale(1,1)"><path fill="none" stroke="#000000" d="M 1555.6878903406487 85.37882405244889 L 1541 69 L 1539.8043293058493 90.96748441654503 L 1555.6878903406487 85.37882405244889" stroke-miterlimit="10"/></g><g transform="translate(-702,-14) scale(1,1)"><rect fill="#C0C0C0" stroke="none" x="1463" y="127" width="50" height="44" opacity="0.2"/></g><g transform="translate(-702,-14) scale(1,1)"><rect fill="#ffffff" stroke="none" x="1456" y="120" width="50" height="44"/></g><g transform="translate(-702,-14) scale(1,1)"><path fill="none" stroke="#000000" d="M 1456 120 L 1506 120 L 1506 164 L 1456 164 L 1456 120 Z Z" stroke-miterlimit="10"/></g><g transform="translate(-702,-14) scale(1,1)"><path fill="none" stroke="#000000" d="M 1456 145 L 1506 145" stroke-miterlimit="10"/></g><g transform="translate(-702,-14) scale(1,1)"><path fill="none" stroke="#000000" d="M 1456 155 L 1506 155" stroke-miterlimit="10"/></g><g transform="translate(-702,-14) scale(1,1)"><g><path fill="none" stroke="none"/><text fill="#000000" stroke="none" font-family="Arial" font-size="13px" font-style="normal" font-weight="bold" text-decoration="none" x="1468" y="139.5">Size</text></g></g><g transform="translate(-702,-14) scale(1,1)"><path fill="none" stroke="#000000" d="M 1493 119 L 1520 69" stroke-miterlimit="10"/></g><g transform="translate(-702,-14) scale(1,1)"><path fill="#FFFFFF" stroke="none" d="M 1517.7503869312973 90.8846805103735 L 1520 69 L 1502.9344773510882 82.88408933706063"/></g><g transform="translate(-702,-14) scale(1,1)"><path fill="none" stroke="#000000" d="M 1517.7503869312973 90.8846805103735 L 1520 69 L 1502.9344773510882 82.88408933706063 L 1517.7503869312973 90.8846805103735" stroke-miterlimit="10"/></g><g transform="translate(-702,-14) scale(1,1)"><path fill="none" stroke="#000000" d="M 1511 407 L 1560 309" stroke-miterlimit="10" stroke-dasharray="3"/></g><g transform="translate(-702,-14) scale(1,1)"><path fill="none" stroke="#000000" d="M 1559.2202207790026 319.97232629693906 L 1560 309 L 1551.6900064950473 316.2072191549614" stroke-miterlimit="10"/></g><g transform="translate(-702,-14) scale(1,1)"><path fill="none" stroke="#000000" d="M 1477 407 L 1439 309" stroke-miterlimit="10" stroke-dasharray="3"/></g><g transform="translate(-702,-14) scale(1,1)"><path fill="none" stroke="#000000" d="M 1446.598881522213 316.9534269099155 L 1439 309 L 1438.7492985521174 319.99714275546285" stroke-miterlimit="10"/></g><g transform="translate(-702,-14) scale(1,1)"><rect fill="#C0C0C0" stroke="none" x="1415" y="657" width="78.95751953125" height="44" opacity="0.2"/></g><g transform="translate(-702,-14) scale(1,1)"><rect fill="#ffffff" stroke="none" x="1408" y="650" width="78.95751953125" height="44"/></g><g transform="translate(-702,-14) scale(1,1)"><path fill="none" stroke="#000000" d="M 1408 650 L 1486.95751953125 650 L 1486.95751953125 694 L 1408 694 L 1408 650 Z Z" stroke-miterlimit="10"/></g><g transform="translate(-702,-14) scale(1,1)"><path fill="none" stroke="#000000" d="M 1408 675 L 1486.95751953125 675" stroke-miterlimit="10"/></g><g transform="translate(-702,-14) scale(1,1)"><path fill="none" stroke="#000000" d="M 1408 685 L 1486.95751953125 685" stroke-miterlimit="10"/></g><g transform="translate(-702,-14) scale(1,1)"><g><path fill="none" stroke="none"/><text fill="#000000" stroke="none" font-family="Arial" font-size="13px" font-style="normal" font-weight="bold" text-decoration="none" x="1417.478759765625" y="669.5">WinPrinter</text></g></g><g transform="translate(-702,-14) scale(1,1)"><path fill="none" stroke="#000000" d="M 1457 649 L 1480 600" stroke-miterlimit="10"/></g><g transform="translate(-702,-14) scale(1,1)"><path fill="#FFFFFF" stroke="none" d="M 1478.9848358226423 621.9765657392826 L 1480 600 L 1463.742391864734 614.8219491876114"/></g><g transform="translate(-702,-14) scale(1,1)"><path fill="none" stroke="#000000" d="M 1478.9848358226423 621.9765657392826 L 1480 600 L 1463.742391864734 614.8219491876114 L 1478.9848358226423 621.9765657392826" stroke-miterlimit="10"/></g><g transform="translate(-702,-14) scale(1,1)"><rect fill="#C0C0C0" stroke="none" x="1519" y="657" width="84.4609375" height="44" opacity="0.2"/></g><g transform="translate(-702,-14) scale(1,1)"><rect fill="#ffffff" stroke="none" x="1512" y="650" width="84.4609375" height="44"/></g><g transform="translate(-702,-14) scale(1,1)"><path fill="none" stroke="#000000" d="M 1512 650 L 1596.4609375 650 L 1596.4609375 694 L 1512 694 L 1512 650 Z Z" stroke-miterlimit="10"/></g><g transform="translate(-702,-14) scale(1,1)"><path fill="none" stroke="#000000" d="M 1512 675 L 1596.4609375 675" stroke-miterlimit="10"/></g><g transform="translate(-702,-14) scale(1,1)"><path fill="none" stroke="#000000" d="M 1512 685 L 1596.4609375 685" stroke-miterlimit="10"/></g><g transform="translate(-702,-14) scale(1,1)"><g><path fill="none" stroke="none"/><text fill="#000000" stroke="none" font-family="Arial" font-size="13px" font-style="normal" font-weight="bold" text-decoration="none" x="1522.23046875" y="669.5">UnixPrinter</text></g></g><g transform="translate(-702,-14) scale(1,1)"><path fill="none" stroke="#000000" d="M 1543 649 L 1521 600" stroke-miterlimit="10"/></g><g transform="translate(-702,-14) scale(1,1)"><path fill="#FFFFFF" stroke="none" d="M 1537.0054977773996 615.0938411578251 L 1521 600 L 1521.6446385778147 621.9905534515162"/></g><g transform="translate(-702,-14) scale(1,1)"><path fill="none" stroke="#000000" d="M 1537.0054977773996 615.0938411578251 L 1521 600 L 1521.6446385778147 621.9905534515162 L 1537.0054977773996 615.0938411578251" stroke-miterlimit="10"/></g><g transform="translate(-702,-14) scale(1,1)"><rect fill="#C0C0C0" stroke="none" x="1063" y="615" width="138" height="102" opacity="0.2"/></g><g transform="translate(-702,-14) scale(1,1)"><rect fill="#ffffff" stroke="none" x="1056" y="608" width="138" height="102"/></g><g transform="translate(-702,-14) scale(1,1)"><path fill="none" stroke="#000000" d="M 1056 608 L 1194 608 L 1194 710 L 1056 710 L 1056 608 Z Z" stroke-miterlimit="10"/></g><g transform="translate(-702,-14) scale(1,1)"><path fill="none" stroke="#000000" d="M 1056 633 L 1194 633" stroke-miterlimit="10"/></g><g transform="translate(-702,-14) scale(1,1)"><path fill="none" stroke="#000000" d="M 1056 643 L 1194 643" stroke-miterlimit="10"/></g><g transform="translate(-702,-14) scale(1,1)"><g><path fill="none" stroke="none"/><text fill="#000000" stroke="none" font-family="Arial" font-size="13px" font-style="normal" font-weight="bold" text-decoration="none" x="1106.5" y="627.5">Scene</text></g></g><g transform="translate(-702,-14) scale(1,1)"><g><path fill="none" stroke="none"/><text fill="#000000" stroke="none" font-family="Arial" font-size="13px" font-style="normal" font-weight="normal" text-decoration="none" x="1061" y="660.5">+void initScene()</text></g></g><g transform="translate(-702,-14) scale(1,1)"><g><path fill="none" stroke="none"/><text fill="#000000" stroke="none" font-family="Arial" font-size="13px" font-style="normal" font-weight="normal" text-decoration="none" x="1061" y="675.5">+void addChild(Node*)</text></g></g><g transform="translate(-702,-14) scale(1,1)"><g><path fill="none" stroke="none"/><text fill="#000000" stroke="none" font-family="Arial" font-size="13px" font-style="normal" font-weight="normal" text-decoration="none" x="1061" y="690.5">+void pause()</text></g></g><g transform="translate(-702,-14) scale(1,1)"><g><path fill="none" stroke="none"/><text fill="#000000" stroke="none" font-family="Arial" font-size="13px" font-style="normal" font-weight="normal" text-decoration="none" x="1061" y="705.5">+void resume()</text></g></g><g transform="translate(-702,-14) scale(1,1)"><rect fill="#C0C0C0" stroke="none" x="1047" y="759" width="174" height="87" opacity="0.2"/></g><g transform="translate(-702,-14) scale(1,1)"><rect fill="#ffffff" stroke="none" x="1040" y="752" width="174" height="87"/></g><g transform="translate(-702,-14) scale(1,1)"><path fill="none" stroke="#000000" d="M 1040 752 L 1214 752 L 1214 839 L 1040 839 L 1040 752 Z Z" stroke-miterlimit="10"/></g><g transform="translate(-702,-14) scale(1,1)"><path fill="none" stroke="#000000" d="M 1040 777 L 1214 777" stroke-miterlimit="10"/></g><g transform="translate(-702,-14) scale(1,1)"><path fill="none" stroke="#000000" d="M 1040 787 L 1214 787" stroke-miterlimit="10"/></g><g transform="translate(-702,-14) scale(1,1)"><g><path fill="none" stroke="none"/><text fill="#000000" stroke="none" font-family="Arial" font-size="13px" font-style="normal" font-weight="bold" text-decoration="none" x="1104.5" y="771.5">Director</text></g></g><g transform="translate(-702,-14) scale(1,1)"><g><path fill="none" stroke="none"/><text fill="#000000" stroke="none" font-family="Arial" font-size="13px" font-style="normal" font-weight="normal" text-decoration="none" x="1045" y="804.5">+void pushScene(Scene*)</text></g></g><g transform="translate(-702,-14) scale(1,1)"><g><path fill="none" stroke="none"/><text fill="#000000" stroke="none" font-family="Arial" font-size="13px" font-style="normal" font-weight="normal" text-decoration="none" x="1045" y="819.5">+void popScene()</text></g></g><g transform="translate(-702,-14) scale(1,1)"><g><path fill="none" stroke="none"/><text fill="#000000" stroke="none" font-family="Arial" font-size="13px" font-style="normal" font-weight="normal" text-decoration="none" x="1045" y="834.5">+void replaceScene(Scene*)</text></g></g><g transform="translate(-702,-14) scale(1,1)"><rect fill="#C0C0C0" stroke="none" x="735" y="439" width="101.25048828125" height="44" opacity="0.2"/></g><g transform="translate(-702,-14) scale(1,1)"><rect fill="#ffffff" stroke="none" x="728" y="432" width="101.25048828125" height="44"/></g><g transform="translate(-702,-14) scale(1,1)"><path fill="none" stroke="#000000" d="M 728 432 L 829.25048828125 432 L 829.25048828125 476 L 728 476 L 728 432 Z Z" stroke-miterlimit="10"/></g><g transform="translate(-702,-14) scale(1,1)"><path fill="none" stroke="#000000" d="M 728 457 L 829.25048828125 457" stroke-miterlimit="10"/></g><g transform="translate(-702,-14) scale(1,1)"><path fill="none" stroke="#000000" d="M 728 467 L 829.25048828125 467" stroke-miterlimit="10"/></g><g transform="translate(-702,-14) scale(1,1)"><g><path fill="none" stroke="none"/><text fill="#000000" stroke="none" font-family="Arial" font-size="13px" font-style="normal" font-weight="bold" text-decoration="none" x="738.625244140625" y="451.5">NodeManager</text></g></g><g transform="translate(-702,-14) scale(1,1)"><rect fill="#C0C0C0" stroke="none" x="719" y="271" width="135.22314453125" height="117" opacity="0.2"/></g><g transform="translate(-702,-14) scale(1,1)"><rect fill="#ffffff" stroke="none" x="712" y="264" width="135.22314453125" height="117"/></g><g transform="translate(-702,-14) scale(1,1)"><path fill="none" stroke="#000000" d="M 712 264 L 847.22314453125 264 L 847.22314453125 381 L 712 381 L 712 264 Z Z" stroke-miterlimit="10"/></g><g transform="translate(-702,-14) scale(1,1)"><path fill="none" stroke="#000000" d="M 712 289 L 847.22314453125 289" stroke-miterlimit="10"/></g><g transform="translate(-702,-14) scale(1,1)"><path fill="none" stroke="#000000" d="M 712 372 L 847.22314453125 372" stroke-miterlimit="10"/></g><g transform="translate(-702,-14) scale(1,1)"><g><path fill="none" stroke="none"/><text fill="#000000" stroke="none" font-family="Arial" font-size="13px" font-style="normal" font-weight="bold" text-decoration="none" x="764.611572265625" y="283.5">Node</text></g></g><g transform="translate(-702,-14) scale(1,1)"><g><path fill="none" stroke="none"/><text fill="#000000" stroke="none" font-family="Arial" font-size="13px" font-style="normal" font-weight="normal" text-decoration="none" x="717" y="306.5">+Node* parent</text></g></g><g transform="translate(-702,-14) scale(1,1)"><g><path fill="none" stroke="none"/><text fill="#000000" stroke="none" font-family="Arial" font-size="13px" font-style="normal" font-weight="normal" text-decoration="none" x="717" y="321.5">+list_Node* children</text></g></g><g transform="translate(-702,-14) scale(1,1)"><g><path fill="none" stroke="none"/><text fill="#000000" stroke="none" font-family="Arial" font-size="13px" font-style="normal" font-weight="normal" text-decoration="none" x="717" y="336.5">+string name</text></g></g><g transform="translate(-702,-14) scale(1,1)"><g><path fill="none" stroke="none"/><text fill="#000000" stroke="none" font-family="Arial" font-size="13px" font-style="normal" font-weight="normal" text-decoration="none" x="717" y="351.5">+int zOrder</text></g></g><g transform="translate(-702,-14) scale(1,1)"><g><path fill="none" stroke="none"/><text fill="#000000" stroke="none" font-family="Arial" font-size="13px" font-style="normal" font-weight="normal" text-decoration="none" x="717" y="366.5">+bool inAction</text></g></g><g transform="translate(-702,-14) scale(1,1)"><rect fill="#C0C0C0" stroke="none" x="735" y="111" width="99.5048828125" height="117" opacity="0.2"/></g><g transform="translate(-702,-14) scale(1,1)"><rect fill="#ffffff" stroke="none" x="728" y="104" width="99.5048828125" height="117"/></g><g transform="translate(-702,-14) scale(1,1)"><path fill="none" stroke="#000000" d="M 728 104 L 827.5048828125 104 L 827.5048828125 221 L 728 221 L 728 104 Z Z" stroke-miterlimit="10"/></g><g transform="translate(-702,-14) scale(1,1)"><path fill="none" stroke="#000000" d="M 728 129 L 827.5048828125 129" stroke-miterlimit="10"/></g><g transform="translate(-702,-14) scale(1,1)"><path fill="none" stroke="#000000" d="M 728 212 L 827.5048828125 212" stroke-miterlimit="10"/></g><g transform="translate(-702,-14) scale(1,1)"><g><path fill="none" stroke="none"/><text fill="#000000" stroke="none" font-family="Arial" font-size="13px" font-style="normal" font-weight="bold" text-decoration="none" x="739.25244140625" y="123.5">VisibleObject</text></g></g><g transform="translate(-702,-14) scale(1,1)"><g><path fill="none" stroke="none"/><text fill="#000000" stroke="none" font-family="Arial" font-size="13px" font-style="normal" font-weight="normal" text-decoration="none" x="733" y="146.5">+Coord pos</text></g></g><g transform="translate(-702,-14) scale(1,1)"><g><path fill="none" stroke="none"/><text fill="#000000" stroke="none" font-family="Arial" font-size="13px" font-style="normal" font-weight="normal" text-decoration="none" x="733" y="161.5">+Coord center</text></g></g><g transform="translate(-702,-14) scale(1,1)"><g><path fill="none" stroke="none"/><text fill="#000000" stroke="none" font-family="Arial" font-size="13px" font-style="normal" font-weight="normal" text-decoration="none" x="733" y="176.5">+Size size</text></g></g><g transform="translate(-702,-14) scale(1,1)"><g><path fill="none" stroke="none"/><text fill="#000000" stroke="none" font-family="Arial" font-size="13px" font-style="normal" font-weight="normal" text-decoration="none" x="733" y="191.5">+Image image</text></g></g><g transform="translate(-702,-14) scale(1,1)"><g><path fill="none" stroke="none"/><text fill="#000000" stroke="none" font-family="Arial" font-size="13px" font-style="normal" font-weight="normal" text-decoration="none" x="733" y="206.5">+bool isVisible</text></g></g><g transform="translate(-702,-14) scale(1,1)"><path fill="none" stroke="#000000" d="M 829 161 L 1455 143" stroke-miterlimit="10" stroke-dasharray="3"/></g><g transform="translate(-702,-14) scale(1,1)"><path fill="none" stroke="#000000" d="M 1444.962514188934 147.49987539745808 L 1455 143 L 1444.7205333088943 139.08431812496858" stroke-miterlimit="10"/></g><g transform="translate(-702,-14) scale(1,1)"><path fill="none" stroke="#000000" d="M 829 172 L 1383 277" stroke-miterlimit="10" stroke-dasharray="3"/></g><g transform="translate(-702,-14) scale(1,1)"><path fill="none" stroke="#000000" d="M 1372.2312035981636 279.2434402278187 L 1383 277 L 1373.7989592407669 270.9716628373215" stroke-miterlimit="10"/></g><g transform="translate(-702,-14) scale(1,1)"><path fill="none" stroke="#000000" d="M 829 161 L 1543 147" stroke-miterlimit="10" stroke-dasharray="3"/></g><g transform="translate(-702,-14) scale(1,1)"><path fill="none" stroke="#000000" d="M 1532.92180188992 151.40793861731092 L 1543 147 L 1532.7567544868664 142.99052106157563" stroke-miterlimit="10"/></g><g transform="translate(-702,-14) scale(1,1)"><path fill="none" stroke="#000000" d="M 778 263 L 778 222" stroke-miterlimit="10"/></g><g transform="translate(-702,-14) scale(1,1)"><path fill="#FFFFFF" stroke="none" d="M 786.419035512032 242.3253497152483 L 778 222 L 769.580964487968 242.3253497152483"/></g><g transform="translate(-702,-14) scale(1,1)"><path fill="none" stroke="#000000" d="M 786.419035512032 242.3253497152483 L 778 222 L 769.580964487968 242.3253497152483 L 786.419035512032 242.3253497152483" stroke-miterlimit="10"/></g><g transform="translate(-702,-14) scale(1,1)"><path fill="none" stroke="#000000" d="M 779 382 L 778 431" stroke-miterlimit="10"/></g><g transform="translate(-702,-14) scale(1,1)"><path fill="#000000" stroke="none" d="M 773.9987169383965 420.7535501825791 L 778 431 L 782.4159997626792 420.9253314647073 L 778.4488861225755 409.00457999380416"/></g><g transform="translate(-702,-14) scale(1,1)"><path fill="none" stroke="#000000" d="M 773.9987169383965 420.7535501825791 L 778 431 L 782.4159997626792 420.9253314647073 L 778.4488861225755 409.00457999380416 L 773.9987169383965 420.7535501825791" stroke-miterlimit="10"/></g><g transform="translate(-702,-14) scale(1,1)"><path fill="none" stroke="#000000" d="M 1126 711 L 1126 751" stroke-miterlimit="10"/></g><g transform="translate(-702,-14) scale(1,1)"><path fill="#000000" stroke="none" d="M 1121.7904822439841 740.8373251423759 L 1126 751 L 1130.2095177560159 740.8373251423759 L 1126 729"/></g><g transform="translate(-702,-14) scale(1,1)"><path fill="none" stroke="#000000" d="M 1121.7904822439841 740.8373251423759 L 1126 751 L 1130.2095177560159 740.8373251423759 L 1126 729 L 1121.7904822439841 740.8373251423759" stroke-miterlimit="10"/></g><g transform="translate(-702,-14) scale(1,1)"><path fill="none" stroke="#000000" d="M 1304 593 L 1304 792 L 1215 794" stroke-miterlimit="10"/></g><g transform="translate(-702,-14) scale(1,1)"><path fill="#000000" stroke="none" d="M 1225.0655377921885 789.5632276423031 L 1215 794 L 1225.2546818498545 797.9801382084376 L 1236.9944472487757 793.5057427584545"/></g><g transform="translate(-702,-14) scale(1,1)"><path fill="none" stroke="#000000" d="M 1225.0655377921885 789.5632276423031 L 1215 794 L 1225.2546818498545 797.9801382084376 L 1236.9944472487757 793.5057427584545 L 1225.0655377921885 789.5632276423031" stroke-miterlimit="10"/></g><g transform="translate(-702,-14) scale(1,1)"><path fill="none" stroke="#000000" d="M 817 477 L 1055 618" stroke-miterlimit="10"/></g><g transform="translate(-702,-14) scale(1,1)"><path fill="#000000" stroke="none" d="M 1044.1109350895902 616.4417107531391 L 1055 618 L 1048.4021452545742 609.1983914675633 L 1036.0722945573839 606.7865274478618"/></g><g transform="translate(-702,-14) scale(1,1)"><path fill="none" stroke="#000000" d="M 1044.1109350895902 616.4417107531391 L 1055 618 L 1048.4021452545742 609.1983914675633 L 1036.0722945573839 606.7865274478618 L 1044.1109350895902 616.4417107531391" stroke-miterlimit="10"/></g><g transform="translate(-702,-14) scale(1,1)"><rect fill="#C0C0C0" stroke="none" x="855" y="439" width="109.55322265625" height="44" opacity="0.2"/></g><g transform="translate(-702,-14) scale(1,1)"><rect fill="#ffffff" stroke="none" x="848" y="432" width="109.55322265625" height="44"/></g><g transform="translate(-702,-14) scale(1,1)"><path fill="none" stroke="#000000" d="M 848 432 L 957.55322265625 432 L 957.55322265625 476 L 848 476 L 848 432 Z Z" stroke-miterlimit="10"/></g><g transform="translate(-702,-14) scale(1,1)"><path fill="none" stroke="#000000" d="M 848 457 L 957.55322265625 457" stroke-miterlimit="10"/></g><g transform="translate(-702,-14) scale(1,1)"><path fill="none" stroke="#000000" d="M 848 467 L 957.55322265625 467" stroke-miterlimit="10"/></g><g transform="translate(-702,-14) scale(1,1)"><g><path fill="none" stroke="none"/><text fill="#000000" stroke="none" font-family="Arial" font-size="13px" font-style="normal" font-weight="bold" text-decoration="none" x="859.276611328125" y="451.5">ActionManager</text></g></g><g transform="translate(-702,-14) scale(1,1)"><rect fill="#C0C0C0" stroke="none" x="1087" y="439" width="74.40625" height="44" opacity="0.2"/></g><g transform="translate(-702,-14) scale(1,1)"><rect fill="#ffffff" stroke="none" x="1080" y="432" width="74.40625" height="44"/></g><g transform="translate(-702,-14) scale(1,1)"><path fill="none" stroke="#000000" d="M 1080 432 L 1154.40625 432 L 1154.40625 476 L 1080 476 L 1080 432 Z Z" stroke-miterlimit="10"/></g><g transform="translate(-702,-14) scale(1,1)"><path fill="none" stroke="#000000" d="M 1080 457 L 1154.40625 457" stroke-miterlimit="10"/></g><g transform="translate(-702,-14) scale(1,1)"><path fill="none" stroke="#000000" d="M 1080 467 L 1154.40625 467" stroke-miterlimit="10"/></g><g transform="translate(-702,-14) scale(1,1)"><g><path fill="none" stroke="none"/><text fill="#000000" stroke="none" font-family="Arial" font-size="13px" font-style="normal" font-weight="bold" text-decoration="none" x="1088.203125" y="451.5">Scheduler</text></g></g><g transform="translate(-702,-14) scale(1,1)"><path fill="none" stroke="#000000" d="M 927 477 L 1068 607" stroke-miterlimit="10"/></g><g transform="translate(-702,-14) scale(1,1)"><path fill="#000000" stroke="none" d="M 1057.6749612765154 603.2061134230789 L 1068 607 L 1063.3817780282038 597.0164121770167 L 1051.8255311764922 592.0873691698155"/></g><g transform="translate(-702,-14) scale(1,1)"><path fill="none" stroke="#000000" d="M 1057.6749612765154 603.2061134230789 L 1068 607 L 1063.3817780282038 597.0164121770167 L 1051.8255311764922 592.0873691698155 L 1057.6749612765154 603.2061134230789" stroke-miterlimit="10"/></g><g transform="translate(-702,-14) scale(1,1)"><path fill="none" stroke="#000000" d="M 1118 477 L 1123 607" stroke-miterlimit="10"/></g><g transform="translate(-702,-14) scale(1,1)"><path fill="#000000" stroke="none" d="M 1118.4030090188141 597.0066184942785 L 1123 607 L 1126.81582433383 596.6830486744702 L 1122.1544713137735 585.0162541581111"/></g><g transform="translate(-702,-14) scale(1,1)"><path fill="none" stroke="#000000" d="M 1118.4030090188141 597.0066184942785 L 1123 607 L 1126.81582433383 596.6830486744702 L 1122.1544713137735 585.0162541581111 L 1118.4030090188141 597.0066184942785" stroke-miterlimit="10"/></g><g transform="translate(-702,-14) scale(1,1)"><rect fill="#C0C0C0" stroke="none" x="975" y="439" width="105.82080078125" height="44" opacity="0.2"/></g><g transform="translate(-702,-14) scale(1,1)"><rect fill="#ffffff" stroke="none" x="968" y="432" width="105.82080078125" height="44"/></g><g transform="translate(-702,-14) scale(1,1)"><path fill="none" stroke="#000000" d="M 968 432 L 1073.82080078125 432 L 1073.82080078125 476 L 968 476 L 968 432 Z Z" stroke-miterlimit="10"/></g><g transform="translate(-702,-14) scale(1,1)"><path fill="none" stroke="#000000" d="M 968 457 L 1073.82080078125 457" stroke-miterlimit="10"/></g><g transform="translate(-702,-14) scale(1,1)"><path fill="none" stroke="#000000" d="M 968 467 L 1073.82080078125 467" stroke-miterlimit="10"/></g><g transform="translate(-702,-14) scale(1,1)"><g><path fill="none" stroke="none"/><text fill="#000000" stroke="none" font-family="Arial" font-size="13px" font-style="normal" font-weight="bold" text-decoration="none" x="978.410400390625" y="451.5">KeyDispatcher</text></g></g><g transform="translate(-702,-14) scale(1,1)"><path fill="none" stroke="#000000" d="M 1032 477 L 1098 607" stroke-miterlimit="10"/></g><g transform="translate(-702,-14) scale(1,1)"><path fill="#000000" stroke="none" d="M 1089.6459476394116 599.8438970691759 L 1098 607 L 1097.152921834695 596.0326640161859 L 1088.040768084901 587.38333107632"/></g><g transform="translate(-702,-14) scale(1,1)"><path fill="none" stroke="#000000" d="M 1089.6459476394116 599.8438970691759 L 1098 607 L 1097.152921834695 596.0326640161859 L 1088.040768084901 587.38333107632 L 1089.6459476394116 599.8438970691759" stroke-miterlimit="10"/></g><g transform="translate(-702,-14) scale(1,1)"><rect fill="#C0C0C0" stroke="none" x="1175" y="439" width="89.85009765625" height="44" opacity="0.2"/></g><g transform="translate(-702,-14) scale(1,1)"><rect fill="#ffffff" stroke="none" x="1168" y="432" width="89.85009765625" height="44"/></g><g transform="translate(-702,-14) scale(1,1)"><path fill="none" stroke="#000000" d="M 1168 432 L 1257.85009765625 432 L 1257.85009765625 476 L 1168 476 L 1168 432 Z Z" stroke-miterlimit="10"/></g><g transform="translate(-702,-14) scale(1,1)"><path fill="none" stroke="#000000" d="M 1168 457 L 1257.85009765625 457" stroke-miterlimit="10"/></g><g transform="translate(-702,-14) scale(1,1)"><path fill="none" stroke="#000000" d="M 1168 467 L 1257.85009765625 467" stroke-miterlimit="10"/></g><g transform="translate(-702,-14) scale(1,1)"><g><path fill="none" stroke="none"/><text fill="#000000" stroke="none" font-family="Arial" font-size="13px" font-style="normal" font-weight="bold" text-decoration="none" x="1176.425048828125" y="451.5">TimeService</text></g></g><g transform="translate(-702,-14) scale(1,1)"><path fill="none" stroke="#000000" d="M 1202 477 L 1147 607" stroke-miterlimit="10"/></g><g transform="translate(-702,-14) scale(1,1)"><path fill="#000000" stroke="none" d="M 1147.0829565423187 596.0003128129894 L 1147 607 L 1154.8366125344833 599.2807057327514 L 1155.5720797984075 586.7387204764917"/></g><g transform="translate(-702,-14) scale(1,1)"><path fill="none" stroke="#000000" d="M 1147.0829565423187 596.0003128129894 L 1147 607 L 1154.8366125344833 599.2807057327514 L 1155.5720797984075 586.7387204764917 L 1147.0829565423187 596.0003128129894" stroke-miterlimit="10"/></g></g></svg>