<svg version="1.1" xmlns="http://www.w3.org/2000/svg" xmlns:xlink="http://www.w3.org/1999/xlink" width="930.98974609375" height="656"><defs/><g><g transform="translate(-326,-102) scale(1,1)"><rect fill="#C0C0C0" stroke="none" x="343" y="543" width="99.5048828125" height="147" opacity="0.2"/></g><g transform="translate(-326,-102) scale(1,1)"><rect fill="#ffffff" stroke="none" x="336" y="536" width="99.5048828125" height="147"/></g><g transform="translate(-326,-102) scale(1,1)"><path fill="none" stroke="#000000" d="M 336 536 L 435.5048828125 536 L 435.5048828125 683 L 336 683 L 336 536 Z Z" stroke-miterlimit="10"/></g><g transform="translate(-326,-102) scale(1,1)"><path fill="none" stroke="#000000" d="M 336 561 L 435.5048828125 561" stroke-miterlimit="10"/></g><g transform="translate(-326,-102) scale(1,1)"><path fill="none" stroke="#000000" d="M 336 674 L 435.5048828125 674" stroke-miterlimit="10"/></g><g transform="translate(-326,-102) scale(1,1)"><g><path fill="none" stroke="none"/><text fill="#000000" stroke="none" font-family="Arial" font-size="13px" font-style="normal" font-weight="bold" text-decoration="none" x="347.25244140625" y="555.5">VisibleObject</text></g></g><g transform="translate(-326,-102) scale(1,1)"><g><path fill="none" stroke="none"/><text fill="#000000" stroke="none" font-family="Arial" font-size="13px" font-style="normal" font-weight="normal" text-decoration="none" x="341" y="578.5">+Coord pos</text></g></g><g transform="translate(-326,-102) scale(1,1)"><g><path fill="none" stroke="none"/><text fill="#000000" stroke="none" font-family="Arial" font-size="13px" font-style="normal" font-weight="normal" text-decoration="none" x="341" y="593.5">+Coord center</text></g></g><g transform="translate(-326,-102) scale(1,1)"><g><path fill="none" stroke="none"/><text fill="#000000" stroke="none" font-family="Arial" font-size="13px" font-style="normal" font-weight="normal" text-decoration="none" x="341" y="608.5">+Size size</text></g></g><g transform="translate(-326,-102) scale(1,1)"><g><path fill="none" stroke="none"/><text fill="#000000" stroke="none" font-family="Arial" font-size="13px" font-style="normal" font-weight="normal" text-decoration="none" x="341" y="623.5">+Image image</text></g></g><g transform="translate(-326,-102) scale(1,1)"><g><path fill="none" stroke="none"/><text fill="#000000" stroke="none" font-family="Arial" font-size="13px" font-style="normal" font-weight="normal" text-decoration="none" x="341" y="638.5">+int zOrder</text></g></g><g transform="translate(-326,-102) scale(1,1)"><g><path fill="none" stroke="none"/><text fill="#000000" stroke="none" font-family="Arial" font-size="13px" font-style="normal" font-weight="normal" text-decoration="none" x="341" y="653.5">+bool isVisible</text></g></g><g transform="translate(-326,-102) scale(1,1)"><g><path fill="none" stroke="none"/><text fill="#000000" stroke="none" font-family="Arial" font-size="13px" font-style="normal" font-weight="normal" text-decoration="none" x="341" y="668.5">+bool inAction</text></g></g><g transform="translate(-326,-102) scale(1,1)"><rect fill="#C0C0C0" stroke="none" x="527" y="575" width="208.3291015625" height="87" opacity="0.2"/></g><g transform="translate(-326,-102) scale(1,1)"><rect fill="#ffffff" stroke="none" x="520" y="568" width="208.3291015625" height="87"/></g><g transform="translate(-326,-102) scale(1,1)"><path fill="none" stroke="#000000" d="M 520 568 L 728.3291015625 568 L 728.3291015625 655 L 520 655 L 520 568 Z Z" stroke-miterlimit="10"/></g><g transform="translate(-326,-102) scale(1,1)"><path fill="none" stroke="#000000" d="M 520 593 L 728.3291015625 593" stroke-miterlimit="10"/></g><g transform="translate(-326,-102) scale(1,1)"><path fill="none" stroke="#000000" d="M 520 603 L 728.3291015625 603" stroke-miterlimit="10"/></g><g transform="translate(-326,-102) scale(1,1)"><g><path fill="none" stroke="none"/><text fill="#000000" stroke="none" font-family="Arial" font-size="13px" font-style="normal" font-weight="bold" text-decoration="none" x="569.66455078125" y="587.5">VisibleObjManager</text></g></g><g transform="translate(-326,-102) scale(1,1)"><g><path fill="none" stroke="none"/><text fill="#000000" stroke="none" font-family="Arial" font-size="13px" font-style="normal" font-weight="normal" text-decoration="none" x="525" y="620.5">+Image getFrame()</text></g></g><g transform="translate(-326,-102) scale(1,1)"><g><path fill="none" stroke="none"/><text fill="#000000" stroke="none" font-family="Arial" font-size="13px" font-style="normal" font-weight="normal" text-decoration="none" x="525" y="635.5">+void addObject(VisibleObject*)</text></g></g><g transform="translate(-326,-102) scale(1,1)"><g><path fill="none" stroke="none"/><text fill="#000000" stroke="none" font-family="Arial" font-size="13px" font-style="normal" font-weight="normal" text-decoration="none" x="525" y="650.5">+void verify(Image&amp;)</text></g></g><g transform="translate(-326,-102) scale(1,1)"><path fill="none" stroke="#000000" d="M 437 609 L 519 610" stroke-miterlimit="10"/></g><g transform="translate(-326,-102) scale(1,1)"><path fill="#000000" stroke="none" d="M 508.7867489941989 614.0852789246883 L 519 610 L 508.8894125251521 605.6668693865233 L 497.0016357485431 609.7317272652261"/></g><g transform="translate(-326,-102) scale(1,1)"><path fill="none" stroke="#000000" d="M 508.7867489941989 614.0852789246883 L 519 610 L 508.8894125251521 605.6668693865233 L 497.0016357485431 609.7317272652261 L 508.7867489941989 614.0852789246883" stroke-miterlimit="10"/></g><g transform="translate(-326,-102) scale(1,1)"><rect fill="#C0C0C0" stroke="none" x="831" y="575" width="184.3857421875" height="72" opacity="0.2"/></g><g transform="translate(-326,-102) scale(1,1)"><rect fill="#ffffff" stroke="none" x="824" y="568" width="184.3857421875" height="72"/></g><g transform="translate(-326,-102) scale(1,1)"><path fill="none" stroke="#000000" d="M 824 568 L 1008.3857421875 568 L 1008.3857421875 640 L 824 640 L 824 568 Z Z" stroke-miterlimit="10"/></g><g transform="translate(-326,-102) scale(1,1)"><path fill="none" stroke="#000000" d="M 824 593 L 1008.3857421875 593" stroke-miterlimit="10"/></g><g transform="translate(-326,-102) scale(1,1)"><path fill="none" stroke="#000000" d="M 824 603 L 1008.3857421875 603" stroke-miterlimit="10"/></g><g transform="translate(-326,-102) scale(1,1)"><g><path fill="none" stroke="none"/><text fill="#000000" stroke="none" font-family="Arial" font-size="13px" font-style="normal" font-weight="bold" text-decoration="none" x="874.19287109375" y="587.5">DisplayCentral</text></g></g><g transform="translate(-326,-102) scale(1,1)"><g><path fill="none" stroke="none"/><text fill="#000000" stroke="none" font-family="Arial" font-size="13px" font-style="normal" font-weight="normal" text-decoration="none" x="829" y="620.5">+Display()</text></g></g><g transform="translate(-326,-102) scale(1,1)"><g><path fill="none" stroke="none"/><text fill="#000000" stroke="none" font-family="Arial" font-size="13px" font-style="normal" font-weight="normal" text-decoration="none" x="829" y="635.5">+void update(const Image&amp;)</text></g></g><g transform="translate(-326,-102) scale(1,1)"><rect fill="#C0C0C0" stroke="none" x="1079" y="567" width="98" height="87" opacity="0.2"/></g><g transform="translate(-326,-102) scale(1,1)"><rect fill="#ffffff" stroke="none" x="1072" y="560" width="98" height="87"/></g><g transform="translate(-326,-102) scale(1,1)"><path fill="none" stroke="#000000" d="M 1072 560 L 1170 560 L 1170 647 L 1072 647 L 1072 560 Z Z" stroke-miterlimit="10"/></g><g transform="translate(-326,-102) scale(1,1)"><path fill="none" stroke="#000000" d="M 1072 585 L 1170 585" stroke-miterlimit="10"/></g><g transform="translate(-326,-102) scale(1,1)"><path fill="none" stroke="#000000" d="M 1072 595 L 1170 595" stroke-miterlimit="10"/></g><g transform="translate(-326,-102) scale(1,1)"><g><path fill="none" stroke="none"/><text fill="#000000" stroke="none" font-family="Arial" font-size="13px" font-style="normal" font-weight="bold" text-decoration="none" x="1102" y="579.5">Printer</text></g></g><g transform="translate(-326,-102) scale(1,1)"><g><path fill="none" stroke="none"/><text fill="#000000" stroke="none" font-family="Arial" font-size="13px" font-style="normal" font-weight="normal" text-decoration="none" x="1077" y="612.5">+Printer()</text></g></g><g transform="translate(-326,-102) scale(1,1)"><g><path fill="none" stroke="none"/><text fill="#000000" stroke="none" font-family="Arial" font-size="13px" font-style="normal" font-weight="normal" text-decoration="none" x="1077" y="627.5">+print(PrintJob)</text></g></g><g transform="translate(-326,-102) scale(1,1)"><g><path fill="none" stroke="none"/><text fill="#000000" stroke="none" font-family="Arial" font-size="13px" font-style="normal" font-weight="normal" text-decoration="none" x="1077" y="642.5">~Printer()</text></g></g><g transform="translate(-326,-102) scale(1,1)"><path fill="none" stroke="#000000" d="M 1009 604 L 1071 603" stroke-miterlimit="10"/></g><g transform="translate(-326,-102) scale(1,1)"><path fill="#000000" stroke="none" d="M 1019.0934666094455 599.6271368871173 L 1009 604 L 1019.2292398455387 608.045077524899 L 1030.9971389557068 603.6452074361982"/></g><g transform="translate(-326,-102) scale(1,1)"><path fill="none" stroke="#000000" d="M 1019.0934666094455 599.6271368871173 L 1009 604 L 1019.2292398455387 608.045077524899 L 1030.9971389557068 603.6452074361982 L 1019.0934666094455 599.6271368871173" stroke-miterlimit="10"/></g><g transform="translate(-326,-102) scale(1,1)"><rect fill="#C0C0C0" stroke="none" x="1047" y="463" width="153.6376953125" height="72" opacity="0.2"/></g><g transform="translate(-326,-102) scale(1,1)"><rect fill="#ffffff" stroke="none" x="1040" y="456" width="153.6376953125" height="72"/></g><g transform="translate(-326,-102) scale(1,1)"><path fill="none" stroke="#000000" d="M 1040 456 L 1193.6376953125 456 L 1193.6376953125 528 L 1040 528 L 1040 456 Z Z" stroke-miterlimit="10"/></g><g transform="translate(-326,-102) scale(1,1)"><path fill="none" stroke="#000000" d="M 1040 481 L 1193.6376953125 481" stroke-miterlimit="10"/></g><g transform="translate(-326,-102) scale(1,1)"><path fill="none" stroke="#000000" d="M 1040 519 L 1193.6376953125 519" stroke-miterlimit="10"/></g><g transform="translate(-326,-102) scale(1,1)"><g><path fill="none" stroke="none"/><text fill="#000000" stroke="none" font-family="Arial" font-size="13px" font-style="normal" font-weight="bold" text-decoration="none" x="1092.81884765625" y="475.5">PrintJob</text></g></g><g transform="translate(-326,-102) scale(1,1)"><g><path fill="none" stroke="none"/><text fill="#000000" stroke="none" font-family="Arial" font-size="13px" font-style="normal" font-weight="normal" text-decoration="none" x="1045" y="498.5">+ConsoleCoord cCoord</text></g></g><g transform="translate(-326,-102) scale(1,1)"><g><path fill="none" stroke="none"/><text fill="#000000" stroke="none" font-family="Arial" font-size="13px" font-style="normal" font-weight="normal" text-decoration="none" x="1045" y="513.5">+ColoredChar graph</text></g></g><g transform="translate(-326,-102) scale(1,1)"><path fill="none" stroke="#000000" d="M 1119 559 L 1118 529" stroke-miterlimit="10" stroke-dasharray="3"/></g><g transform="translate(-326,-102) scale(1,1)"><path fill="none" stroke="#000000" d="M 1122.5457488696798 539.0167942583346 L 1118 529 L 1114.1313867055028 539.2972729971406" stroke-miterlimit="10"/></g><g transform="translate(-326,-102) scale(1,1)"><rect fill="#C0C0C0" stroke="none" x="1151" y="359" width="102.98974609375" height="44" opacity="0.2"/></g><g transform="translate(-326,-102) scale(1,1)"><rect fill="#ffffff" stroke="none" x="1144" y="352" width="102.98974609375" height="44"/></g><g transform="translate(-326,-102) scale(1,1)"><path fill="none" stroke="#000000" d="M 1144 352 L 1246.98974609375 352 L 1246.98974609375 396 L 1144 396 L 1144 352 Z Z" stroke-miterlimit="10"/></g><g transform="translate(-326,-102) scale(1,1)"><path fill="none" stroke="#000000" d="M 1144 377 L 1246.98974609375 377" stroke-miterlimit="10"/></g><g transform="translate(-326,-102) scale(1,1)"><path fill="none" stroke="#000000" d="M 1144 387 L 1246.98974609375 387" stroke-miterlimit="10"/></g><g transform="translate(-326,-102) scale(1,1)"><g><path fill="none" stroke="none"/><text fill="#000000" stroke="none" font-family="Arial" font-size="13px" font-style="normal" font-weight="bold" text-decoration="none" x="1154.994873046875" y="371.5">ConsoleCoord</text></g></g><g transform="translate(-326,-102) scale(1,1)"><rect fill="#C0C0C0" stroke="none" x="1015" y="359" width="92.5859375" height="44" opacity="0.2"/></g><g transform="translate(-326,-102) scale(1,1)"><rect fill="#ffffff" stroke="none" x="1008" y="352" width="92.5859375" height="44"/></g><g transform="translate(-326,-102) scale(1,1)"><path fill="none" stroke="#000000" d="M 1008 352 L 1100.5859375 352 L 1100.5859375 396 L 1008 396 L 1008 352 Z Z" stroke-miterlimit="10"/></g><g transform="translate(-326,-102) scale(1,1)"><path fill="none" stroke="#000000" d="M 1008 377 L 1100.5859375 377" stroke-miterlimit="10"/></g><g transform="translate(-326,-102) scale(1,1)"><path fill="none" stroke="#000000" d="M 1008 387 L 1100.5859375 387" stroke-miterlimit="10"/></g><g transform="translate(-326,-102) scale(1,1)"><g><path fill="none" stroke="none"/><text fill="#000000" stroke="none" font-family="Arial" font-size="13px" font-style="normal" font-weight="bold" text-decoration="none" x="1018.79296875" y="371.5">ColoredChar</text></g></g><g transform="translate(-326,-102) scale(1,1)"><rect fill="#C0C0C0" stroke="none" x="1175" y="219" width="50" height="44" opacity="0.2"/></g><g transform="translate(-326,-102) scale(1,1)"><rect fill="#ffffff" stroke="none" x="1168" y="212" width="50" height="44"/></g><g transform="translate(-326,-102) scale(1,1)"><path fill="none" stroke="#000000" d="M 1168 212 L 1218 212 L 1218 256 L 1168 256 L 1168 212 Z Z" stroke-miterlimit="10"/></g><g transform="translate(-326,-102) scale(1,1)"><path fill="none" stroke="#000000" d="M 1168 237 L 1218 237" stroke-miterlimit="10"/></g><g transform="translate(-326,-102) scale(1,1)"><path fill="none" stroke="#000000" d="M 1168 247 L 1218 247" stroke-miterlimit="10"/></g><g transform="translate(-326,-102) scale(1,1)"><g><path fill="none" stroke="none"/><text fill="#000000" stroke="none" font-family="Arial" font-size="13px" font-style="normal" font-weight="bold" text-decoration="none" x="1176" y="231.5">Coord</text></g></g><g transform="translate(-326,-102) scale(1,1)"><path fill="none" stroke="#000000" d="M 1195 351 L 1193 257" stroke-miterlimit="10"/></g><g transform="translate(-326,-102) scale(1,1)"><path fill="#FFFFFF" stroke="none" d="M 1201.8494869352094 277.1416628157548 L 1193 257 L 1185.015225860515 277.4998385833014"/></g><g transform="translate(-326,-102) scale(1,1)"><path fill="none" stroke="#000000" d="M 1201.8494869352094 277.1416628157548 L 1193 257 L 1185.015225860515 277.4998385833014 L 1201.8494869352094 277.1416628157548" stroke-miterlimit="10"/></g><g transform="translate(-326,-102) scale(1,1)"><rect fill="#C0C0C0" stroke="none" x="1119" y="119" width="89.73583984375" height="44" opacity="0.2"/></g><g transform="translate(-326,-102) scale(1,1)"><rect fill="#ffffff" stroke="none" x="1112" y="112" width="89.73583984375" height="44"/></g><g transform="translate(-326,-102) scale(1,1)"><path fill="none" stroke="#000000" d="M 1112 112 L 1201.73583984375 112 L 1201.73583984375 156 L 1112 156 L 1112 112 Z Z" stroke-miterlimit="10"/></g><g transform="translate(-326,-102) scale(1,1)"><path fill="none" stroke="#000000" d="M 1112 137 L 1201.73583984375 137" stroke-miterlimit="10"/></g><g transform="translate(-326,-102) scale(1,1)"><path fill="none" stroke="#000000" d="M 1112 147 L 1201.73583984375 147" stroke-miterlimit="10"/></g><g transform="translate(-326,-102) scale(1,1)"><g><path fill="none" stroke="none"/><text fill="#000000" stroke="none" font-family="Arial" font-size="13px" font-style="normal" font-weight="bold" text-decoration="none" x="1122.367919921875" y="131.5">OrderedPair</text></g></g><g transform="translate(-326,-102) scale(1,1)"><path fill="none" stroke="#000000" d="M 1184 211 L 1165 157" stroke-miterlimit="10"/></g><g transform="translate(-326,-102) scale(1,1)"><path fill="#FFFFFF" stroke="none" d="M 1179.6878903406487 173.3788240524489 L 1165 157 L 1163.8043293058493 178.96748441654503"/></g><g transform="translate(-326,-102) scale(1,1)"><path fill="none" stroke="#000000" d="M 1179.6878903406487 173.3788240524489 L 1165 157 L 1163.8043293058493 178.96748441654503 L 1179.6878903406487 173.3788240524489" stroke-miterlimit="10"/></g><g transform="translate(-326,-102) scale(1,1)"><rect fill="#C0C0C0" stroke="none" x="1087" y="215" width="50" height="44" opacity="0.2"/></g><g transform="translate(-326,-102) scale(1,1)"><rect fill="#ffffff" stroke="none" x="1080" y="208" width="50" height="44"/></g><g transform="translate(-326,-102) scale(1,1)"><path fill="none" stroke="#000000" d="M 1080 208 L 1130 208 L 1130 252 L 1080 252 L 1080 208 Z Z" stroke-miterlimit="10"/></g><g transform="translate(-326,-102) scale(1,1)"><path fill="none" stroke="#000000" d="M 1080 233 L 1130 233" stroke-miterlimit="10"/></g><g transform="translate(-326,-102) scale(1,1)"><path fill="none" stroke="#000000" d="M 1080 243 L 1130 243" stroke-miterlimit="10"/></g><g transform="translate(-326,-102) scale(1,1)"><g><path fill="none" stroke="none"/><text fill="#000000" stroke="none" font-family="Arial" font-size="13px" font-style="normal" font-weight="bold" text-decoration="none" x="1092" y="227.5">Size</text></g></g><g transform="translate(-326,-102) scale(1,1)"><path fill="none" stroke="#000000" d="M 1117 207 L 1144 157" stroke-miterlimit="10"/></g><g transform="translate(-326,-102) scale(1,1)"><path fill="#FFFFFF" stroke="none" d="M 1141.7503869312973 178.8846805103735 L 1144 157 L 1126.9344773510882 170.88408933706063"/></g><g transform="translate(-326,-102) scale(1,1)"><path fill="none" stroke="#000000" d="M 1141.7503869312973 178.8846805103735 L 1144 157 L 1126.9344773510882 170.88408933706063 L 1141.7503869312973 178.8846805103735" stroke-miterlimit="10"/></g><g transform="translate(-326,-102) scale(1,1)"><path fill="none" stroke="#000000" d="M 1141 455 L 1180 397" stroke-miterlimit="10" stroke-dasharray="3"/></g><g transform="translate(-326,-102) scale(1,1)"><path fill="none" stroke="#000000" d="M 1177.8224889546193 407.78232097682337 L 1180 397 L 1170.836014894061 403.08451945334446" stroke-miterlimit="10"/></g><g transform="translate(-326,-102) scale(1,1)"><path fill="none" stroke="#000000" d="M 1097 455 L 1066 397" stroke-miterlimit="10" stroke-dasharray="3"/></g><g transform="translate(-326,-102) scale(1,1)"><path fill="none" stroke="#000000" d="M 1074.502960961221 403.9785138025192 L 1066 397 L 1067.0779469234785 407.9470557882091" stroke-miterlimit="10"/></g><g transform="translate(-326,-102) scale(1,1)"><path fill="none" stroke="#000000" d="M 437 585 L 1167 246" stroke-miterlimit="10" stroke-dasharray="3"/></g><g transform="translate(-326,-102) scale(1,1)"><path fill="none" stroke="#000000" d="M 1159.5556901177713 254.098286879171 L 1167 246 L 1156.0097244327662 246.46243156927795" stroke-miterlimit="10"/></g><g transform="translate(-326,-102) scale(1,1)"><path fill="none" stroke="#000000" d="M 437 582 L 1079 244" stroke-miterlimit="10" stroke-dasharray="3"/></g><g transform="translate(-326,-102) scale(1,1)"><path fill="none" stroke="#000000" d="M 1071.9685176970747 252.45921134761682 L 1079 244 L 1068.0464254744184 245.0095568891984" stroke-miterlimit="10"/></g><g transform="translate(-326,-102) scale(1,1)"><path fill="none" stroke="#000000" d="M 437 591 L 1007 391" stroke-miterlimit="10" stroke-dasharray="3"/></g><g transform="translate(-326,-102) scale(1,1)"><path fill="none" stroke="#000000" d="M 998.8042197927182 398.3368376562336 L 1007 391 L 996.016780579129 390.3926358975042" stroke-miterlimit="10"/></g><g transform="translate(-326,-102) scale(1,1)"><rect fill="#C0C0C0" stroke="none" x="743" y="711" width="73.9873046875" height="44" opacity="0.2"/></g><g transform="translate(-326,-102) scale(1,1)"><rect fill="#ffffff" stroke="none" x="736" y="704" width="73.9873046875" height="44"/></g><g transform="translate(-326,-102) scale(1,1)"><path fill="none" stroke="#000000" d="M 736 704 L 809.9873046875 704 L 809.9873046875 748 L 736 748 L 736 704 Z Z" stroke-miterlimit="10"/></g><g transform="translate(-326,-102) scale(1,1)"><path fill="none" stroke="#000000" d="M 736 729 L 809.9873046875 729" stroke-miterlimit="10"/></g><g transform="translate(-326,-102) scale(1,1)"><path fill="none" stroke="#000000" d="M 736 739 L 809.9873046875 739" stroke-miterlimit="10"/></g><g transform="translate(-326,-102) scale(1,1)"><g><path fill="none" stroke="none"/><text fill="#000000" stroke="none" font-family="Arial" font-size="13px" font-style="normal" font-weight="bold" text-decoration="none" x="744.99365234375" y="723.5">MainLoop</text></g></g><g transform="translate(-326,-102) scale(1,1)"><path fill="none" stroke="#000000" d="M 735 726 L 616 728 L 621 656" stroke-miterlimit="10"/></g><g transform="translate(-326,-102) scale(1,1)"><path fill="#FFFFFF" stroke="none" d="M 624.4953583466346 666.4298835098294 L 621 656 L 616.0965502327962 665.8466329463685 L 619.4758928290771 677.9471432612889"/></g><g transform="translate(-326,-102) scale(1,1)"><path fill="none" stroke="#000000" d="M 624.4953583466346 666.4298835098294 L 621 656 L 616.0965502327962 665.8466329463685 L 619.4758928290771 677.9471432612889 L 624.4953583466346 666.4298835098294" stroke-miterlimit="10"/></g><g transform="translate(-326,-102) scale(1,1)"><path fill="none" stroke="#000000" d="M 811 727 L 912 728 L 915 641" stroke-miterlimit="10"/></g><g transform="translate(-326,-102) scale(1,1)"><path fill="#FFFFFF" stroke="none" d="M 918.8567883955344 651.3017077842497 L 915 641 L 910.4427537960387 651.0115686601292 L 914.2418299315249 662.9869319857789"/></g><g transform="translate(-326,-102) scale(1,1)"><path fill="none" stroke="#000000" d="M 918.8567883955344 651.3017077842497 L 915 641 L 910.4427537960387 651.0115686601292 L 914.2418299315249 662.9869319857789 L 918.8567883955344 651.3017077842497" stroke-miterlimit="10"/></g><g transform="translate(-326,-102) scale(1,1)"><rect fill="#C0C0C0" stroke="none" x="1039" y="705" width="75" height="44" opacity="0.2"/></g><g transform="translate(-326,-102) scale(1,1)"><rect fill="#ffffff" stroke="none" x="1032" y="698" width="75" height="44"/></g><g transform="translate(-326,-102) scale(1,1)"><path fill="none" stroke="#000000" d="M 1032 698 L 1107 698 L 1107 742 L 1032 742 L 1032 698 Z Z" stroke-miterlimit="10"/></g><g transform="translate(-326,-102) scale(1,1)"><path fill="none" stroke="#000000" d="M 1032 723 L 1107 723" stroke-miterlimit="10"/></g><g transform="translate(-326,-102) scale(1,1)"><path fill="none" stroke="#000000" d="M 1032 733 L 1107 733" stroke-miterlimit="10"/></g><g transform="translate(-326,-102) scale(1,1)"><g><path fill="none" stroke="none"/><text fill="#000000" stroke="none" font-family="Arial" font-size="13px" font-style="normal" font-weight="bold" text-decoration="none" x="1039.5" y="717.5">WinPrinter</text></g></g><g transform="translate(-326,-102) scale(1,1)"><path fill="none" stroke="#000000" d="M 1079 697 L 1101 648" stroke-miterlimit="10"/></g><g transform="translate(-326,-102) scale(1,1)"><path fill="#FFFFFF" stroke="none" d="M 1100.3553614221853 669.9905534515162 L 1101 648 L 1084.9945022226004 663.0938411578251"/></g><g transform="translate(-326,-102) scale(1,1)"><path fill="none" stroke="#000000" d="M 1100.3553614221853 669.9905534515162 L 1101 648 L 1084.9945022226004 663.0938411578251 L 1100.3553614221853 669.9905534515162" stroke-miterlimit="10"/></g><g transform="translate(-326,-102) scale(1,1)"><rect fill="#C0C0C0" stroke="none" x="1143" y="705" width="79" height="44" opacity="0.2"/></g><g transform="translate(-326,-102) scale(1,1)"><rect fill="#ffffff" stroke="none" x="1136" y="698" width="79" height="44"/></g><g transform="translate(-326,-102) scale(1,1)"><path fill="none" stroke="#000000" d="M 1136 698 L 1215 698 L 1215 742 L 1136 742 L 1136 698 Z Z" stroke-miterlimit="10"/></g><g transform="translate(-326,-102) scale(1,1)"><path fill="none" stroke="#000000" d="M 1136 723 L 1215 723" stroke-miterlimit="10"/></g><g transform="translate(-326,-102) scale(1,1)"><path fill="none" stroke="#000000" d="M 1136 733 L 1215 733" stroke-miterlimit="10"/></g><g transform="translate(-326,-102) scale(1,1)"><g><path fill="none" stroke="none"/><text fill="#000000" stroke="none" font-family="Arial" font-size="13px" font-style="normal" font-weight="bold" text-decoration="none" x="1143.5" y="717.5">UnixPrinter</text></g></g><g transform="translate(-326,-102) scale(1,1)"><path fill="none" stroke="#000000" d="M 1164 697 L 1142 648" stroke-miterlimit="10"/></g><g transform="translate(-326,-102) scale(1,1)"><path fill="#FFFFFF" stroke="none" d="M 1158.0054977773996 663.0938411578251 L 1142 648 L 1142.6446385778147 669.9905534515162"/></g><g transform="translate(-326,-102) scale(1,1)"><path fill="none" stroke="#000000" d="M 1158.0054977773996 663.0938411578251 L 1142 648 L 1142.6446385778147 669.9905534515162 L 1158.0054977773996 663.0938411578251" stroke-miterlimit="10"/></g></g></svg>