<svg version="1.1" xmlns="http://www.w3.org/2000/svg" xmlns:xlink="http://www.w3.org/1999/xlink" width="930.98974609375" height="696"><defs/><g><g transform="translate(-326,-62) scale(1,1)"><rect fill="#C0C0C0" stroke="none" x="343" y="543" width="99.5048828125" height="147" opacity="0.2"/></g><g transform="translate(-326,-62) scale(1,1)"><rect fill="#ffffff" stroke="none" x="336" y="536" width="99.5048828125" height="147"/></g><g transform="translate(-326,-62) scale(1,1)"><path fill="none" stroke="#000000" d="M 336 536 L 435.5048828125 536 L 435.5048828125 683 L 336 683 L 336 536 Z Z" stroke-miterlimit="10"/></g><g transform="translate(-326,-62) scale(1,1)"><path fill="none" stroke="#000000" d="M 336 561 L 435.5048828125 561" stroke-miterlimit="10"/></g><g transform="translate(-326,-62) scale(1,1)"><path fill="none" stroke="#000000" d="M 336 674 L 435.5048828125 674" stroke-miterlimit="10"/></g><g transform="translate(-326,-62) scale(1,1)"><g><path fill="none" stroke="none"/><text fill="#000000" stroke="none" font-family="Arial" font-size="13px" font-style="normal" font-weight="bold" text-decoration="none" x="347.25244140625" y="555.5">VisibleObject</text></g></g><g transform="translate(-326,-62) scale(1,1)"><g><path fill="none" stroke="none"/><text fill="#000000" stroke="none" font-family="Arial" font-size="13px" font-style="normal" font-weight="normal" text-decoration="none" x="341" y="578.5">+Coord pos</text></g></g><g transform="translate(-326,-62) scale(1,1)"><g><path fill="none" stroke="none"/><text fill="#000000" stroke="none" font-family="Arial" font-size="13px" font-style="normal" font-weight="normal" text-decoration="none" x="341" y="593.5">+Coord center</text></g></g><g transform="translate(-326,-62) scale(1,1)"><g><path fill="none" stroke="none"/><text fill="#000000" stroke="none" font-family="Arial" font-size="13px" font-style="normal" font-weight="normal" text-decoration="none" x="341" y="608.5">+Size size</text></g></g><g transform="translate(-326,-62) scale(1,1)"><g><path fill="none" stroke="none"/><text fill="#000000" stroke="none" font-family="Arial" font-size="13px" font-style="normal" font-weight="normal" text-decoration="none" x="341" y="623.5">+Image image</text></g></g><g transform="translate(-326,-62) scale(1,1)"><g><path fill="none" stroke="none"/><text fill="#000000" stroke="none" font-family="Arial" font-size="13px" font-style="normal" font-weight="normal" text-decoration="none" x="341" y="638.5">+int zOrder</text></g></g><g transform="translate(-326,-62) scale(1,1)"><g><path fill="none" stroke="none"/><text fill="#000000" stroke="none" font-family="Arial" font-size="13px" font-style="normal" font-weight="normal" text-decoration="none" x="341" y="653.5">+bool isVisible</text></g></g><g transform="translate(-326,-62) scale(1,1)"><g><path fill="none" stroke="none"/><text fill="#000000" stroke="none" font-family="Arial" font-size="13px" font-style="normal" font-weight="normal" text-decoration="none" x="341" y="668.5">+bool inAction</text></g></g><g transform="translate(-326,-62) scale(1,1)"><rect fill="#C0C0C0" stroke="none" x="527" y="575" width="208.3291015625" height="87" opacity="0.2"/></g><g transform="translate(-326,-62) scale(1,1)"><rect fill="#ffffff" stroke="none" x="520" y="568" width="208.3291015625" height="87"/></g><g transform="translate(-326,-62) scale(1,1)"><path fill="none" stroke="#000000" d="M 520 568 L 728.3291015625 568 L 728.3291015625 655 L 520 655 L 520 568 Z Z" stroke-miterlimit="10"/></g><g transform="translate(-326,-62) scale(1,1)"><path fill="none" stroke="#000000" d="M 520 593 L 728.3291015625 593" stroke-miterlimit="10"/></g><g transform="translate(-326,-62) scale(1,1)"><path fill="none" stroke="#000000" d="M 520 603 L 728.3291015625 603" stroke-miterlimit="10"/></g><g transform="translate(-326,-62) scale(1,1)"><g><path fill="none" stroke="none"/><text fill="#000000" stroke="none" font-family="Arial" font-size="13px" font-style="normal" font-weight="bold" text-decoration="none" x="569.66455078125" y="587.5">VisibleObjManager</text></g></g><g transform="translate(-326,-62) scale(1,1)"><g><path fill="none" stroke="none"/><text fill="#000000" stroke="none" font-family="Arial" font-size="13px" font-style="normal" font-weight="normal" text-decoration="none" x="525" y="620.5">+Image getFrame()</text></g></g><g transform="translate(-326,-62) scale(1,1)"><g><path fill="none" stroke="none"/><text fill="#000000" stroke="none" font-family="Arial" font-size="13px" font-style="normal" font-weight="normal" text-decoration="none" x="525" y="635.5">+void addObject(VisibleObject*)</text></g></g><g transform="translate(-326,-62) scale(1,1)"><g><path fill="none" stroke="none"/><text fill="#000000" stroke="none" font-family="Arial" font-size="13px" font-style="normal" font-weight="normal" text-decoration="none" x="525" y="650.5">+void verify(Image&amp;)</text></g></g><g transform="translate(-326,-62) scale(1,1)"><path fill="none" stroke="#000000" d="M 437 609 L 519 610" stroke-miterlimit="10"/></g><g transform="translate(-326,-62) scale(1,1)"><path fill="#000000" stroke="none" d="M 508.7867489941989 614.0852789246883 L 519 610 L 508.8894125251521 605.6668693865233 L 497.0016357485431 609.7317272652261"/></g><g transform="translate(-326,-62) scale(1,1)"><path fill="none" stroke="#000000" d="M 508.7867489941989 614.0852789246883 L 519 610 L 508.8894125251521 605.6668693865233 L 497.0016357485431 609.7317272652261 L 508.7867489941989 614.0852789246883" stroke-miterlimit="10"/></g><g transform="translate(-326,-62) scale(1,1)"><rect fill="#C0C0C0" stroke="none" x="831" y="575" width="184.3857421875" height="72" opacity="0.2"/></g><g transform="translate(-326,-62) scale(1,1)"><rect fill="#ffffff" stroke="none" x="824" y="568" width="184.3857421875" height="72"/></g><g transform="translate(-326,-62) scale(1,1)"><path fill="none" stroke="#000000" d="M 824 568 L 1008.3857421875 568 L 1008.3857421875 640 L 824 640 L 824 568 Z Z" stroke-miterlimit="10"/></g><g transform="translate(-326,-62) scale(1,1)"><path fill="none" stroke="#000000" d="M 824 593 L 1008.3857421875 593" stroke-miterlimit="10"/></g><g transform="translate(-326,-62) scale(1,1)"><path fill="none" stroke="#000000" d="M 824 603 L 1008.3857421875 603" stroke-miterlimit="10"/></g><g transform="translate(-326,-62) scale(1,1)"><g><path fill="none" stroke="none"/><text fill="#000000" stroke="none" font-family="Arial" font-size="13px" font-style="normal" font-weight="bold" text-decoration="none" x="874.19287109375" y="587.5">DisplayCentral</text></g></g><g transform="translate(-326,-62) scale(1,1)"><g><path fill="none" stroke="none"/><text fill="#000000" stroke="none" font-family="Arial" font-size="13px" font-style="normal" font-weight="normal" text-decoration="none" x="829" y="620.5">+Display()</text></g></g><g transform="translate(-326,-62) scale(1,1)"><g><path fill="none" stroke="none"/><text fill="#000000" stroke="none" font-family="Arial" font-size="13px" font-style="normal" font-weight="normal" text-decoration="none" x="829" y="635.5">+void update(const Image&amp;)</text></g></g><g transform="translate(-326,-62) scale(1,1)"><rect fill="#C0C0C0" stroke="none" x="1079" y="567" width="104.38623046875" height="87" opacity="0.2"/></g><g transform="translate(-326,-62) scale(1,1)"><rect fill="#ffffff" stroke="none" x="1072" y="560" width="104.38623046875" height="87"/></g><g transform="translate(-326,-62) scale(1,1)"><path fill="none" stroke="#000000" d="M 1072 560 L 1176.38623046875 560 L 1176.38623046875 647 L 1072 647 L 1072 560 Z Z" stroke-miterlimit="10"/></g><g transform="translate(-326,-62) scale(1,1)"><path fill="none" stroke="#000000" d="M 1072 585 L 1176.38623046875 585" stroke-miterlimit="10"/></g><g transform="translate(-326,-62) scale(1,1)"><path fill="none" stroke="#000000" d="M 1072 595 L 1176.38623046875 595" stroke-miterlimit="10"/></g><g transform="translate(-326,-62) scale(1,1)"><g><path fill="none" stroke="none"/><text fill="#000000" stroke="none" font-family="Arial" font-size="13px" font-style="normal" font-weight="bold" text-decoration="none" x="1105.193115234375" y="579.5">Printer</text></g></g><g transform="translate(-326,-62) scale(1,1)"><g><path fill="none" stroke="none"/><text fill="#000000" stroke="none" font-family="Arial" font-size="13px" font-style="normal" font-weight="normal" text-decoration="none" x="1077" y="612.5">+Printer()</text></g></g><g transform="translate(-326,-62) scale(1,1)"><g><path fill="none" stroke="none"/><text fill="#000000" stroke="none" font-family="Arial" font-size="13px" font-style="normal" font-weight="normal" text-decoration="none" x="1077" y="627.5">+print(PrintJob)</text></g></g><g transform="translate(-326,-62) scale(1,1)"><g><path fill="none" stroke="none"/><text fill="#000000" stroke="none" font-family="Arial" font-size="13px" font-style="normal" font-weight="normal" text-decoration="none" x="1077" y="642.5">~Printer()</text></g></g><g transform="translate(-326,-62) scale(1,1)"><path fill="none" stroke="#000000" d="M 1009 604 L 1071 603" stroke-miterlimit="10"/></g><g transform="translate(-326,-62) scale(1,1)"><path fill="#000000" stroke="none" d="M 1019.0934666094455 599.6271368871173 L 1009 604 L 1019.2292398455387 608.045077524899 L 1030.9971389557068 603.6452074361982"/></g><g transform="translate(-326,-62) scale(1,1)"><path fill="none" stroke="#000000" d="M 1019.0934666094455 599.6271368871173 L 1009 604 L 1019.2292398455387 608.045077524899 L 1030.9971389557068 603.6452074361982 L 1019.0934666094455 599.6271368871173" stroke-miterlimit="10"/></g><g transform="translate(-326,-62) scale(1,1)"><rect fill="#C0C0C0" stroke="none" x="1047" y="463" width="153.6376953125" height="72" opacity="0.2"/></g><g transform="translate(-326,-62) scale(1,1)"><rect fill="#ffffff" stroke="none" x="1040" y="456" width="153.6376953125" height="72"/></g><g transform="translate(-326,-62) scale(1,1)"><path fill="none" stroke="#000000" d="M 1040 456 L 1193.6376953125 456 L 1193.6376953125 528 L 1040 528 L 1040 456 Z Z" stroke-miterlimit="10"/></g><g transform="translate(-326,-62) scale(1,1)"><path fill="none" stroke="#000000" d="M 1040 481 L 1193.6376953125 481" stroke-miterlimit="10"/></g><g transform="translate(-326,-62) scale(1,1)"><path fill="none" stroke="#000000" d="M 1040 519 L 1193.6376953125 519" stroke-miterlimit="10"/></g><g transform="translate(-326,-62) scale(1,1)"><g><path fill="none" stroke="none"/><text fill="#000000" stroke="none" font-family="Arial" font-size="13px" font-style="normal" font-weight="bold" text-decoration="none" x="1092.81884765625" y="475.5">PrintJob</text></g></g><g transform="translate(-326,-62) scale(1,1)"><g><path fill="none" stroke="none"/><text fill="#000000" stroke="none" font-family="Arial" font-size="13px" font-style="normal" font-weight="normal" text-decoration="none" x="1045" y="498.5">+ConsoleCoord cCoord</text></g></g><g transform="translate(-326,-62) scale(1,1)"><g><path fill="none" stroke="none"/><text fill="#000000" stroke="none" font-family="Arial" font-size="13px" font-style="normal" font-weight="normal" text-decoration="none" x="1045" y="513.5">+ColoredChar graph</text></g></g><g transform="translate(-326,-62) scale(1,1)"><path fill="none" stroke="#000000" d="M 1121 559 L 1119 529" stroke-miterlimit="10" stroke-dasharray="3"/></g><g transform="translate(-326,-62) scale(1,1)"><path fill="none" stroke="#000000" d="M 1123.8762054144906 538.8601531811474 L 1119 529 L 1115.4758167371174 539.4201790929724" stroke-miterlimit="10"/></g><g transform="translate(-326,-62) scale(1,1)"><rect fill="#C0C0C0" stroke="none" x="1151" y="319" width="102.98974609375" height="44" opacity="0.2"/></g><g transform="translate(-326,-62) scale(1,1)"><rect fill="#ffffff" stroke="none" x="1144" y="312" width="102.98974609375" height="44"/></g><g transform="translate(-326,-62) scale(1,1)"><path fill="none" stroke="#000000" d="M 1144 312 L 1246.98974609375 312 L 1246.98974609375 356 L 1144 356 L 1144 312 Z Z" stroke-miterlimit="10"/></g><g transform="translate(-326,-62) scale(1,1)"><path fill="none" stroke="#000000" d="M 1144 337 L 1246.98974609375 337" stroke-miterlimit="10"/></g><g transform="translate(-326,-62) scale(1,1)"><path fill="none" stroke="#000000" d="M 1144 347 L 1246.98974609375 347" stroke-miterlimit="10"/></g><g transform="translate(-326,-62) scale(1,1)"><g><path fill="none" stroke="none"/><text fill="#000000" stroke="none" font-family="Arial" font-size="13px" font-style="normal" font-weight="bold" text-decoration="none" x="1154.994873046875" y="331.5">ConsoleCoord</text></g></g><g transform="translate(-326,-62) scale(1,1)"><rect fill="#C0C0C0" stroke="none" x="1015" y="319" width="92.5859375" height="44" opacity="0.2"/></g><g transform="translate(-326,-62) scale(1,1)"><rect fill="#ffffff" stroke="none" x="1008" y="312" width="92.5859375" height="44"/></g><g transform="translate(-326,-62) scale(1,1)"><path fill="none" stroke="#000000" d="M 1008 312 L 1100.5859375 312 L 1100.5859375 356 L 1008 356 L 1008 312 Z Z" stroke-miterlimit="10"/></g><g transform="translate(-326,-62) scale(1,1)"><path fill="none" stroke="#000000" d="M 1008 337 L 1100.5859375 337" stroke-miterlimit="10"/></g><g transform="translate(-326,-62) scale(1,1)"><path fill="none" stroke="#000000" d="M 1008 347 L 1100.5859375 347" stroke-miterlimit="10"/></g><g transform="translate(-326,-62) scale(1,1)"><g><path fill="none" stroke="none"/><text fill="#000000" stroke="none" font-family="Arial" font-size="13px" font-style="normal" font-weight="bold" text-decoration="none" x="1018.79296875" y="331.5">ColoredChar</text></g></g><g transform="translate(-326,-62) scale(1,1)"><rect fill="#C0C0C0" stroke="none" x="1175" y="179" width="50" height="44" opacity="0.2"/></g><g transform="translate(-326,-62) scale(1,1)"><rect fill="#ffffff" stroke="none" x="1168" y="172" width="50" height="44"/></g><g transform="translate(-326,-62) scale(1,1)"><path fill="none" stroke="#000000" d="M 1168 172 L 1218 172 L 1218 216 L 1168 216 L 1168 172 Z Z" stroke-miterlimit="10"/></g><g transform="translate(-326,-62) scale(1,1)"><path fill="none" stroke="#000000" d="M 1168 197 L 1218 197" stroke-miterlimit="10"/></g><g transform="translate(-326,-62) scale(1,1)"><path fill="none" stroke="#000000" d="M 1168 207 L 1218 207" stroke-miterlimit="10"/></g><g transform="translate(-326,-62) scale(1,1)"><g><path fill="none" stroke="none"/><text fill="#000000" stroke="none" font-family="Arial" font-size="13px" font-style="normal" font-weight="bold" text-decoration="none" x="1176" y="191.5">Coord</text></g></g><g transform="translate(-326,-62) scale(1,1)"><path fill="none" stroke="#000000" d="M 1195 311 L 1193 217" stroke-miterlimit="10"/></g><g transform="translate(-326,-62) scale(1,1)"><path fill="#FFFFFF" stroke="none" d="M 1201.8494869352094 237.14166281575476 L 1193 217 L 1185.015225860515 237.49983858330145"/></g><g transform="translate(-326,-62) scale(1,1)"><path fill="none" stroke="#000000" d="M 1201.8494869352094 237.14166281575476 L 1193 217 L 1185.015225860515 237.49983858330145 L 1201.8494869352094 237.14166281575476" stroke-miterlimit="10"/></g><g transform="translate(-326,-62) scale(1,1)"><rect fill="#C0C0C0" stroke="none" x="1119" y="79" width="89.73583984375" height="44" opacity="0.2"/></g><g transform="translate(-326,-62) scale(1,1)"><rect fill="#ffffff" stroke="none" x="1112" y="72" width="89.73583984375" height="44"/></g><g transform="translate(-326,-62) scale(1,1)"><path fill="none" stroke="#000000" d="M 1112 72 L 1201.73583984375 72 L 1201.73583984375 116 L 1112 116 L 1112 72 Z Z" stroke-miterlimit="10"/></g><g transform="translate(-326,-62) scale(1,1)"><path fill="none" stroke="#000000" d="M 1112 97 L 1201.73583984375 97" stroke-miterlimit="10"/></g><g transform="translate(-326,-62) scale(1,1)"><path fill="none" stroke="#000000" d="M 1112 107 L 1201.73583984375 107" stroke-miterlimit="10"/></g><g transform="translate(-326,-62) scale(1,1)"><g><path fill="none" stroke="none"/><text fill="#000000" stroke="none" font-family="Arial" font-size="13px" font-style="normal" font-weight="bold" text-decoration="none" x="1122.367919921875" y="91.5">OrderedPair</text></g></g><g transform="translate(-326,-62) scale(1,1)"><path fill="none" stroke="#000000" d="M 1184 171 L 1165 117" stroke-miterlimit="10"/></g><g transform="translate(-326,-62) scale(1,1)"><path fill="#FFFFFF" stroke="none" d="M 1179.6878903406487 133.3788240524489 L 1165 117 L 1163.8043293058493 138.96748441654503"/></g><g transform="translate(-326,-62) scale(1,1)"><path fill="none" stroke="#000000" d="M 1179.6878903406487 133.3788240524489 L 1165 117 L 1163.8043293058493 138.96748441654503 L 1179.6878903406487 133.3788240524489" stroke-miterlimit="10"/></g><g transform="translate(-326,-62) scale(1,1)"><rect fill="#C0C0C0" stroke="none" x="1087" y="175" width="50" height="44" opacity="0.2"/></g><g transform="translate(-326,-62) scale(1,1)"><rect fill="#ffffff" stroke="none" x="1080" y="168" width="50" height="44"/></g><g transform="translate(-326,-62) scale(1,1)"><path fill="none" stroke="#000000" d="M 1080 168 L 1130 168 L 1130 212 L 1080 212 L 1080 168 Z Z" stroke-miterlimit="10"/></g><g transform="translate(-326,-62) scale(1,1)"><path fill="none" stroke="#000000" d="M 1080 193 L 1130 193" stroke-miterlimit="10"/></g><g transform="translate(-326,-62) scale(1,1)"><path fill="none" stroke="#000000" d="M 1080 203 L 1130 203" stroke-miterlimit="10"/></g><g transform="translate(-326,-62) scale(1,1)"><g><path fill="none" stroke="none"/><text fill="#000000" stroke="none" font-family="Arial" font-size="13px" font-style="normal" font-weight="bold" text-decoration="none" x="1092" y="187.5">Size</text></g></g><g transform="translate(-326,-62) scale(1,1)"><path fill="none" stroke="#000000" d="M 1117 167 L 1144 117" stroke-miterlimit="10"/></g><g transform="translate(-326,-62) scale(1,1)"><path fill="#FFFFFF" stroke="none" d="M 1141.7503869312973 138.8846805103735 L 1144 117 L 1126.9344773510882 130.88408933706063"/></g><g transform="translate(-326,-62) scale(1,1)"><path fill="none" stroke="#000000" d="M 1141.7503869312973 138.8846805103735 L 1144 117 L 1126.9344773510882 130.88408933706063 L 1141.7503869312973 138.8846805103735" stroke-miterlimit="10"/></g><g transform="translate(-326,-62) scale(1,1)"><path fill="none" stroke="#000000" d="M 1135 455 L 1184 357" stroke-miterlimit="10" stroke-dasharray="3"/></g><g transform="translate(-326,-62) scale(1,1)"><path fill="none" stroke="#000000" d="M 1183.2202207790026 367.97232629693906 L 1184 357 L 1175.6900064950473 364.2072191549614" stroke-miterlimit="10"/></g><g transform="translate(-326,-62) scale(1,1)"><path fill="none" stroke="#000000" d="M 1101 455 L 1063 357" stroke-miterlimit="10" stroke-dasharray="3"/></g><g transform="translate(-326,-62) scale(1,1)"><path fill="none" stroke="#000000" d="M 1070.598881522213 364.9534269099155 L 1063 357 L 1062.7492985521174 367.99714275546285" stroke-miterlimit="10"/></g><g transform="translate(-326,-62) scale(1,1)"><path fill="none" stroke="#000000" d="M 437 583 L 1167 207" stroke-miterlimit="10" stroke-dasharray="3"/></g><g transform="translate(-326,-62) scale(1,1)"><path fill="none" stroke="#000000" d="M 1159.8928661405544 215.3957518009956 L 1167 207 L 1156.0378044215422 207.9111904848286" stroke-miterlimit="10"/></g><g transform="translate(-326,-62) scale(1,1)"><path fill="none" stroke="#000000" d="M 437 579 L 1079 205" stroke-miterlimit="10" stroke-dasharray="3"/></g><g transform="translate(-326,-62) scale(1,1)"><path fill="none" stroke="#000000" d="M 1072.337660876649 213.7528988001384 L 1079 205 L 1068.0997807306965 206.47824892393143" stroke-miterlimit="10"/></g><g transform="translate(-326,-62) scale(1,1)"><path fill="none" stroke="#000000" d="M 437 588 L 1007 353" stroke-miterlimit="10" stroke-dasharray="3"/></g><g transform="translate(-326,-62) scale(1,1)"><path fill="none" stroke="#000000" d="M 999.2089948187116 360.76532280495394 L 1007 353 L 996.000014990566 352.9818398175369" stroke-miterlimit="10"/></g><g transform="translate(-326,-62) scale(1,1)"><rect fill="#C0C0C0" stroke="none" x="743" y="711" width="73.9873046875" height="44" opacity="0.2"/></g><g transform="translate(-326,-62) scale(1,1)"><rect fill="#ffffff" stroke="none" x="736" y="704" width="73.9873046875" height="44"/></g><g transform="translate(-326,-62) scale(1,1)"><path fill="none" stroke="#000000" d="M 736 704 L 809.9873046875 704 L 809.9873046875 748 L 736 748 L 736 704 Z Z" stroke-miterlimit="10"/></g><g transform="translate(-326,-62) scale(1,1)"><path fill="none" stroke="#000000" d="M 736 729 L 809.9873046875 729" stroke-miterlimit="10"/></g><g transform="translate(-326,-62) scale(1,1)"><path fill="none" stroke="#000000" d="M 736 739 L 809.9873046875 739" stroke-miterlimit="10"/></g><g transform="translate(-326,-62) scale(1,1)"><g><path fill="none" stroke="none"/><text fill="#000000" stroke="none" font-family="Arial" font-size="13px" font-style="normal" font-weight="bold" text-decoration="none" x="744.99365234375" y="723.5">MainLoop</text></g></g><g transform="translate(-326,-62) scale(1,1)"><path fill="none" stroke="#000000" d="M 735 727 L 624 728 L 624 656" stroke-miterlimit="10"/></g><g transform="translate(-326,-62) scale(1,1)"><path fill="#FFFFFF" stroke="none" d="M 628.209517756016 666.1626748576241 L 624 656 L 619.790482243984 666.1626748576241 L 624 678"/></g><g transform="translate(-326,-62) scale(1,1)"><path fill="none" stroke="#000000" d="M 628.209517756016 666.1626748576241 L 624 656 L 619.790482243984 666.1626748576241 L 624 678 L 628.209517756016 666.1626748576241" stroke-miterlimit="10"/></g><g transform="translate(-326,-62) scale(1,1)"><rect fill="#C0C0C0" stroke="none" x="1039" y="705" width="78.95751953125" height="44" opacity="0.2"/></g><g transform="translate(-326,-62) scale(1,1)"><rect fill="#ffffff" stroke="none" x="1032" y="698" width="78.95751953125" height="44"/></g><g transform="translate(-326,-62) scale(1,1)"><path fill="none" stroke="#000000" d="M 1032 698 L 1110.95751953125 698 L 1110.95751953125 742 L 1032 742 L 1032 698 Z Z" stroke-miterlimit="10"/></g><g transform="translate(-326,-62) scale(1,1)"><path fill="none" stroke="#000000" d="M 1032 723 L 1110.95751953125 723" stroke-miterlimit="10"/></g><g transform="translate(-326,-62) scale(1,1)"><path fill="none" stroke="#000000" d="M 1032 733 L 1110.95751953125 733" stroke-miterlimit="10"/></g><g transform="translate(-326,-62) scale(1,1)"><g><path fill="none" stroke="none"/><text fill="#000000" stroke="none" font-family="Arial" font-size="13px" font-style="normal" font-weight="bold" text-decoration="none" x="1041.478759765625" y="717.5">WinPrinter</text></g></g><g transform="translate(-326,-62) scale(1,1)"><path fill="none" stroke="#000000" d="M 1081 697 L 1104 648" stroke-miterlimit="10"/></g><g transform="translate(-326,-62) scale(1,1)"><path fill="#FFFFFF" stroke="none" d="M 1102.9848358226423 669.9765657392826 L 1104 648 L 1087.742391864734 662.8219491876114"/></g><g transform="translate(-326,-62) scale(1,1)"><path fill="none" stroke="#000000" d="M 1102.9848358226423 669.9765657392826 L 1104 648 L 1087.742391864734 662.8219491876114 L 1102.9848358226423 669.9765657392826" stroke-miterlimit="10"/></g><g transform="translate(-326,-62) scale(1,1)"><rect fill="#C0C0C0" stroke="none" x="1143" y="705" width="84.4609375" height="44" opacity="0.2"/></g><g transform="translate(-326,-62) scale(1,1)"><rect fill="#ffffff" stroke="none" x="1136" y="698" width="84.4609375" height="44"/></g><g transform="translate(-326,-62) scale(1,1)"><path fill="none" stroke="#000000" d="M 1136 698 L 1220.4609375 698 L 1220.4609375 742 L 1136 742 L 1136 698 Z Z" stroke-miterlimit="10"/></g><g transform="translate(-326,-62) scale(1,1)"><path fill="none" stroke="#000000" d="M 1136 723 L 1220.4609375 723" stroke-miterlimit="10"/></g><g transform="translate(-326,-62) scale(1,1)"><path fill="none" stroke="#000000" d="M 1136 733 L 1220.4609375 733" stroke-miterlimit="10"/></g><g transform="translate(-326,-62) scale(1,1)"><g><path fill="none" stroke="none"/><text fill="#000000" stroke="none" font-family="Arial" font-size="13px" font-style="normal" font-weight="bold" text-decoration="none" x="1146.23046875" y="717.5">UnixPrinter</text></g></g><g transform="translate(-326,-62) scale(1,1)"><path fill="none" stroke="#000000" d="M 1167 697 L 1145 648" stroke-miterlimit="10"/></g><g transform="translate(-326,-62) scale(1,1)"><path fill="#FFFFFF" stroke="none" d="M 1161.0054977773996 663.0938411578251 L 1145 648 L 1145.6446385778147 669.9905534515162"/></g><g transform="translate(-326,-62) scale(1,1)"><path fill="none" stroke="#000000" d="M 1161.0054977773996 663.0938411578251 L 1145 648 L 1145.6446385778147 669.9905534515162 L 1161.0054977773996 663.0938411578251" stroke-miterlimit="10"/></g><g transform="translate(-326,-62) scale(1,1)"><rect fill="#C0C0C0" stroke="none" x="735" y="487" width="88" height="57" opacity="0.2"/></g><g transform="translate(-326,-62) scale(1,1)"><rect fill="#ffffff" stroke="none" x="728" y="480" width="88" height="57"/></g><g transform="translate(-326,-62) scale(1,1)"><path fill="none" stroke="#000000" d="M 728 480 L 816 480 L 816 537 L 728 537 L 728 480 Z Z" stroke-miterlimit="10"/></g><g transform="translate(-326,-62) scale(1,1)"><path fill="none" stroke="#000000" d="M 728 505 L 816 505" stroke-miterlimit="10"/></g><g transform="translate(-326,-62) scale(1,1)"><path fill="none" stroke="#000000" d="M 728 515 L 816 515" stroke-miterlimit="10"/></g><g transform="translate(-326,-62) scale(1,1)"><g><path fill="none" stroke="none"/><text fill="#000000" stroke="none" font-family="Arial" font-size="13px" font-style="normal" font-weight="bold" text-decoration="none" x="753.5" y="499.5">Scene</text></g></g><g transform="translate(-326,-62) scale(1,1)"><g><path fill="none" stroke="none"/><text fill="#000000" stroke="none" font-family="Arial" font-size="13px" font-style="normal" font-weight="normal" text-decoration="none" x="733" y="532.5">+initScene()</text></g></g><g transform="translate(-326,-62) scale(1,1)"><path fill="none" stroke="#000000" d="M 772 703 L 772 538" stroke-miterlimit="10" stroke-dasharray="3"/></g><g transform="translate(-326,-62) scale(1,1)"><path fill="none" stroke="#000000" d="M 776.209517756016 548.1626748576241 L 772 538 L 767.790482243984 548.1626748576241" stroke-miterlimit="10"/></g><g transform="translate(-326,-62) scale(1,1)"><path fill="none" stroke="#000000" d="M 915 641 L 912 728 L 811 727" stroke-miterlimit="10"/></g><g transform="translate(-326,-62) scale(1,1)"><path fill="#000000" stroke="none" d="M 821.2038531236593 722.8913041691081 L 811 727 L 821.1205004218276 731.3099270541145 L 832.99892175362 727.2178111064715"/></g><g transform="translate(-326,-62) scale(1,1)"><path fill="none" stroke="#000000" d="M 821.2038531236593 722.8913041691081 L 811 727 L 821.1205004218276 731.3099270541145 L 832.99892175362 727.2178111064715 L 821.2038531236593 722.8913041691081" stroke-miterlimit="10"/></g></g></svg>