<svg version="1.1" xmlns="http://www.w3.org/2000/svg" xmlns:xlink="http://www.w3.org/1999/xlink" width="327" height="232"><defs/><g><g transform="translate(-270,-214) scale(1,1)"><rect fill="#C0C0C0" stroke="none" x="391" y="231" width="52.44970703125" height="44" opacity="0.2"/></g><g transform="translate(-270,-214) scale(1,1)"><rect fill="#ffffff" stroke="none" x="384" y="224" width="52.44970703125" height="44"/></g><g transform="translate(-270,-214) scale(1,1)"><path fill="none" stroke="#000000" d="M 384 224 L 436.44970703125 224 L 436.44970703125 268 L 384 268 L 384 224 Z Z" stroke-miterlimit="10"/></g><g transform="translate(-270,-214) scale(1,1)"><path fill="none" stroke="#000000" d="M 384 249 L 436.44970703125 249" stroke-miterlimit="10"/></g><g transform="translate(-270,-214) scale(1,1)"><path fill="none" stroke="#000000" d="M 384 259 L 436.44970703125 259" stroke-miterlimit="10"/></g><g transform="translate(-270,-214) scale(1,1)"><g><path fill="none" stroke="none"/><text fill="#000000" stroke="none" font-family="Arial" font-size="13px" font-style="normal" font-weight="bold" text-decoration="none" x="391.224853515625" y="243.5">Object</text></g></g><g transform="translate(-270,-214) scale(1,1)"><rect fill="#C0C0C0" stroke="none" x="375" y="399" width="97.79736328125" height="44" opacity="0.2"/></g><g transform="translate(-270,-214) scale(1,1)"><rect fill="#ffffff" stroke="none" x="368" y="392" width="97.79736328125" height="44"/></g><g transform="translate(-270,-214) scale(1,1)"><path fill="none" stroke="#000000" d="M 368 392 L 465.79736328125 392 L 465.79736328125 436 L 368 436 L 368 392 Z Z" stroke-miterlimit="10"/></g><g transform="translate(-270,-214) scale(1,1)"><path fill="none" stroke="#000000" d="M 368 417 L 465.79736328125 417" stroke-miterlimit="10"/></g><g transform="translate(-270,-214) scale(1,1)"><path fill="none" stroke="#000000" d="M 368 427 L 465.79736328125 427" stroke-miterlimit="10"/></g><g transform="translate(-270,-214) scale(1,1)"><g><path fill="none" stroke="none"/><text fill="#000000" stroke="none" font-family="Arial" font-size="13px" font-style="normal" font-weight="bold" text-decoration="none" x="378.398681640625" y="411.5">VisibleObject</text></g></g><g transform="translate(-270,-214) scale(1,1)"><path fill="none" stroke="#000000" d="M 415 391 L 411 269" stroke-miterlimit="10"/></g><g transform="translate(-270,-214) scale(1,1)"><path fill="#FFFFFF" stroke="none" d="M 420.0805610216545 289.03854813932406 L 411 269 L 403.25153300094104 289.5903195498393"/></g><g transform="translate(-270,-214) scale(1,1)"><path fill="none" stroke="#000000" d="M 420.0805610216545 289.03854813932406 L 411 269 L 403.25153300094104 289.5903195498393 L 420.0805610216545 289.03854813932406" stroke-miterlimit="10"/></g><g transform="translate(-270,-214) scale(1,1)"><rect fill="#C0C0C0" stroke="none" x="503" y="399" width="91" height="44" opacity="0.2"/></g><g transform="translate(-270,-214) scale(1,1)"><rect fill="#ffffff" stroke="none" x="496" y="392" width="91" height="44"/></g><g transform="translate(-270,-214) scale(1,1)"><path fill="none" stroke="#000000" d="M 496 392 L 587 392 L 587 436 L 496 436 L 496 392 Z Z" stroke-miterlimit="10"/></g><g transform="translate(-270,-214) scale(1,1)"><path fill="none" stroke="#000000" d="M 496 417 L 587 417" stroke-miterlimit="10"/></g><g transform="translate(-270,-214) scale(1,1)"><path fill="none" stroke="#000000" d="M 496 427 L 587 427" stroke-miterlimit="10"/></g><g transform="translate(-270,-214) scale(1,1)"><g><path fill="none" stroke="none"/><text fill="#000000" stroke="none" font-family="Arial" font-size="13px" font-style="normal" font-weight="bold" text-decoration="none" x="507" y="411.5">OrderedPair</text></g></g><g transform="translate(-270,-214) scale(1,1)"><path fill="none" stroke="#000000" d="M 523 391 L 428 269" stroke-miterlimit="10"/></g><g transform="translate(-270,-214) scale(1,1)"><path fill="#FFFFFF" stroke="none" d="M 447.1303074499628 279.86422279180147 L 428 269 L 433.84500451564793 290.20933573245645"/></g><g transform="translate(-270,-214) scale(1,1)"><path fill="none" stroke="#000000" d="M 447.1303074499628 279.86422279180147 L 428 269 L 433.84500451564793 290.20933573245645 L 447.1303074499628 279.86422279180147" stroke-miterlimit="10"/></g><g transform="translate(-270,-214) scale(1,1)"><rect fill="#C0C0C0" stroke="none" x="287" y="399" width="51.82763671875" height="44" opacity="0.2"/></g><g transform="translate(-270,-214) scale(1,1)"><rect fill="#ffffff" stroke="none" x="280" y="392" width="51.82763671875" height="44"/></g><g transform="translate(-270,-214) scale(1,1)"><path fill="none" stroke="#000000" d="M 280 392 L 331.82763671875 392 L 331.82763671875 436 L 280 436 L 280 392 Z Z" stroke-miterlimit="10"/></g><g transform="translate(-270,-214) scale(1,1)"><path fill="none" stroke="#000000" d="M 280 417 L 331.82763671875 417" stroke-miterlimit="10"/></g><g transform="translate(-270,-214) scale(1,1)"><path fill="none" stroke="#000000" d="M 280 427 L 331.82763671875 427" stroke-miterlimit="10"/></g><g transform="translate(-270,-214) scale(1,1)"><g><path fill="none" stroke="none"/><text fill="#000000" stroke="none" font-family="Arial" font-size="13px" font-style="normal" font-weight="bold" text-decoration="none" x="287.413818359375" y="411.5">Action</text></g></g><g transform="translate(-270,-214) scale(1,1)"><path fill="none" stroke="#000000" d="M 319 391 L 396 269" stroke-miterlimit="10"/></g><g transform="translate(-270,-214) scale(1,1)"><path fill="#FFFFFF" stroke="none" d="M 392.27129438551907 290.68171474862027 L 396 269 L 378.03211944845043 281.69469450145397"/></g><g transform="translate(-270,-214) scale(1,1)"><path fill="none" stroke="#000000" d="M 392.27129438551907 290.68171474862027 L 396 269 L 378.03211944845043 281.69469450145397 L 392.27129438551907 290.68171474862027" stroke-miterlimit="10"/></g></g></svg>