<svg version="1.1" xmlns="http://www.w3.org/2000/svg" xmlns:xlink="http://www.w3.org/1999/xlink" width="442" height="468"><defs/><g><g transform="translate(-174,-206) scale(1,1)"><rect fill="#C0C0C0" stroke="none" x="359" y="223" width="120" height="52" opacity="0.2"/></g><g transform="translate(-174,-206) scale(1,1)"><rect fill="#ffffff" stroke="none" x="352" y="216" width="120" height="52"/></g><g transform="translate(-174,-206) scale(1,1)"><path fill="none" stroke="#000000" d="M 352 216 L 472 216 L 472 268 L 352 268 L 352 216 Z Z" stroke-miterlimit="10"/></g><g transform="translate(-174,-206) scale(1,1)"><path fill="none" stroke="#000000" d="M 352 241 L 472 241" stroke-miterlimit="10"/></g><g transform="translate(-174,-206) scale(1,1)"><path fill="none" stroke="#000000" d="M 352 251 L 472 251" stroke-miterlimit="10"/></g><g transform="translate(-174,-206) scale(1,1)"><g><path fill="none" stroke="none"/><text fill="#000000" stroke="none" font-family="Arial" font-size="13px" font-style="normal" font-weight="bold" text-decoration="none" x="393" y="235.5">Object</text></g></g><g transform="translate(-174,-206) scale(1,1)"><rect fill="#C0C0C0" stroke="none" x="375" y="399" width="92" height="44" opacity="0.2"/></g><g transform="translate(-174,-206) scale(1,1)"><rect fill="#ffffff" stroke="none" x="368" y="392" width="92" height="44"/></g><g transform="translate(-174,-206) scale(1,1)"><path fill="none" stroke="#000000" d="M 368 392 L 460 392 L 460 436 L 368 436 L 368 392 Z Z" stroke-miterlimit="10"/></g><g transform="translate(-174,-206) scale(1,1)"><path fill="none" stroke="#000000" d="M 368 417 L 460 417" stroke-miterlimit="10"/></g><g transform="translate(-174,-206) scale(1,1)"><path fill="none" stroke="#000000" d="M 368 427 L 460 427" stroke-miterlimit="10"/></g><g transform="translate(-174,-206) scale(1,1)"><g><path fill="none" stroke="none"/><text fill="#000000" stroke="none" font-family="Arial" font-size="13px" font-style="normal" font-weight="bold" text-decoration="none" x="375.5" y="411.5">VisibleObject</text></g></g><g transform="translate(-174,-206) scale(1,1)"><path fill="none" stroke="#000000" d="M 414 391 L 412 269" stroke-miterlimit="10"/></g><g transform="translate(-174,-206) scale(1,1)"><path fill="#FFFFFF" stroke="none" d="M 420.75106214344675 289.1846206642962 L 412 269 L 403.9152532368141 289.460617531618"/></g><g transform="translate(-174,-206) scale(1,1)"><path fill="none" stroke="#000000" d="M 420.75106214344675 289.1846206642962 L 412 269 L 403.9152532368141 289.460617531618 L 420.75106214344675 289.1846206642962" stroke-miterlimit="10"/></g><g transform="translate(-174,-206) scale(1,1)"><rect fill="#C0C0C0" stroke="none" x="503" y="399" width="91" height="44" opacity="0.2"/></g><g transform="translate(-174,-206) scale(1,1)"><rect fill="#ffffff" stroke="none" x="496" y="392" width="91" height="44"/></g><g transform="translate(-174,-206) scale(1,1)"><path fill="none" stroke="#000000" d="M 496 392 L 587 392 L 587 436 L 496 436 L 496 392 Z Z" stroke-miterlimit="10"/></g><g transform="translate(-174,-206) scale(1,1)"><path fill="none" stroke="#000000" d="M 496 417 L 587 417" stroke-miterlimit="10"/></g><g transform="translate(-174,-206) scale(1,1)"><path fill="none" stroke="#000000" d="M 496 427 L 587 427" stroke-miterlimit="10"/></g><g transform="translate(-174,-206) scale(1,1)"><g><path fill="none" stroke="none"/><text fill="#000000" stroke="none" font-family="Arial" font-size="13px" font-style="normal" font-weight="bold" text-decoration="none" x="507" y="411.5">OrderedPair</text></g></g><g transform="translate(-174,-206) scale(1,1)"><path fill="none" stroke="#000000" d="M 524 391 L 432 269" stroke-miterlimit="10"/></g><g transform="translate(-174,-206) scale(1,1)"><path fill="#FFFFFF" stroke="none" d="M 450.9597158359618 280.1592641074392 L 432 269 L 437.5157523135566 290.29733496040046"/></g><g transform="translate(-174,-206) scale(1,1)"><path fill="none" stroke="#000000" d="M 450.9597158359618 280.1592641074392 L 432 269 L 437.5157523135566 290.29733496040046 L 450.9597158359618 280.1592641074392" stroke-miterlimit="10"/></g><g transform="translate(-174,-206) scale(1,1)"><rect fill="#C0C0C0" stroke="none" x="287" y="399" width="50" height="44" opacity="0.2"/></g><g transform="translate(-174,-206) scale(1,1)"><rect fill="#ffffff" stroke="none" x="280" y="392" width="50" height="44"/></g><g transform="translate(-174,-206) scale(1,1)"><path fill="none" stroke="#000000" d="M 280 392 L 330 392 L 330 436 L 280 436 L 280 392 Z Z" stroke-miterlimit="10"/></g><g transform="translate(-174,-206) scale(1,1)"><path fill="none" stroke="#000000" d="M 280 417 L 330 417" stroke-miterlimit="10"/></g><g transform="translate(-174,-206) scale(1,1)"><path fill="none" stroke="#000000" d="M 280 427 L 330 427" stroke-miterlimit="10"/></g><g transform="translate(-174,-206) scale(1,1)"><g><path fill="none" stroke="none"/><text fill="#000000" stroke="none" font-family="Arial" font-size="13px" font-style="normal" font-weight="bold" text-decoration="none" x="286.5" y="411.5">Action</text></g></g><g transform="translate(-174,-206) scale(1,1)"><path fill="none" stroke="#000000" d="M 319 391 L 395 269" stroke-miterlimit="10"/></g><g transform="translate(-174,-206) scale(1,1)"><path fill="#FFFFFF" stroke="none" d="M 391.3989208124746 290.70327691122174 L 395 269 L 377.10711820901673 281.8001867648054"/></g><g transform="translate(-174,-206) scale(1,1)"><path fill="none" stroke="#000000" d="M 391.3989208124746 290.70327691122174 L 395 269 L 377.10711820901673 281.8001867648054 L 391.3989208124746 290.70327691122174" stroke-miterlimit="10"/></g><g transform="translate(-174,-206) scale(1,1)"><rect fill="#C0C0C0" stroke="none" x="399" y="511" width="50" height="44" opacity="0.2"/></g><g transform="translate(-174,-206) scale(1,1)"><rect fill="#ffffff" stroke="none" x="392" y="504" width="50" height="44"/></g><g transform="translate(-174,-206) scale(1,1)"><path fill="none" stroke="#000000" d="M 392 504 L 442 504 L 442 548 L 392 548 L 392 504 Z Z" stroke-miterlimit="10"/></g><g transform="translate(-174,-206) scale(1,1)"><path fill="none" stroke="#000000" d="M 392 529 L 442 529" stroke-miterlimit="10"/></g><g transform="translate(-174,-206) scale(1,1)"><path fill="none" stroke="#000000" d="M 392 539 L 442 539" stroke-miterlimit="10"/></g><g transform="translate(-174,-206) scale(1,1)"><g><path fill="none" stroke="none"/><text fill="#000000" stroke="none" font-family="Arial" font-size="13px" font-style="normal" font-weight="bold" text-decoration="none" x="402" y="523.5">Node</text></g></g><g transform="translate(-174,-206) scale(1,1)"><path fill="none" stroke="#000000" d="M 416 503 L 415 437" stroke-miterlimit="10"/></g><g transform="translate(-174,-206) scale(1,1)"><path fill="#FFFFFF" stroke="none" d="M 423.725993807412 457.1954705831037 L 415 437 L 406.8898551952468 457.45056359237896"/></g><g transform="translate(-174,-206) scale(1,1)"><path fill="none" stroke="#000000" d="M 423.725993807412 457.1954705831037 L 415 437 L 406.8898551952468 457.45056359237896 L 423.725993807412 457.1954705831037" stroke-miterlimit="10"/></g><g transform="translate(-174,-206) scale(1,1)"><rect fill="#C0C0C0" stroke="none" x="375" y="627" width="50" height="44" opacity="0.2"/></g><g transform="translate(-174,-206) scale(1,1)"><rect fill="#ffffff" stroke="none" x="368" y="620" width="50" height="44"/></g><g transform="translate(-174,-206) scale(1,1)"><path fill="none" stroke="#000000" d="M 368 620 L 418 620 L 418 664 L 368 664 L 368 620 Z Z" stroke-miterlimit="10"/></g><g transform="translate(-174,-206) scale(1,1)"><path fill="none" stroke="#000000" d="M 368 645 L 418 645" stroke-miterlimit="10"/></g><g transform="translate(-174,-206) scale(1,1)"><path fill="none" stroke="#000000" d="M 368 655 L 418 655" stroke-miterlimit="10"/></g><g transform="translate(-174,-206) scale(1,1)"><g><path fill="none" stroke="none"/><text fill="#000000" stroke="none" font-family="Arial" font-size="13px" font-style="normal" font-weight="bold" text-decoration="none" x="376" y="639.5">Sprite</text></g></g><g transform="translate(-174,-206) scale(1,1)"><path fill="none" stroke="#000000" d="M 398 619 L 412 549" stroke-miterlimit="10"/></g><g transform="translate(-174,-206) scale(1,1)"><path fill="#FFFFFF" stroke="none" d="M 416.2694144995677 570.5817538636433 L 412 549 L 399.75832743745934 567.2795364512216"/></g><g transform="translate(-174,-206) scale(1,1)"><path fill="none" stroke="#000000" d="M 416.2694144995677 570.5817538636433 L 412 549 L 399.75832743745934 567.2795364512216 L 416.2694144995677 570.5817538636433" stroke-miterlimit="10"/></g><g transform="translate(-174,-206) scale(1,1)"><rect fill="#C0C0C0" stroke="none" x="435" y="627" width="66" height="44" opacity="0.2"/></g><g transform="translate(-174,-206) scale(1,1)"><rect fill="#ffffff" stroke="none" x="428" y="620" width="66" height="44"/></g><g transform="translate(-174,-206) scale(1,1)"><path fill="none" stroke="#000000" d="M 428 620 L 494 620 L 494 664 L 428 664 L 428 620 Z Z" stroke-miterlimit="10"/></g><g transform="translate(-174,-206) scale(1,1)"><path fill="none" stroke="#000000" d="M 428 645 L 494 645" stroke-miterlimit="10"/></g><g transform="translate(-174,-206) scale(1,1)"><path fill="none" stroke="#000000" d="M 428 655 L 494 655" stroke-miterlimit="10"/></g><g transform="translate(-174,-206) scale(1,1)"><g><path fill="none" stroke="none"/><text fill="#000000" stroke="none" font-family="Arial" font-size="13px" font-style="normal" font-weight="bold" text-decoration="none" x="434" y="639.5">TextField</text></g></g><g transform="translate(-174,-206) scale(1,1)"><path fill="none" stroke="#000000" d="M 452 619 L 426 549" stroke-miterlimit="10"/></g><g transform="translate(-174,-206) scale(1,1)"><path fill="#FFFFFF" stroke="none" d="M 440.96922963525884 565.1221017279662 L 426 549 L 425.18479632540596 570.9848912430543"/></g><g transform="translate(-174,-206) scale(1,1)"><path fill="none" stroke="#000000" d="M 440.96922963525884 565.1221017279662 L 426 549 L 425.18479632540596 570.9848912430543 L 440.96922963525884 565.1221017279662" stroke-miterlimit="10"/></g><g transform="translate(-174,-206) scale(1,1)"><rect fill="#C0C0C0" stroke="none" x="503" y="513" width="50" height="44" opacity="0.2"/></g><g transform="translate(-174,-206) scale(1,1)"><rect fill="#ffffff" stroke="none" x="496" y="506" width="50" height="44"/></g><g transform="translate(-174,-206) scale(1,1)"><path fill="none" stroke="#000000" d="M 496 506 L 546 506 L 546 550 L 496 550 L 496 506 Z Z" stroke-miterlimit="10"/></g><g transform="translate(-174,-206) scale(1,1)"><path fill="none" stroke="#000000" d="M 496 531 L 546 531" stroke-miterlimit="10"/></g><g transform="translate(-174,-206) scale(1,1)"><path fill="none" stroke="#000000" d="M 496 541 L 546 541" stroke-miterlimit="10"/></g><g transform="translate(-174,-206) scale(1,1)"><g><path fill="none" stroke="none"/><text fill="#000000" stroke="none" font-family="Arial" font-size="13px" font-style="normal" font-weight="bold" text-decoration="none" x="504" y="525.5">Coord</text></g></g><g transform="translate(-174,-206) scale(1,1)"><path fill="none" stroke="#000000" d="M 525 505 L 537 437" stroke-miterlimit="10"/></g><g transform="translate(-174,-206) scale(1,1)"><path fill="#FFFFFF" stroke="none" d="M 541.7586800662708 458.47917512445196 L 537 437 L 525.176824559564 455.55296532915077"/></g><g transform="translate(-174,-206) scale(1,1)"><path fill="none" stroke="#000000" d="M 541.7586800662708 458.47917512445196 L 537 437 L 525.176824559564 455.55296532915077 L 541.7586800662708 458.47917512445196" stroke-miterlimit="10"/></g><g transform="translate(-174,-206) scale(1,1)"><rect fill="#C0C0C0" stroke="none" x="563" y="513" width="50" height="44" opacity="0.2"/></g><g transform="translate(-174,-206) scale(1,1)"><rect fill="#ffffff" stroke="none" x="556" y="506" width="50" height="44"/></g><g transform="translate(-174,-206) scale(1,1)"><path fill="none" stroke="#000000" d="M 556 506 L 606 506 L 606 550 L 556 550 L 556 506 Z Z" stroke-miterlimit="10"/></g><g transform="translate(-174,-206) scale(1,1)"><path fill="none" stroke="#000000" d="M 556 531 L 606 531" stroke-miterlimit="10"/></g><g transform="translate(-174,-206) scale(1,1)"><path fill="none" stroke="#000000" d="M 556 541 L 606 541" stroke-miterlimit="10"/></g><g transform="translate(-174,-206) scale(1,1)"><g><path fill="none" stroke="none"/><text fill="#000000" stroke="none" font-family="Arial" font-size="13px" font-style="normal" font-weight="bold" text-decoration="none" x="568" y="525.5">Size</text></g></g><g transform="translate(-174,-206) scale(1,1)"><path fill="none" stroke="#000000" d="M 573 505 L 549 437" stroke-miterlimit="10"/></g><g transform="translate(-174,-206) scale(1,1)"><path fill="#FFFFFF" stroke="none" d="M 563.703754391174 453.3645839178401 L 549 437 L 547.8256161792996 458.96863269850166"/></g><g transform="translate(-174,-206) scale(1,1)"><path fill="none" stroke="#000000" d="M 563.703754391174 453.3645839178401 L 549 437 L 547.8256161792996 458.96863269850166 L 563.703754391174 453.3645839178401" stroke-miterlimit="10"/></g><g transform="translate(-174,-206) scale(1,1)"><rect fill="#C0C0C0" stroke="none" x="287" y="513" width="58" height="44" opacity="0.2"/></g><g transform="translate(-174,-206) scale(1,1)"><rect fill="#ffffff" stroke="none" x="280" y="506" width="58" height="44"/></g><g transform="translate(-174,-206) scale(1,1)"><path fill="none" stroke="#000000" d="M 280 506 L 338 506 L 338 550 L 280 550 L 280 506 Z Z" stroke-miterlimit="10"/></g><g transform="translate(-174,-206) scale(1,1)"><path fill="none" stroke="#000000" d="M 280 531 L 338 531" stroke-miterlimit="10"/></g><g transform="translate(-174,-206) scale(1,1)"><path fill="none" stroke="#000000" d="M 280 541 L 338 541" stroke-miterlimit="10"/></g><g transform="translate(-174,-206) scale(1,1)"><g><path fill="none" stroke="none"/><text fill="#000000" stroke="none" font-family="Arial" font-size="13px" font-style="normal" font-weight="bold" text-decoration="none" x="285" y="525.5">MoveBy</text></g></g><g transform="translate(-174,-206) scale(1,1)"><path fill="none" stroke="#000000" d="M 308 505 L 306 437" stroke-miterlimit="10"/></g><g transform="translate(-174,-206) scale(1,1)"><path fill="#FFFFFF" stroke="none" d="M 315.01294242662254 457.06905251411706 L 306 437 L 298.18214958358766 457.56407583302985"/></g><g transform="translate(-174,-206) scale(1,1)"><path fill="none" stroke="#000000" d="M 315.01294242662254 457.06905251411706 L 306 437 L 298.18214958358766 457.56407583302985 L 315.01294242662254 457.06905251411706" stroke-miterlimit="10"/></g><g transform="translate(-174,-206) scale(1,1)"><rect fill="#C0C0C0" stroke="none" x="191" y="513" width="73" height="44" opacity="0.2"/></g><g transform="translate(-174,-206) scale(1,1)"><rect fill="#ffffff" stroke="none" x="184" y="506" width="73" height="44"/></g><g transform="translate(-174,-206) scale(1,1)"><path fill="none" stroke="#000000" d="M 184 506 L 257 506 L 257 550 L 184 550 L 184 506 Z Z" stroke-miterlimit="10"/></g><g transform="translate(-174,-206) scale(1,1)"><path fill="none" stroke="#000000" d="M 184 531 L 257 531" stroke-miterlimit="10"/></g><g transform="translate(-174,-206) scale(1,1)"><path fill="none" stroke="#000000" d="M 184 541 L 257 541" stroke-miterlimit="10"/></g><g transform="translate(-174,-206) scale(1,1)"><g><path fill="none" stroke="none"/><text fill="#000000" stroke="none" font-family="Arial" font-size="13px" font-style="normal" font-weight="bold" text-decoration="none" x="191.5" y="525.5">Animation</text></g></g><g transform="translate(-174,-206) scale(1,1)"><path fill="none" stroke="#000000" d="M 237 505 L 288 437" stroke-miterlimit="10"/></g><g transform="translate(-174,-206) scale(1,1)"><path fill="#FFFFFF" stroke="none" d="M 282.5400185804766 458.31170107941784 L 288 437 L 269.06956176122543 448.20885846497947"/></g><g transform="translate(-174,-206) scale(1,1)"><path fill="none" stroke="#000000" d="M 282.5400185804766 458.31170107941784 L 288 437 L 269.06956176122543 448.20885846497947 L 282.5400185804766 458.31170107941784" stroke-miterlimit="10"/></g></g></svg>