<svg version="1.1" xmlns="http://www.w3.org/2000/svg" xmlns:xlink="http://www.w3.org/1999/xlink" width="221" height="251"><defs/><g><g transform="translate(-214,-158) scale(1,1)"><rect fill="#C0C0C0" stroke="none" x="231" y="319" width="201" height="87" opacity="0.2"/></g><g transform="translate(-214,-158) scale(1,1)"><rect fill="#ffffff" stroke="none" x="224" y="312" width="201" height="87"/></g><g transform="translate(-214,-158) scale(1,1)"><path fill="none" stroke="#000000" d="M 224 312 L 425 312 L 425 399 L 224 399 L 224 312 Z Z" stroke-miterlimit="10"/></g><g transform="translate(-214,-158) scale(1,1)"><path fill="none" stroke="#000000" d="M 224 337 L 425 337" stroke-miterlimit="10"/></g><g transform="translate(-214,-158) scale(1,1)"><path fill="none" stroke="#000000" d="M 224 347 L 425 347" stroke-miterlimit="10"/></g><g transform="translate(-214,-158) scale(1,1)"><g><path fill="none" stroke="none"/><text fill="#000000" stroke="none" font-family="Arial" font-size="13px" font-style="normal" font-weight="bold" text-decoration="none" x="295.5" y="331.5">Scheduler</text></g></g><g transform="translate(-214,-158) scale(1,1)"><g><path fill="none" stroke="none"/><text fill="#000000" stroke="none" font-family="Arial" font-size="13px" font-style="normal" font-weight="normal" text-decoration="none" x="229" y="364.5">+void schedule(function, int)</text></g></g><g transform="translate(-214,-158) scale(1,1)"><g><path fill="none" stroke="none"/><text fill="#000000" stroke="none" font-family="Arial" font-size="13px" font-style="normal" font-weight="normal" text-decoration="none" x="229" y="379.5">+void scheduleAfter(function, int)</text></g></g><g transform="translate(-214,-158) scale(1,1)"><g><path fill="none" stroke="none"/><text fill="#000000" stroke="none" font-family="Arial" font-size="13px" font-style="normal" font-weight="normal" text-decoration="none" x="229" y="394.5">+void checkSchedule()</text></g></g><g transform="translate(-214,-158) scale(1,1)"><rect fill="#C0C0C0" stroke="none" x="287" y="175" width="86" height="44" opacity="0.2"/></g><g transform="translate(-214,-158) scale(1,1)"><rect fill="#ffffff" stroke="none" x="280" y="168" width="86" height="44"/></g><g transform="translate(-214,-158) scale(1,1)"><path fill="none" stroke="#000000" d="M 280 168 L 366 168 L 366 212 L 280 212 L 280 168 Z Z" stroke-miterlimit="10"/></g><g transform="translate(-214,-158) scale(1,1)"><path fill="none" stroke="#000000" d="M 280 193 L 366 193" stroke-miterlimit="10"/></g><g transform="translate(-214,-158) scale(1,1)"><path fill="none" stroke="#000000" d="M 280 203 L 366 203" stroke-miterlimit="10"/></g><g transform="translate(-214,-158) scale(1,1)"><g><path fill="none" stroke="none"/><text fill="#000000" stroke="none" font-family="Arial" font-size="13px" font-style="normal" font-weight="bold" text-decoration="none" x="286.5" y="187.5">TimeService</text></g></g><g transform="translate(-214,-158) scale(1,1)"><path fill="none" stroke="#000000" d="M 324 311 L 323 213" stroke-miterlimit="10" stroke-dasharray="3"/></g><g transform="translate(-214,-158) scale(1,1)"><path fill="none" stroke="#000000" d="M 327.3129939841696 223.1191937866866 L 323 213 L 318.89439674671627 223.20509784013" stroke-miterlimit="10"/></g></g></svg>