<svg version="1.1" xmlns="http://www.w3.org/2000/svg" xmlns:xlink="http://www.w3.org/1999/xlink" width="294" height="266"><defs/><g><g transform="translate(-214,-158) scale(1,1)"><rect fill="#C0C0C0" stroke="none" x="231" y="319" width="222" height="102" opacity="0.2"/></g><g transform="translate(-214,-158) scale(1,1)"><rect fill="#ffffff" stroke="none" x="224" y="312" width="222" height="102"/></g><g transform="translate(-214,-158) scale(1,1)"><path fill="none" stroke="#000000" d="M 224 312 L 446 312 L 446 414 L 224 414 L 224 312 Z Z" stroke-miterlimit="10"/></g><g transform="translate(-214,-158) scale(1,1)"><path fill="none" stroke="#000000" d="M 224 337 L 446 337" stroke-miterlimit="10"/></g><g transform="translate(-214,-158) scale(1,1)"><path fill="none" stroke="#000000" d="M 224 347 L 446 347" stroke-miterlimit="10"/></g><g transform="translate(-214,-158) scale(1,1)"><g><path fill="none" stroke="none"/><text fill="#000000" stroke="none" font-family="Arial" font-size="13px" font-style="normal" font-weight="bold" text-decoration="none" x="306" y="331.5">Scheduler</text></g></g><g transform="translate(-214,-158) scale(1,1)"><g><path fill="none" stroke="none"/><text fill="#000000" stroke="none" font-family="Arial" font-size="13px" font-style="normal" font-weight="normal" text-decoration="none" x="229" y="364.5">+void schedule(function, int)</text></g></g><g transform="translate(-214,-158) scale(1,1)"><g><path fill="none" stroke="none"/><text fill="#000000" stroke="none" font-family="Arial" font-size="13px" font-style="normal" font-weight="normal" text-decoration="none" x="229" y="379.5">+void scheduleAfter(function, int)</text></g></g><g transform="translate(-214,-158) scale(1,1)"><g><path fill="none" stroke="none"/><text fill="#000000" stroke="none" font-family="Arial" font-size="13px" font-style="normal" font-weight="normal" text-decoration="none" x="229" y="394.5">+void scheduleAfter(function obj, int)</text></g></g><g transform="translate(-214,-158) scale(1,1)"><g><path fill="none" stroke="none"/><text fill="#000000" stroke="none" font-family="Arial" font-size="13px" font-style="normal" font-weight="normal" text-decoration="none" x="229" y="409.5">+void checkSchedule()</text></g></g><g transform="translate(-214,-158) scale(1,1)"><rect fill="#C0C0C0" stroke="none" x="303" y="175" width="86" height="44" opacity="0.2"/></g><g transform="translate(-214,-158) scale(1,1)"><rect fill="#ffffff" stroke="none" x="296" y="168" width="86" height="44"/></g><g transform="translate(-214,-158) scale(1,1)"><path fill="none" stroke="#000000" d="M 296 168 L 382 168 L 382 212 L 296 212 L 296 168 Z Z" stroke-miterlimit="10"/></g><g transform="translate(-214,-158) scale(1,1)"><path fill="none" stroke="#000000" d="M 296 193 L 382 193" stroke-miterlimit="10"/></g><g transform="translate(-214,-158) scale(1,1)"><path fill="none" stroke="#000000" d="M 296 203 L 382 203" stroke-miterlimit="10"/></g><g transform="translate(-214,-158) scale(1,1)"><g><path fill="none" stroke="none"/><text fill="#000000" stroke="none" font-family="Arial" font-size="13px" font-style="normal" font-weight="bold" text-decoration="none" x="302.5" y="187.5">TimeService</text></g></g><g transform="translate(-214,-158) scale(1,1)"><path fill="none" stroke="#000000" d="M 336 311 L 338 213" stroke-miterlimit="10" stroke-dasharray="3"/></g><g transform="translate(-214,-158) scale(1,1)"><path fill="none" stroke="#000000" d="M 342.0012830616035 223.2464498174209 L 338 213 L 333.5840002373207 223.0746685352927" stroke-miterlimit="10"/></g><g transform="translate(-214,-158) scale(1,1)"><rect fill="#C0C0C0" stroke="none" x="455" y="175" width="50" height="44" opacity="0.2"/></g><g transform="translate(-214,-158) scale(1,1)"><rect fill="#ffffff" stroke="none" x="448" y="168" width="50" height="44"/></g><g transform="translate(-214,-158) scale(1,1)"><path fill="none" stroke="#000000" d="M 448 168 L 498 168 L 498 212 L 448 212 L 448 168 Z Z" stroke-miterlimit="10"/></g><g transform="translate(-214,-158) scale(1,1)"><path fill="none" stroke="#000000" d="M 448 193 L 498 193" stroke-miterlimit="10"/></g><g transform="translate(-214,-158) scale(1,1)"><path fill="none" stroke="#000000" d="M 448 203 L 498 203" stroke-miterlimit="10"/></g><g transform="translate(-214,-158) scale(1,1)"><g><path fill="none" stroke="none"/><text fill="#000000" stroke="none" font-family="Arial" font-size="13px" font-style="normal" font-weight="bold" text-decoration="none" x="454" y="187.5">Object</text></g></g><g transform="translate(-214,-158) scale(1,1)"><path fill="none" stroke="#000000" d="M 376 311 L 455 213" stroke-miterlimit="10" stroke-dasharray="3"/></g><g transform="translate(-214,-158) scale(1,1)"><path fill="none" stroke="#000000" d="M 451.8992047056234 223.553912475588 L 455 213 L 445.3446635407374 218.27014969981255" stroke-miterlimit="10"/></g></g></svg>