<svg version="1.1" xmlns="http://www.w3.org/2000/svg" xmlns:xlink="http://www.w3.org/1999/xlink" width="865" height="664"><defs/><g><g transform="translate(-62,-142) scale(1,1)"><rect fill="#C0C0C0" stroke="none" x="367" y="295" width="120.3759765625" height="102" opacity="0.2"/></g><g transform="translate(-62,-142) scale(1,1)"><rect fill="#ffffff" stroke="none" x="360" y="288" width="120.3759765625" height="102"/></g><g transform="translate(-62,-142) scale(1,1)"><path fill="none" stroke="#000000" d="M 360 288 L 480.3759765625 288 L 480.3759765625 390 L 360 390 L 360 288 Z Z" stroke-miterlimit="10"/></g><g transform="translate(-62,-142) scale(1,1)"><path fill="none" stroke="#000000" d="M 360 313 L 480.3759765625 313" stroke-miterlimit="10"/></g><g transform="translate(-62,-142) scale(1,1)"><path fill="none" stroke="#000000" d="M 360 323 L 480.3759765625 323" stroke-miterlimit="10"/></g><g transform="translate(-62,-142) scale(1,1)"><g><path fill="none" stroke="none"/><text fill="#000000" stroke="none" font-family="Arial" font-size="13px" font-style="normal" font-weight="bold" text-decoration="none" x="401.68798828125" y="307.5">Scene</text></g></g><g transform="translate(-62,-142) scale(1,1)"><g><path fill="none" stroke="none"/><text fill="#000000" stroke="none" font-family="Arial" font-size="13px" font-style="normal" font-weight="normal" text-decoration="none" x="365" y="340.5">+initScene()</text></g></g><g transform="translate(-62,-142) scale(1,1)"><g><path fill="none" stroke="none"/><text fill="#000000" stroke="none" font-family="Arial" font-size="13px" font-style="normal" font-weight="normal" text-decoration="none" x="365" y="355.5">+addChild(Node*)</text></g></g><g transform="translate(-62,-142) scale(1,1)"><g><path fill="none" stroke="none"/><text fill="#000000" stroke="none" font-family="Arial" font-size="13px" font-style="normal" font-weight="normal" text-decoration="none" x="365" y="370.5">+pause()</text></g></g><g transform="translate(-62,-142) scale(1,1)"><g><path fill="none" stroke="none"/><text fill="#000000" stroke="none" font-family="Arial" font-size="13px" font-style="normal" font-weight="normal" text-decoration="none" x="365" y="385.5">+resume()</text></g></g><g transform="translate(-62,-142) scale(1,1)"><rect fill="#C0C0C0" stroke="none" x="119" y="447" width="101.25048828125" height="44" opacity="0.2"/></g><g transform="translate(-62,-142) scale(1,1)"><rect fill="#ffffff" stroke="none" x="112" y="440" width="101.25048828125" height="44"/></g><g transform="translate(-62,-142) scale(1,1)"><path fill="none" stroke="#000000" d="M 112 440 L 213.25048828125 440 L 213.25048828125 484 L 112 484 L 112 440 Z Z" stroke-miterlimit="10"/></g><g transform="translate(-62,-142) scale(1,1)"><path fill="none" stroke="#000000" d="M 112 465 L 213.25048828125 465" stroke-miterlimit="10"/></g><g transform="translate(-62,-142) scale(1,1)"><path fill="none" stroke="#000000" d="M 112 475 L 213.25048828125 475" stroke-miterlimit="10"/></g><g transform="translate(-62,-142) scale(1,1)"><g><path fill="none" stroke="none"/><text fill="#000000" stroke="none" font-family="Arial" font-size="13px" font-style="normal" font-weight="bold" text-decoration="none" x="122.625244140625" y="459.5">NodeManager</text></g></g><g transform="translate(-62,-142) scale(1,1)"><rect fill="#C0C0C0" stroke="none" x="375" y="447" width="109.55322265625" height="44" opacity="0.2"/></g><g transform="translate(-62,-142) scale(1,1)"><rect fill="#ffffff" stroke="none" x="368" y="440" width="109.55322265625" height="44"/></g><g transform="translate(-62,-142) scale(1,1)"><path fill="none" stroke="#000000" d="M 368 440 L 477.55322265625 440 L 477.55322265625 484 L 368 484 L 368 440 Z Z" stroke-miterlimit="10"/></g><g transform="translate(-62,-142) scale(1,1)"><path fill="none" stroke="#000000" d="M 368 465 L 477.55322265625 465" stroke-miterlimit="10"/></g><g transform="translate(-62,-142) scale(1,1)"><path fill="none" stroke="#000000" d="M 368 475 L 477.55322265625 475" stroke-miterlimit="10"/></g><g transform="translate(-62,-142) scale(1,1)"><g><path fill="none" stroke="none"/><text fill="#000000" stroke="none" font-family="Arial" font-size="13px" font-style="normal" font-weight="bold" text-decoration="none" x="379.276611328125" y="459.5">ActionManager</text></g></g><g transform="translate(-62,-142) scale(1,1)"><rect fill="#C0C0C0" stroke="none" x="599" y="447" width="105.82080078125" height="44" opacity="0.2"/></g><g transform="translate(-62,-142) scale(1,1)"><rect fill="#ffffff" stroke="none" x="592" y="440" width="105.82080078125" height="44"/></g><g transform="translate(-62,-142) scale(1,1)"><path fill="none" stroke="#000000" d="M 592 440 L 697.82080078125 440 L 697.82080078125 484 L 592 484 L 592 440 Z Z" stroke-miterlimit="10"/></g><g transform="translate(-62,-142) scale(1,1)"><path fill="none" stroke="#000000" d="M 592 465 L 697.82080078125 465" stroke-miterlimit="10"/></g><g transform="translate(-62,-142) scale(1,1)"><path fill="none" stroke="#000000" d="M 592 475 L 697.82080078125 475" stroke-miterlimit="10"/></g><g transform="translate(-62,-142) scale(1,1)"><g><path fill="none" stroke="none"/><text fill="#000000" stroke="none" font-family="Arial" font-size="13px" font-style="normal" font-weight="bold" text-decoration="none" x="602.410400390625" y="459.5">KeyDispatcher</text></g></g><g transform="translate(-62,-142) scale(1,1)"><rect fill="#C0C0C0" stroke="none" x="751" y="447" width="173" height="57" opacity="0.2"/></g><g transform="translate(-62,-142) scale(1,1)"><rect fill="#ffffff" stroke="none" x="744" y="440" width="173" height="57"/></g><g transform="translate(-62,-142) scale(1,1)"><path fill="none" stroke="#000000" d="M 744 440 L 917 440 L 917 497 L 744 497 L 744 440 Z Z" stroke-miterlimit="10"/></g><g transform="translate(-62,-142) scale(1,1)"><path fill="none" stroke="#000000" d="M 744 465 L 917 465" stroke-miterlimit="10"/></g><g transform="translate(-62,-142) scale(1,1)"><path fill="none" stroke="#000000" d="M 744 475 L 917 475" stroke-miterlimit="10"/></g><g transform="translate(-62,-142) scale(1,1)"><g><path fill="none" stroke="none"/><text fill="#000000" stroke="none" font-family="Arial" font-size="13px" font-style="normal" font-weight="bold" text-decoration="none" x="801.5" y="459.5">Scheduler</text></g></g><g transform="translate(-62,-142) scale(1,1)"><g><path fill="none" stroke="none"/><text fill="#000000" stroke="none" font-family="Arial" font-size="13px" font-style="normal" font-weight="normal" text-decoration="none" x="749" y="492.5">+void schedule(function, int)</text></g></g><g transform="translate(-62,-142) scale(1,1)"><rect fill="#C0C0C0" stroke="none" x="119" y="527" width="109.71826171875" height="57" opacity="0.2"/></g><g transform="translate(-62,-142) scale(1,1)"><rect fill="#ffffff" stroke="none" x="112" y="520" width="109.71826171875" height="57"/></g><g transform="translate(-62,-142) scale(1,1)"><path fill="none" stroke="#000000" d="M 112 520 L 221.71826171875 520 L 221.71826171875 577 L 112 577 L 112 520 Z Z" stroke-miterlimit="10"/></g><g transform="translate(-62,-142) scale(1,1)"><path fill="none" stroke="#000000" d="M 112 545 L 221.71826171875 545" stroke-miterlimit="10"/></g><g transform="translate(-62,-142) scale(1,1)"><path fill="none" stroke="#000000" d="M 112 568 L 221.71826171875 568" stroke-miterlimit="10"/></g><g transform="translate(-62,-142) scale(1,1)"><g><path fill="none" stroke="none"/><text fill="#000000" stroke="none" font-family="Arial" font-size="13px" font-style="normal" font-weight="bold" text-decoration="none" x="151.859130859375" y="539.5">Node</text></g></g><g transform="translate(-62,-142) scale(1,1)"><g><path fill="none" stroke="none"/><text fill="#000000" stroke="none" font-family="Arial" font-size="13px" font-style="normal" font-weight="normal" text-decoration="none" x="117" y="562.5">+Node* children</text></g></g><g transform="translate(-62,-142) scale(1,1)"><rect fill="#C0C0C0" stroke="none" x="87" y="615" width="64" height="44" opacity="0.2"/></g><g transform="translate(-62,-142) scale(1,1)"><rect fill="#ffffff" stroke="none" x="80" y="608" width="64" height="44"/></g><g transform="translate(-62,-142) scale(1,1)"><path fill="none" stroke="#000000" d="M 80 608 L 144 608 L 144 652 L 80 652 L 80 608 Z Z" stroke-miterlimit="10"/></g><g transform="translate(-62,-142) scale(1,1)"><path fill="none" stroke="#000000" d="M 80 633 L 144 633" stroke-miterlimit="10"/></g><g transform="translate(-62,-142) scale(1,1)"><path fill="none" stroke="#000000" d="M 80 643 L 144 643" stroke-miterlimit="10"/></g><g transform="translate(-62,-142) scale(1,1)"><g><path fill="none" stroke="none"/><text fill="#000000" stroke="none" font-family="Arial" font-size="13px" font-style="normal" font-weight="bold" text-decoration="none" x="95" y="627.5">Sprite</text></g></g><g transform="translate(-62,-142) scale(1,1)"><rect fill="#C0C0C0" stroke="none" x="79" y="695" width="83.00732421875" height="44" opacity="0.2"/></g><g transform="translate(-62,-142) scale(1,1)"><rect fill="#ffffff" stroke="none" x="72" y="688" width="83.00732421875" height="44"/></g><g transform="translate(-62,-142) scale(1,1)"><path fill="none" stroke="#000000" d="M 72 688 L 155.00732421875 688 L 155.00732421875 732 L 72 732 L 72 688 Z Z" stroke-miterlimit="10"/></g><g transform="translate(-62,-142) scale(1,1)"><path fill="none" stroke="#000000" d="M 72 713 L 155.00732421875 713" stroke-miterlimit="10"/></g><g transform="translate(-62,-142) scale(1,1)"><path fill="none" stroke="#000000" d="M 72 723 L 155.00732421875 723" stroke-miterlimit="10"/></g><g transform="translate(-62,-142) scale(1,1)"><g><path fill="none" stroke="none"/><text fill="#000000" stroke="none" font-family="Arial" font-size="13px" font-style="normal" font-weight="bold" text-decoration="none" x="81.503662109375" y="707.5">AnimSprite</text></g></g><g transform="translate(-62,-142) scale(1,1)"><rect fill="#C0C0C0" stroke="none" x="191" y="615" width="70.6865234375" height="44" opacity="0.2"/></g><g transform="translate(-62,-142) scale(1,1)"><rect fill="#ffffff" stroke="none" x="184" y="608" width="70.6865234375" height="44"/></g><g transform="translate(-62,-142) scale(1,1)"><path fill="none" stroke="#000000" d="M 184 608 L 254.6865234375 608 L 254.6865234375 652 L 184 652 L 184 608 Z Z" stroke-miterlimit="10"/></g><g transform="translate(-62,-142) scale(1,1)"><path fill="none" stroke="#000000" d="M 184 633 L 254.6865234375 633" stroke-miterlimit="10"/></g><g transform="translate(-62,-142) scale(1,1)"><path fill="none" stroke="#000000" d="M 184 643 L 254.6865234375 643" stroke-miterlimit="10"/></g><g transform="translate(-62,-142) scale(1,1)"><g><path fill="none" stroke="none"/><text fill="#000000" stroke="none" font-family="Arial" font-size="13px" font-style="normal" font-weight="bold" text-decoration="none" x="192.34326171875" y="627.5">TextField</text></g></g><g transform="translate(-62,-142) scale(1,1)"><rect fill="#C0C0C0" stroke="none" x="383" y="535" width="88" height="57" opacity="0.2"/></g><g transform="translate(-62,-142) scale(1,1)"><rect fill="#ffffff" stroke="none" x="376" y="528" width="88" height="57"/></g><g transform="translate(-62,-142) scale(1,1)"><path fill="none" stroke="#000000" d="M 376 528 L 464 528 L 464 585 L 376 585 L 376 528 Z Z" stroke-miterlimit="10"/></g><g transform="translate(-62,-142) scale(1,1)"><path fill="none" stroke="#000000" d="M 376 553 L 464 553" stroke-miterlimit="10"/></g><g transform="translate(-62,-142) scale(1,1)"><path fill="none" stroke="#000000" d="M 376 576 L 464 576" stroke-miterlimit="10"/></g><g transform="translate(-62,-142) scale(1,1)"><g><path fill="none" stroke="none"/><text fill="#000000" stroke="none" font-family="Arial" font-size="13px" font-style="normal" font-weight="bold" text-decoration="none" x="401.5" y="547.5">Action</text></g></g><g transform="translate(-62,-142) scale(1,1)"><g><path fill="none" stroke="none"/><text fill="#000000" stroke="none" font-family="Arial" font-size="13px" font-style="normal" font-weight="normal" text-decoration="none" x="381" y="570.5">+Node* host</text></g></g><g transform="translate(-62,-142) scale(1,1)"><path fill="none" stroke="#000000" d="M 127 607 L 146 578" stroke-miterlimit="10"/></g><g transform="translate(-62,-142) scale(1,1)"><path fill="#FFFFFF" stroke="none" d="M 141.90337062138417 599.6152175037463 L 146 578 L 127.81897871265153 590.387512460094"/></g><g transform="translate(-62,-142) scale(1,1)"><path fill="none" stroke="#000000" d="M 141.90337062138417 599.6152175037463 L 146 578 L 127.81897871265153 590.387512460094 L 141.90337062138417 599.6152175037463" stroke-miterlimit="10"/></g><g transform="translate(-62,-142) scale(1,1)"><path fill="none" stroke="#000000" d="M 204 607 L 185 578" stroke-miterlimit="10"/></g><g transform="translate(-62,-142) scale(1,1)"><path fill="#FFFFFF" stroke="none" d="M 203.18102128734847 590.387512460094 L 185 578 L 189.09662937861583 599.6152175037463"/></g><g transform="translate(-62,-142) scale(1,1)"><path fill="none" stroke="#000000" d="M 203.18102128734847 590.387512460094 L 185 578 L 189.09662937861583 599.6152175037463 L 203.18102128734847 590.387512460094" stroke-miterlimit="10"/></g><g transform="translate(-62,-142) scale(1,1)"><path fill="none" stroke="#000000" d="M 113 687 L 112 653" stroke-miterlimit="10"/></g><g transform="translate(-62,-142) scale(1,1)"><path fill="#FFFFFF" stroke="none" d="M 121.01294242662254 673.0690525141171 L 112 653 L 104.18214958358766 673.5640758330298"/></g><g transform="translate(-62,-142) scale(1,1)"><path fill="none" stroke="#000000" d="M 121.01294242662254 673.0690525141171 L 112 653 L 104.18214958358766 673.5640758330298 L 121.01294242662254 673.0690525141171" stroke-miterlimit="10"/></g><g transform="translate(-62,-142) scale(1,1)"><rect fill="#C0C0C0" stroke="none" x="263" y="695" width="71.88623046875" height="44" opacity="0.2"/></g><g transform="translate(-62,-142) scale(1,1)"><rect fill="#ffffff" stroke="none" x="256" y="688" width="71.88623046875" height="44"/></g><g transform="translate(-62,-142) scale(1,1)"><path fill="none" stroke="#000000" d="M 256 688 L 327.88623046875 688 L 327.88623046875 732 L 256 732 L 256 688 Z Z" stroke-miterlimit="10"/></g><g transform="translate(-62,-142) scale(1,1)"><path fill="none" stroke="#000000" d="M 256 713 L 327.88623046875 713" stroke-miterlimit="10"/></g><g transform="translate(-62,-142) scale(1,1)"><path fill="none" stroke="#000000" d="M 256 723 L 327.88623046875 723" stroke-miterlimit="10"/></g><g transform="translate(-62,-142) scale(1,1)"><g><path fill="none" stroke="none"/><text fill="#000000" stroke="none" font-family="Arial" font-size="13px" font-style="normal" font-weight="bold" text-decoration="none" x="262.943115234375" y="707.5">Sequence</text></g></g><g transform="translate(-62,-142) scale(1,1)"><rect fill="#C0C0C0" stroke="none" x="367" y="695" width="54.728515625" height="44" opacity="0.2"/></g><g transform="translate(-62,-142) scale(1,1)"><rect fill="#ffffff" stroke="none" x="360" y="688" width="54.728515625" height="44"/></g><g transform="translate(-62,-142) scale(1,1)"><path fill="none" stroke="#000000" d="M 360 688 L 414.728515625 688 L 414.728515625 732 L 360 732 L 360 688 Z Z" stroke-miterlimit="10"/></g><g transform="translate(-62,-142) scale(1,1)"><path fill="none" stroke="#000000" d="M 360 713 L 414.728515625 713" stroke-miterlimit="10"/></g><g transform="translate(-62,-142) scale(1,1)"><path fill="none" stroke="#000000" d="M 360 723 L 414.728515625 723" stroke-miterlimit="10"/></g><g transform="translate(-62,-142) scale(1,1)"><g><path fill="none" stroke="none"/><text fill="#000000" stroke="none" font-family="Arial" font-size="13px" font-style="normal" font-weight="bold" text-decoration="none" x="366.8642578125" y="707.5">Repeat</text></g></g><g transform="translate(-62,-142) scale(1,1)"><rect fill="#C0C0C0" stroke="none" x="439" y="695" width="61.70458984375" height="44" opacity="0.2"/></g><g transform="translate(-62,-142) scale(1,1)"><rect fill="#ffffff" stroke="none" x="432" y="688" width="61.70458984375" height="44"/></g><g transform="translate(-62,-142) scale(1,1)"><path fill="none" stroke="#000000" d="M 432 688 L 493.70458984375 688 L 493.70458984375 732 L 432 732 L 432 688 Z Z" stroke-miterlimit="10"/></g><g transform="translate(-62,-142) scale(1,1)"><path fill="none" stroke="#000000" d="M 432 713 L 493.70458984375 713" stroke-miterlimit="10"/></g><g transform="translate(-62,-142) scale(1,1)"><path fill="none" stroke="#000000" d="M 432 723 L 493.70458984375 723" stroke-miterlimit="10"/></g><g transform="translate(-62,-142) scale(1,1)"><g><path fill="none" stroke="none"/><text fill="#000000" stroke="none" font-family="Arial" font-size="13px" font-style="normal" font-weight="bold" text-decoration="none" x="439.352294921875" y="707.5">MoveTo</text></g></g><g transform="translate(-62,-142) scale(1,1)"><rect fill="#C0C0C0" stroke="none" x="535" y="695" width="60.2001953125" height="44" opacity="0.2"/></g><g transform="translate(-62,-142) scale(1,1)"><rect fill="#ffffff" stroke="none" x="528" y="688" width="60.2001953125" height="44"/></g><g transform="translate(-62,-142) scale(1,1)"><path fill="none" stroke="#000000" d="M 528 688 L 588.2001953125 688 L 588.2001953125 732 L 528 732 L 528 688 Z Z" stroke-miterlimit="10"/></g><g transform="translate(-62,-142) scale(1,1)"><path fill="none" stroke="#000000" d="M 528 713 L 588.2001953125 713" stroke-miterlimit="10"/></g><g transform="translate(-62,-142) scale(1,1)"><path fill="none" stroke="#000000" d="M 528 723 L 588.2001953125 723" stroke-miterlimit="10"/></g><g transform="translate(-62,-142) scale(1,1)"><g><path fill="none" stroke="none"/><text fill="#000000" stroke="none" font-family="Arial" font-size="13px" font-style="normal" font-weight="bold" text-decoration="none" x="534.10009765625" y="707.5">MoveBy</text></g></g><g transform="translate(-62,-142) scale(1,1)"><rect fill="#C0C0C0" stroke="none" x="607" y="695" width="50" height="44" opacity="0.2"/></g><g transform="translate(-62,-142) scale(1,1)"><rect fill="#ffffff" stroke="none" x="600" y="688" width="50" height="44"/></g><g transform="translate(-62,-142) scale(1,1)"><path fill="none" stroke="#000000" d="M 600 688 L 650 688 L 650 732 L 600 732 L 600 688 Z Z" stroke-miterlimit="10"/></g><g transform="translate(-62,-142) scale(1,1)"><path fill="none" stroke="#000000" d="M 600 713 L 650 713" stroke-miterlimit="10"/></g><g transform="translate(-62,-142) scale(1,1)"><path fill="none" stroke="#000000" d="M 600 723 L 650 723" stroke-miterlimit="10"/></g><g transform="translate(-62,-142) scale(1,1)"><g><path fill="none" stroke="none"/><text fill="#000000" stroke="none" font-family="Arial" font-size="13px" font-style="normal" font-weight="bold" text-decoration="none" x="609" y="707.5">Jump</text></g></g><g transform="translate(-62,-142) scale(1,1)"><rect fill="#C0C0C0" stroke="none" x="295" y="759" width="54.37939453125" height="44" opacity="0.2"/></g><g transform="translate(-62,-142) scale(1,1)"><rect fill="#ffffff" stroke="none" x="288" y="752" width="54.37939453125" height="44"/></g><g transform="translate(-62,-142) scale(1,1)"><path fill="none" stroke="#000000" d="M 288 752 L 342.37939453125 752 L 342.37939453125 796 L 288 796 L 288 752 Z Z" stroke-miterlimit="10"/></g><g transform="translate(-62,-142) scale(1,1)"><path fill="none" stroke="#000000" d="M 288 777 L 342.37939453125 777" stroke-miterlimit="10"/></g><g transform="translate(-62,-142) scale(1,1)"><path fill="none" stroke="#000000" d="M 288 787 L 342.37939453125 787" stroke-miterlimit="10"/></g><g transform="translate(-62,-142) scale(1,1)"><g><path fill="none" stroke="none"/><text fill="#000000" stroke="none" font-family="Arial" font-size="13px" font-style="normal" font-weight="bold" text-decoration="none" x="295.189697265625" y="771.5">Vanish</text></g></g><g transform="translate(-62,-142) scale(1,1)"><rect fill="#C0C0C0" stroke="none" x="407" y="759" width="50" height="44" opacity="0.2"/></g><g transform="translate(-62,-142) scale(1,1)"><rect fill="#ffffff" stroke="none" x="400" y="752" width="50" height="44"/></g><g transform="translate(-62,-142) scale(1,1)"><path fill="none" stroke="#000000" d="M 400 752 L 450 752 L 450 796 L 400 796 L 400 752 Z Z" stroke-miterlimit="10"/></g><g transform="translate(-62,-142) scale(1,1)"><path fill="none" stroke="#000000" d="M 400 777 L 450 777" stroke-miterlimit="10"/></g><g transform="translate(-62,-142) scale(1,1)"><path fill="none" stroke="#000000" d="M 400 787 L 450 787" stroke-miterlimit="10"/></g><g transform="translate(-62,-142) scale(1,1)"><g><path fill="none" stroke="none"/><text fill="#000000" stroke="none" font-family="Arial" font-size="13px" font-style="normal" font-weight="bold" text-decoration="none" x="408.5" y="771.5">Sleep</text></g></g><g transform="translate(-62,-142) scale(1,1)"><rect fill="#C0C0C0" stroke="none" x="679" y="695" width="65.81787109375" height="44" opacity="0.2"/></g><g transform="translate(-62,-142) scale(1,1)"><rect fill="#ffffff" stroke="none" x="672" y="688" width="65.81787109375" height="44"/></g><g transform="translate(-62,-142) scale(1,1)"><path fill="none" stroke="#000000" d="M 672 688 L 737.81787109375 688 L 737.81787109375 732 L 672 732 L 672 688 Z Z" stroke-miterlimit="10"/></g><g transform="translate(-62,-142) scale(1,1)"><path fill="none" stroke="#000000" d="M 672 713 L 737.81787109375 713" stroke-miterlimit="10"/></g><g transform="translate(-62,-142) scale(1,1)"><path fill="none" stroke="#000000" d="M 672 723 L 737.81787109375 723" stroke-miterlimit="10"/></g><g transform="translate(-62,-142) scale(1,1)"><g><path fill="none" stroke="none"/><text fill="#000000" stroke="none" font-family="Arial" font-size="13px" font-style="normal" font-weight="bold" text-decoration="none" x="679.408935546875" y="707.5">CallFunc</text></g></g><g transform="translate(-62,-142) scale(1,1)"><rect fill="#C0C0C0" stroke="none" x="519" y="759" width="77.9228515625" height="44" opacity="0.2"/></g><g transform="translate(-62,-142) scale(1,1)"><rect fill="#ffffff" stroke="none" x="512" y="752" width="77.9228515625" height="44"/></g><g transform="translate(-62,-142) scale(1,1)"><path fill="none" stroke="#000000" d="M 512 752 L 589.9228515625 752 L 589.9228515625 796 L 512 796 L 512 752 Z Z" stroke-miterlimit="10"/></g><g transform="translate(-62,-142) scale(1,1)"><path fill="none" stroke="#000000" d="M 512 777 L 589.9228515625 777" stroke-miterlimit="10"/></g><g transform="translate(-62,-142) scale(1,1)"><path fill="none" stroke="#000000" d="M 512 787 L 589.9228515625 787" stroke-miterlimit="10"/></g><g transform="translate(-62,-142) scale(1,1)"><g><path fill="none" stroke="none"/><text fill="#000000" stroke="none" font-family="Arial" font-size="13px" font-style="normal" font-weight="bold" text-decoration="none" x="521.96142578125" y="771.5">Animation</text></g></g><g transform="translate(-62,-142) scale(1,1)"><path fill="none" stroke="#000000" d="M 310 687 L 395 586" stroke-miterlimit="10"/></g><g transform="translate(-62,-142) scale(1,1)"><path fill="#FFFFFF" stroke="none" d="M 388.35392582213024 606.9721171564116 L 395 586 L 375.4709896234221 596.1300421376968"/></g><g transform="translate(-62,-142) scale(1,1)"><path fill="none" stroke="#000000" d="M 388.35392582213024 606.9721171564116 L 395 586 L 375.4709896234221 596.1300421376968 L 388.35392582213024 606.9721171564116" stroke-miterlimit="10"/></g><g transform="translate(-62,-142) scale(1,1)"><path fill="none" stroke="#000000" d="M 392 687 L 414 586" stroke-miterlimit="10"/></g><g transform="translate(-62,-142) scale(1,1)"><path fill="#FFFFFF" stroke="none" d="M 417.9002769292197 607.6515089514656 L 414 586 L 401.4479834626541 604.0678410676593"/></g><g transform="translate(-62,-142) scale(1,1)"><path fill="none" stroke="#000000" d="M 417.9002769292197 607.6515089514656 L 414 586 L 401.4479834626541 604.0678410676593 L 417.9002769292197 607.6515089514656" stroke-miterlimit="10"/></g><g transform="translate(-62,-142) scale(1,1)"><path fill="none" stroke="#000000" d="M 456 687 L 428 586" stroke-miterlimit="10"/></g><g transform="translate(-62,-142) scale(1,1)"><path fill="#FFFFFF" stroke="none" d="M 441.542993720355 603.3374542851718 L 428 586 L 425.3169112036731 607.8357741907867"/></g><g transform="translate(-62,-142) scale(1,1)"><path fill="none" stroke="#000000" d="M 441.542993720355 603.3374542851718 L 428 586 L 425.3169112036731 607.8357741907867 L 441.542993720355 603.3374542851718" stroke-miterlimit="10"/></g><g transform="translate(-62,-142) scale(1,1)"><path fill="none" stroke="#000000" d="M 537 687 L 447 586" stroke-miterlimit="10"/></g><g transform="translate(-62,-142) scale(1,1)"><path fill="#FFFFFF" stroke="none" d="M 466.80766201136396 595.5737414652564 L 447 586 L 454.236474616277 606.7757896390963"/></g><g transform="translate(-62,-142) scale(1,1)"><path fill="none" stroke="#000000" d="M 466.80766201136396 595.5737414652564 L 447 586 L 454.236474616277 606.7757896390963 L 466.80766201136396 595.5737414652564" stroke-miterlimit="10"/></g><g transform="translate(-62,-142) scale(1,1)"><path fill="none" stroke="#000000" d="M 599 690 L 460 586" stroke-miterlimit="10"/></g><g transform="translate(-62,-142) scale(1,1)"><path fill="#FFFFFF" stroke="none" d="M 481.3179772331998 591.4354251613626 L 460 586 L 471.23066027254464 604.9175122530074"/></g><g transform="translate(-62,-142) scale(1,1)"><path fill="none" stroke="#000000" d="M 481.3179772331998 591.4354251613626 L 460 586 L 471.23066027254464 604.9175122530074 L 481.3179772331998 591.4354251613626" stroke-miterlimit="10"/></g><g transform="translate(-62,-142) scale(1,1)"><path fill="none" stroke="#000000" d="M 326 751 L 406 586" stroke-miterlimit="10"/></g><g transform="translate(-62,-142) scale(1,1)"><path fill="#FFFFFF" stroke="none" d="M 404.70815533120833 607.9620385518219 L 406 586 L 389.557021485784 600.6160342631314"/></g><g transform="translate(-62,-142) scale(1,1)"><path fill="none" stroke="#000000" d="M 404.70815533120833 607.9620385518219 L 406 586 L 389.557021485784 600.6160342631314 L 404.70815533120833 607.9620385518219" stroke-miterlimit="10"/></g><g transform="translate(-62,-142) scale(1,1)"><path fill="none" stroke="#000000" d="M 424 751 L 421 586" stroke-miterlimit="10"/></g><g transform="translate(-62,-142) scale(1,1)"><path fill="#FFFFFF" stroke="none" d="M 429.7871350260387 606.1689429081983 L 421 586 L 412.95184646436246 606.4750390638652"/></g><g transform="translate(-62,-142) scale(1,1)"><path fill="none" stroke="#000000" d="M 429.7871350260387 606.1689429081983 L 421 586 L 412.95184646436246 606.4750390638652 L 429.7871350260387 606.1689429081983" stroke-miterlimit="10"/></g><g transform="translate(-62,-142) scale(1,1)"><path fill="none" stroke="#000000" d="M 536 751 L 438 586" stroke-miterlimit="10"/></g><g transform="translate(-62,-142) scale(1,1)"><path fill="#FFFFFF" stroke="none" d="M 455.61787139833723 599.1761378025448 L 438 586 L 441.14077994580896 607.7746527258646"/></g><g transform="translate(-62,-142) scale(1,1)"><path fill="none" stroke="#000000" d="M 455.61787139833723 599.1761378025448 L 438 586 L 441.14077994580896 607.7746527258646 L 455.61787139833723 599.1761378025448" stroke-miterlimit="10"/></g><g transform="translate(-62,-142) scale(1,1)"><path fill="none" stroke="#000000" d="M 671 692 L 465 580" stroke-miterlimit="10"/></g><g transform="translate(-62,-142) scale(1,1)"><path fill="#FFFFFF" stroke="none" d="M 486.8781756449214 582.3120186958521 L 465 580 L 478.8353622604472 597.1050504565814"/></g><g transform="translate(-62,-142) scale(1,1)"><path fill="none" stroke="#000000" d="M 486.8781756449214 582.3120186958521 L 465 580 L 478.8353622604472 597.1050504565814 L 486.8781756449214 582.3120186958521" stroke-miterlimit="10"/></g><g transform="translate(-62,-142) scale(1,1)"><rect fill="#C0C0C0" stroke="none" x="599" y="527" width="106.30322265625" height="57" opacity="0.2"/></g><g transform="translate(-62,-142) scale(1,1)"><rect fill="#ffffff" stroke="none" x="592" y="520" width="106.30322265625" height="57"/></g><g transform="translate(-62,-142) scale(1,1)"><path fill="none" stroke="#000000" d="M 592 520 L 698.30322265625 520 L 698.30322265625 577 L 592 577 L 592 520 Z Z" stroke-miterlimit="10"/></g><g transform="translate(-62,-142) scale(1,1)"><path fill="none" stroke="#000000" d="M 592 545 L 698.30322265625 545" stroke-miterlimit="10"/></g><g transform="translate(-62,-142) scale(1,1)"><path fill="none" stroke="#000000" d="M 592 555 L 698.30322265625 555" stroke-miterlimit="10"/></g><g transform="translate(-62,-142) scale(1,1)"><g><path fill="none" stroke="none"/><text fill="#000000" stroke="none" font-family="Arial" font-size="13px" font-style="normal" font-weight="bold" text-decoration="none" x="610.651611328125" y="539.5">KeyListener</text></g></g><g transform="translate(-62,-142) scale(1,1)"><g><path fill="none" stroke="none"/><text fill="#000000" stroke="none" font-family="Arial" font-size="13px" font-style="normal" font-weight="normal" text-decoration="none" x="597" y="572.5">+void respond()</text></g></g><g transform="translate(-62,-142) scale(1,1)"><rect fill="#C0C0C0" stroke="none" x="751" y="631" width="54.271484375" height="44" opacity="0.2"/></g><g transform="translate(-62,-142) scale(1,1)"><rect fill="#ffffff" stroke="none" x="744" y="624" width="54.271484375" height="44"/></g><g transform="translate(-62,-142) scale(1,1)"><path fill="none" stroke="#000000" d="M 744 624 L 798.271484375 624 L 798.271484375 668 L 744 668 L 744 624 Z Z" stroke-miterlimit="10"/></g><g transform="translate(-62,-142) scale(1,1)"><path fill="none" stroke="#000000" d="M 744 649 L 798.271484375 649" stroke-miterlimit="10"/></g><g transform="translate(-62,-142) scale(1,1)"><path fill="none" stroke="#000000" d="M 744 659 L 798.271484375 659" stroke-miterlimit="10"/></g><g transform="translate(-62,-142) scale(1,1)"><g><path fill="none" stroke="none"/><text fill="#000000" stroke="none" font-family="Arial" font-size="13px" font-style="normal" font-weight="bold" text-decoration="none" x="752.1357421875" y="643.5">Cursor</text></g></g><g transform="translate(-62,-142) scale(1,1)"><path fill="none" stroke="#000000" d="M 743 624 L 684 578" stroke-miterlimit="10"/></g><g transform="translate(-62,-142) scale(1,1)"><path fill="#FFFFFF" stroke="none" d="M 705.2057949351188 583.8578375847824 L 684 578 L 694.8526447197848 597.1368780783629"/></g><g transform="translate(-62,-142) scale(1,1)"><path fill="none" stroke="#000000" d="M 705.2057949351188 583.8578375847824 L 684 578 L 694.8526447197848 597.1368780783629 L 705.2057949351188 583.8578375847824" stroke-miterlimit="10"/></g><g transform="translate(-62,-142) scale(1,1)"><rect fill="#C0C0C0" stroke="none" x="831" y="631" width="89.21533203125" height="44" opacity="0.2"/></g><g transform="translate(-62,-142) scale(1,1)"><rect fill="#ffffff" stroke="none" x="824" y="624" width="89.21533203125" height="44"/></g><g transform="translate(-62,-142) scale(1,1)"><path fill="none" stroke="#000000" d="M 824 624 L 913.21533203125 624 L 913.21533203125 668 L 824 668 L 824 624 Z Z" stroke-miterlimit="10"/></g><g transform="translate(-62,-142) scale(1,1)"><path fill="none" stroke="#000000" d="M 824 649 L 913.21533203125 649" stroke-miterlimit="10"/></g><g transform="translate(-62,-142) scale(1,1)"><path fill="none" stroke="#000000" d="M 824 659 L 913.21533203125 659" stroke-miterlimit="10"/></g><g transform="translate(-62,-142) scale(1,1)"><g><path fill="none" stroke="none"/><text fill="#000000" stroke="none" font-family="Arial" font-size="13px" font-style="normal" font-weight="bold" text-decoration="none" x="834.607666015625" y="643.5">AnimCursor</text></g></g><g transform="translate(-62,-142) scale(1,1)"><path fill="none" stroke="#000000" d="M 823 626 L 699 572" stroke-miterlimit="10"/></g><g transform="translate(-62,-142) scale(1,1)"><path fill="#FFFFFF" stroke="none" d="M 720.996429012052 572.3963719437063 L 699 572 L 714.2735468270437 587.8341014055773"/></g><g transform="translate(-62,-142) scale(1,1)"><path fill="none" stroke="#000000" d="M 720.996429012052 572.3963719437063 L 699 572 L 714.2735468270437 587.8341014055773 L 720.996429012052 572.3963719437063" stroke-miterlimit="10"/></g><g transform="translate(-62,-142) scale(1,1)"><rect fill="#C0C0C0" stroke="none" x="335" y="159" width="178.97119140625" height="87" opacity="0.2"/></g><g transform="translate(-62,-142) scale(1,1)"><rect fill="#ffffff" stroke="none" x="328" y="152" width="178.97119140625" height="87"/></g><g transform="translate(-62,-142) scale(1,1)"><path fill="none" stroke="#000000" d="M 328 152 L 506.97119140625 152 L 506.97119140625 239 L 328 239 L 328 152 Z Z" stroke-miterlimit="10"/></g><g transform="translate(-62,-142) scale(1,1)"><path fill="none" stroke="#000000" d="M 328 177 L 506.97119140625 177" stroke-miterlimit="10"/></g><g transform="translate(-62,-142) scale(1,1)"><path fill="none" stroke="#000000" d="M 328 187 L 506.97119140625 187" stroke-miterlimit="10"/></g><g transform="translate(-62,-142) scale(1,1)"><g><path fill="none" stroke="none"/><text fill="#000000" stroke="none" font-family="Arial" font-size="13px" font-style="normal" font-weight="bold" text-decoration="none" x="394.985595703125" y="171.5">Director</text></g></g><g transform="translate(-62,-142) scale(1,1)"><g><path fill="none" stroke="none"/><text fill="#000000" stroke="none" font-family="Arial" font-size="13px" font-style="normal" font-weight="normal" text-decoration="none" x="333" y="204.5">+void pushScene(Scene*)</text></g></g><g transform="translate(-62,-142) scale(1,1)"><g><path fill="none" stroke="none"/><text fill="#000000" stroke="none" font-family="Arial" font-size="13px" font-style="normal" font-weight="normal" text-decoration="none" x="333" y="219.5">+void popScene()</text></g></g><g transform="translate(-62,-142) scale(1,1)"><g><path fill="none" stroke="none"/><text fill="#000000" stroke="none" font-family="Arial" font-size="13px" font-style="normal" font-weight="normal" text-decoration="none" x="333" y="234.5">+void replaceScene(Scene*)</text></g></g><g transform="translate(-62,-142) scale(1,1)"><path fill="none" stroke="#000000" d="M 210 439 L 359 368" stroke-miterlimit="10"/></g><g transform="translate(-62,-142) scale(1,1)"><path fill="#000000" stroke="none" d="M 351.63646352357836 376.17180093739483 L 359 368 L 348.01485756666926 368.5715292813462 L 339.13953306241444 377.46371243334613"/></g><g transform="translate(-62,-142) scale(1,1)"><path fill="none" stroke="#000000" d="M 351.63646352357836 376.17180093739483 L 359 368 L 348.01485756666926 368.5715292813462 L 339.13953306241444 377.46371243334613 L 351.63646352357836 376.17180093739483" stroke-miterlimit="10"/></g><g transform="translate(-62,-142) scale(1,1)"><path fill="none" stroke="#000000" d="M 422 439 L 421 391" stroke-miterlimit="10"/></g><g transform="translate(-62,-142) scale(1,1)"><path fill="#000000" stroke="none" d="M 425.42028099057944 401.07279087265897 L 421 391 L 417.0030719316576 401.24814939471986 L 421.45823390100037 412.99522724801847"/></g><g transform="translate(-62,-142) scale(1,1)"><path fill="none" stroke="#000000" d="M 425.42028099057944 401.07279087265897 L 421 391 L 417.0030719316576 401.24814939471986 L 421.45823390100037 412.99522724801847 L 425.42028099057944 401.07279087265897" stroke-miterlimit="10"/></g><g transform="translate(-62,-142) scale(1,1)"><path fill="none" stroke="#000000" d="M 602 439 L 481 373" stroke-miterlimit="10"/></g><g transform="translate(-62,-142) scale(1,1)"><path fill="#000000" stroke="none" d="M 491.9375038130825 374.1709015068763 L 481 373 L 487.9060307198706 381.56193551109817 L 500.31370260411643 383.5347468749726"/></g><g transform="translate(-62,-142) scale(1,1)"><path fill="none" stroke="#000000" d="M 491.9375038130825 374.1709015068763 L 481 373 L 487.9060307198706 381.56193551109817 L 500.31370260411643 383.5347468749726 L 491.9375038130825 374.1709015068763" stroke-miterlimit="10"/></g><g transform="translate(-62,-142) scale(1,1)"><path fill="none" stroke="#000000" d="M 743 441 L 481 358" stroke-miterlimit="10"/></g><g transform="translate(-62,-142) scale(1,1)"><path fill="#000000" stroke="none" d="M 491.95943475951805 357.05618341195583 L 481 358 L 489.41686974602914 365.0821115268244 L 501.9727608672947 364.64404256483"/></g><g transform="translate(-62,-142) scale(1,1)"><path fill="none" stroke="#000000" d="M 491.95943475951805 357.05618341195583 L 481 358 L 489.41686974602914 365.0821115268244 L 501.9727608672947 364.64404256483 L 491.95943475951805 357.05618341195583" stroke-miterlimit="10"/></g><g transform="translate(-62,-142) scale(1,1)"><path fill="none" stroke="#000000" d="M 165 519 L 163 485" stroke-miterlimit="10"/></g><g transform="translate(-62,-142) scale(1,1)"><path fill="#FFFFFF" stroke="none" d="M 167.79902651533092 494.8979464792022 L 163 485 L 159.3945191168192 495.3923292673499 L 164.29188448293235 506.9620362098499"/></g><g transform="translate(-62,-142) scale(1,1)"><path fill="none" stroke="#000000" d="M 167.79902651533092 494.8979464792022 L 163 485 L 159.3945191168192 495.3923292673499 L 164.29188448293235 506.9620362098499 L 167.79902651533092 494.8979464792022" stroke-miterlimit="10"/></g><g transform="translate(-62,-142) scale(1,1)"><path fill="none" stroke="#000000" d="M 421 527 L 422 485" stroke-miterlimit="10"/></g><g transform="translate(-62,-142) scale(1,1)"><path fill="#FFFFFF" stroke="none" d="M 425.9664251961348 495.2599937214146 L 422 485 L 417.54977501791245 495.0595972885998 L 421.47633888518163 506.993766822371"/></g><g transform="translate(-62,-142) scale(1,1)"><path fill="none" stroke="#000000" d="M 425.9664251961348 495.2599937214146 L 422 485 L 417.54977501791245 495.0595972885998 L 421.47633888518163 506.993766822371 L 425.9664251961348 495.2599937214146" stroke-miterlimit="10"/></g><g transform="translate(-62,-142) scale(1,1)"><path fill="none" stroke="#000000" d="M 645 519 L 644 485" stroke-miterlimit="10"/></g><g transform="translate(-62,-142) scale(1,1)"><path fill="#FFFFFF" stroke="none" d="M 648.5064712133113 495.03452625705853 L 644 485 L 640.0910747917939 495.2820379165149 L 644.6467791352417 506.9904905982158"/></g><g transform="translate(-62,-142) scale(1,1)"><path fill="none" stroke="#000000" d="M 648.5064712133113 495.03452625705853 L 644 485 L 640.0910747917939 495.2820379165149 L 644.6467791352417 506.9904905982158 L 648.5064712133113 495.03452625705853" stroke-miterlimit="10"/></g><g transform="translate(-62,-142) scale(1,1)"><path fill="none" stroke="#000000" d="M 419 287 L 418 240" stroke-miterlimit="10"/></g><g transform="translate(-62,-142) scale(1,1)"><path fill="#FFFFFF" stroke="none" d="M 422.4247434676047 250.0708314078774 L 418 240 L 414.0076129302576 250.2499192916507 L 418.46797919279265 261.99502206125544"/></g><g transform="translate(-62,-142) scale(1,1)"><path fill="none" stroke="#000000" d="M 422.4247434676047 250.0708314078774 L 418 240 L 414.0076129302576 250.2499192916507 L 418.46797919279265 261.99502206125544 L 422.4247434676047 250.0708314078774" stroke-miterlimit="10"/></g></g></svg>