<svg version="1.1" xmlns="http://www.w3.org/2000/svg" xmlns:xlink="http://www.w3.org/1999/xlink" width="874.6865234375" height="380"><defs/><g><g transform="translate(-422,-142) scale(1,1)"><rect fill="#C0C0C0" stroke="none" x="647" y="447" width="230.67919921875" height="72" opacity="0.2"/></g><g transform="translate(-422,-142) scale(1,1)"><rect fill="#ffffff" stroke="none" x="640" y="440" width="230.67919921875" height="72"/></g><g transform="translate(-422,-142) scale(1,1)"><path fill="none" stroke="#000000" d="M 640 440 L 870.67919921875 440 L 870.67919921875 512 L 640 512 L 640 440 Z Z" stroke-miterlimit="10"/></g><g transform="translate(-422,-142) scale(1,1)"><path fill="none" stroke="#000000" d="M 640 465 L 870.67919921875 465" stroke-miterlimit="10"/></g><g transform="translate(-422,-142) scale(1,1)"><path fill="none" stroke="#000000" d="M 640 475 L 870.67919921875 475" stroke-miterlimit="10"/></g><g transform="translate(-422,-142) scale(1,1)"><g><path fill="none" stroke="none"/><text fill="#000000" stroke="none" font-family="Arial" font-size="13px" font-style="normal" font-weight="bold" text-decoration="none" x="738.339599609375" y="459.5">Sprite</text></g></g><g transform="translate(-422,-142) scale(1,1)"><g><path fill="none" stroke="none"/><text fill="#000000" stroke="none" font-family="Arial" font-size="13px" font-style="normal" font-weight="normal" text-decoration="none" x="645" y="492.5">+static Sprite* create(const string&amp;)</text></g></g><g transform="translate(-422,-142) scale(1,1)"><g><path fill="none" stroke="none"/><text fill="#000000" stroke="none" font-family="Arial" font-size="13px" font-style="normal" font-weight="normal" text-decoration="none" x="645" y="507.5">+Sprite()</text></g></g><g transform="translate(-422,-142) scale(1,1)"><rect fill="#C0C0C0" stroke="none" x="919" y="447" width="263.61083984375" height="72" opacity="0.2"/></g><g transform="translate(-422,-142) scale(1,1)"><rect fill="#ffffff" stroke="none" x="912" y="440" width="263.61083984375" height="72"/></g><g transform="translate(-422,-142) scale(1,1)"><path fill="none" stroke="#000000" d="M 912 440 L 1175.61083984375 440 L 1175.61083984375 512 L 912 512 L 912 440 Z Z" stroke-miterlimit="10"/></g><g transform="translate(-422,-142) scale(1,1)"><path fill="none" stroke="#000000" d="M 912 465 L 1175.61083984375 465" stroke-miterlimit="10"/></g><g transform="translate(-422,-142) scale(1,1)"><path fill="none" stroke="#000000" d="M 912 475 L 1175.61083984375 475" stroke-miterlimit="10"/></g><g transform="translate(-422,-142) scale(1,1)"><g><path fill="none" stroke="none"/><text fill="#000000" stroke="none" font-family="Arial" font-size="13px" font-style="normal" font-weight="bold" text-decoration="none" x="1011.805419921875" y="459.5">AnimSprite</text></g></g><g transform="translate(-422,-142) scale(1,1)"><g><path fill="none" stroke="none"/><text fill="#000000" stroke="none" font-family="Arial" font-size="13px" font-style="normal" font-weight="normal" text-decoration="none" x="917" y="492.5">+static AnimSprite* create(const string&amp;)</text></g></g><g transform="translate(-422,-142) scale(1,1)"><g><path fill="none" stroke="none"/><text fill="#000000" stroke="none" font-family="Arial" font-size="13px" font-style="normal" font-weight="normal" text-decoration="none" x="917" y="507.5">+void displayImage(int)</text></g></g><g transform="translate(-422,-142) scale(1,1)"><path fill="none" stroke="#000000" d="M 1040 439 L 1018 197" stroke-miterlimit="10"/></g><g transform="translate(-422,-142) scale(1,1)"><path fill="#FFFFFF" stroke="none" d="M 1028.224630971488 216.4796540394558 L 1018 197 L 1011.4557104286021 218.00410136153636"/></g><g transform="translate(-422,-142) scale(1,1)"><path fill="none" stroke="#000000" d="M 1028.224630971488 216.4796540394558 L 1018 197 L 1011.4557104286021 218.00410136153636 L 1028.224630971488 216.4796540394558" stroke-miterlimit="10"/></g><g transform="translate(-422,-142) scale(1,1)"><rect fill="#C0C0C0" stroke="none" x="975" y="159" width="97.79736328125" height="44" opacity="0.2"/></g><g transform="translate(-422,-142) scale(1,1)"><rect fill="#ffffff" stroke="none" x="968" y="152" width="97.79736328125" height="44"/></g><g transform="translate(-422,-142) scale(1,1)"><path fill="none" stroke="#000000" d="M 968 152 L 1065.79736328125 152 L 1065.79736328125 196 L 968 196 L 968 152 Z Z" stroke-miterlimit="10"/></g><g transform="translate(-422,-142) scale(1,1)"><path fill="none" stroke="#000000" d="M 968 177 L 1065.79736328125 177" stroke-miterlimit="10"/></g><g transform="translate(-422,-142) scale(1,1)"><path fill="none" stroke="#000000" d="M 968 187 L 1065.79736328125 187" stroke-miterlimit="10"/></g><g transform="translate(-422,-142) scale(1,1)"><g><path fill="none" stroke="none"/><text fill="#000000" stroke="none" font-family="Arial" font-size="13px" font-style="normal" font-weight="bold" text-decoration="none" x="978.398681640625" y="171.5">VisibleObject</text></g></g><g transform="translate(-422,-142) scale(1,1)"><path fill="none" stroke="#000000" d="M 787 439 L 996 197" stroke-miterlimit="10"/></g><g transform="translate(-422,-142) scale(1,1)"><path fill="#FFFFFF" stroke="none" d="M 989.0866673331118 217.88554120526774 L 996 197 L 976.343227775649 206.87984340564077"/></g><g transform="translate(-422,-142) scale(1,1)"><path fill="none" stroke="#000000" d="M 989.0866673331118 217.88554120526774 L 996 197 L 976.343227775649 206.87984340564077 L 989.0866673331118 217.88554120526774" stroke-miterlimit="10"/></g><g transform="translate(-422,-142) scale(1,1)"><rect fill="#C0C0C0" stroke="none" x="1223" y="463" width="70.6865234375" height="44" opacity="0.2"/></g><g transform="translate(-422,-142) scale(1,1)"><rect fill="#ffffff" stroke="none" x="1216" y="456" width="70.6865234375" height="44"/></g><g transform="translate(-422,-142) scale(1,1)"><path fill="none" stroke="#000000" d="M 1216 456 L 1286.6865234375 456 L 1286.6865234375 500 L 1216 500 L 1216 456 Z Z" stroke-miterlimit="10"/></g><g transform="translate(-422,-142) scale(1,1)"><path fill="none" stroke="#000000" d="M 1216 481 L 1286.6865234375 481" stroke-miterlimit="10"/></g><g transform="translate(-422,-142) scale(1,1)"><path fill="none" stroke="#000000" d="M 1216 491 L 1286.6865234375 491" stroke-miterlimit="10"/></g><g transform="translate(-422,-142) scale(1,1)"><g><path fill="none" stroke="none"/><text fill="#000000" stroke="none" font-family="Arial" font-size="13px" font-style="normal" font-weight="bold" text-decoration="none" x="1224.34326171875" y="475.5">TextField</text></g></g><g transform="translate(-422,-142) scale(1,1)"><path fill="none" stroke="#000000" d="M 1233 455 L 1034 197" stroke-miterlimit="10"/></g><g transform="translate(-422,-142) scale(1,1)"><path fill="#FFFFFF" stroke="none" d="M 1053.080076378111 207.95220002581428 L 1034 197 L 1039.7472764853549 218.2360262996844"/></g><g transform="translate(-422,-142) scale(1,1)"><path fill="none" stroke="#000000" d="M 1053.080076378111 207.95220002581428 L 1034 197 L 1039.7472764853549 218.2360262996844 L 1053.080076378111 207.95220002581428" stroke-miterlimit="10"/></g><g transform="translate(-422,-142) scale(1,1)"><rect fill="#C0C0C0" stroke="none" x="439" y="319" width="294.60009765625" height="72" opacity="0.2"/></g><g transform="translate(-422,-142) scale(1,1)"><rect fill="#ffffff" stroke="none" x="432" y="312" width="294.60009765625" height="72"/></g><g transform="translate(-422,-142) scale(1,1)"><path fill="none" stroke="#000000" d="M 432 312 L 726.60009765625 312 L 726.60009765625 384 L 432 384 L 432 312 Z Z" stroke-miterlimit="10"/></g><g transform="translate(-422,-142) scale(1,1)"><path fill="none" stroke="#000000" d="M 432 337 L 726.60009765625 337" stroke-miterlimit="10"/></g><g transform="translate(-422,-142) scale(1,1)"><path fill="none" stroke="#000000" d="M 432 347 L 726.60009765625 347" stroke-miterlimit="10"/></g><g transform="translate(-422,-142) scale(1,1)"><g><path fill="none" stroke="none"/><text fill="#000000" stroke="none" font-family="Arial" font-size="13px" font-style="normal" font-weight="bold" text-decoration="none" x="541.800048828125" y="331.5">ImageLoader</text></g></g><g transform="translate(-422,-142) scale(1,1)"><g><path fill="none" stroke="none"/><text fill="#000000" stroke="none" font-family="Arial" font-size="13px" font-style="normal" font-weight="normal" text-decoration="none" x="437" y="364.5">+static Image load(const string&amp;)</text></g></g><g transform="translate(-422,-142) scale(1,1)"><g><path fill="none" stroke="none"/><text fill="#000000" stroke="none" font-family="Arial" font-size="13px" font-style="normal" font-weight="normal" text-decoration="none" x="437" y="379.5">+static vector_Image loadBatch(const string&amp;)</text></g></g><g transform="translate(-422,-142) scale(1,1)"><path fill="none" stroke="#000000" d="M 704 439 L 630 385" stroke-miterlimit="10"/></g><g transform="translate(-422,-142) scale(1,1)"><path fill="#FFFFFF" stroke="none" d="M 693.3093027269374 436.4098278405223 L 704 439 L 698.2720637610122 429.6090071641977 L 686.2285991470974 426.0316804586927"/></g><g transform="translate(-422,-142) scale(1,1)"><path fill="none" stroke="#000000" d="M 693.3093027269374 436.4098278405223 L 704 439 L 698.2720637610122 429.6090071641977 L 686.2285991470974 426.0316804586927 L 693.3093027269374 436.4098278405223" stroke-miterlimit="10"/></g><g transform="translate(-422,-142) scale(1,1)"><path fill="none" stroke="#000000" d="M 713 385 L 911 440" stroke-miterlimit="10"/></g><g transform="translate(-422,-142) scale(1,1)"><path fill="#FFFFFF" stroke="none" d="M 900.081429168037 441.3359681835303 L 911 440 L 902.3347323618295 433.22407668587704 L 889.8026059881413 434.1118349967059"/></g><g transform="translate(-422,-142) scale(1,1)"><path fill="none" stroke="#000000" d="M 900.081429168037 441.3359681835303 L 911 440 L 902.3347323618295 433.22407668587704 L 889.8026059881413 434.1118349967059 L 900.081429168037 441.3359681835303" stroke-miterlimit="10"/></g></g></svg>