<svg version="1.1" xmlns="http://www.w3.org/2000/svg" xmlns:xlink="http://www.w3.org/1999/xlink" width="986.6865234375" height="684"><defs/><g><g transform="translate(-334,-190) scale(1,1)"><rect fill="#C0C0C0" stroke="none" x="671" y="615" width="230.67919921875" height="72" opacity="0.2"/></g><g transform="translate(-334,-190) scale(1,1)"><rect fill="#ffffff" stroke="none" x="664" y="608" width="230.67919921875" height="72"/></g><g transform="translate(-334,-190) scale(1,1)"><path fill="none" stroke="#000000" d="M 664 608 L 894.67919921875 608 L 894.67919921875 680 L 664 680 L 664 608 Z Z" stroke-miterlimit="10"/></g><g transform="translate(-334,-190) scale(1,1)"><path fill="none" stroke="#000000" d="M 664 633 L 894.67919921875 633" stroke-miterlimit="10"/></g><g transform="translate(-334,-190) scale(1,1)"><path fill="none" stroke="#000000" d="M 664 643 L 894.67919921875 643" stroke-miterlimit="10"/></g><g transform="translate(-334,-190) scale(1,1)"><g><path fill="none" stroke="none"/><text fill="#000000" stroke="none" font-family="Arial" font-size="13px" font-style="normal" font-weight="bold" text-decoration="none" x="762.339599609375" y="627.5">Sprite</text></g></g><g transform="translate(-334,-190) scale(1,1)"><g><path fill="none" stroke="none"/><text fill="#000000" stroke="none" font-family="Arial" font-size="13px" font-style="normal" font-weight="normal" text-decoration="none" x="669" y="660.5">+static Sprite* create(const string&amp;)</text></g></g><g transform="translate(-334,-190) scale(1,1)"><g><path fill="none" stroke="none"/><text fill="#000000" stroke="none" font-family="Arial" font-size="13px" font-style="normal" font-weight="normal" text-decoration="none" x="669" y="675.5">+Sprite()</text></g></g><g transform="translate(-334,-190) scale(1,1)"><rect fill="#C0C0C0" stroke="none" x="663" y="799" width="263.61083984375" height="72" opacity="0.2"/></g><g transform="translate(-334,-190) scale(1,1)"><rect fill="#ffffff" stroke="none" x="656" y="792" width="263.61083984375" height="72"/></g><g transform="translate(-334,-190) scale(1,1)"><path fill="none" stroke="#000000" d="M 656 792 L 919.61083984375 792 L 919.61083984375 864 L 656 864 L 656 792 Z Z" stroke-miterlimit="10"/></g><g transform="translate(-334,-190) scale(1,1)"><path fill="none" stroke="#000000" d="M 656 817 L 919.61083984375 817" stroke-miterlimit="10"/></g><g transform="translate(-334,-190) scale(1,1)"><path fill="none" stroke="#000000" d="M 656 827 L 919.61083984375 827" stroke-miterlimit="10"/></g><g transform="translate(-334,-190) scale(1,1)"><g><path fill="none" stroke="none"/><text fill="#000000" stroke="none" font-family="Arial" font-size="13px" font-style="normal" font-weight="bold" text-decoration="none" x="755.805419921875" y="811.5">AnimSprite</text></g></g><g transform="translate(-334,-190) scale(1,1)"><g><path fill="none" stroke="none"/><text fill="#000000" stroke="none" font-family="Arial" font-size="13px" font-style="normal" font-weight="normal" text-decoration="none" x="661" y="844.5">+static AnimSprite* create(const string&amp;)</text></g></g><g transform="translate(-334,-190) scale(1,1)"><g><path fill="none" stroke="none"/><text fill="#000000" stroke="none" font-family="Arial" font-size="13px" font-style="normal" font-weight="normal" text-decoration="none" x="661" y="859.5">+void displayImage(int)</text></g></g><g transform="translate(-334,-190) scale(1,1)"><path fill="none" stroke="#000000" d="M 785 791 L 781 681" stroke-miterlimit="10"/></g><g transform="translate(-334,-190) scale(1,1)"><path fill="#FFFFFF" stroke="none" d="M 790.1520901683334 701.0059802446842 L 781 681 L 773.3251407247591 701.6178693153596"/></g><g transform="translate(-334,-190) scale(1,1)"><path fill="none" stroke="#000000" d="M 790.1520901683334 701.0059802446842 L 781 681 L 773.3251407247591 701.6178693153596 L 790.1520901683334 701.0059802446842" stroke-miterlimit="10"/></g><g transform="translate(-334,-190) scale(1,1)"><rect fill="#C0C0C0" stroke="none" x="999" y="327" width="97.79736328125" height="44" opacity="0.2"/></g><g transform="translate(-334,-190) scale(1,1)"><rect fill="#ffffff" stroke="none" x="992" y="320" width="97.79736328125" height="44"/></g><g transform="translate(-334,-190) scale(1,1)"><path fill="none" stroke="#000000" d="M 992 320 L 1089.79736328125 320 L 1089.79736328125 364 L 992 364 L 992 320 Z Z" stroke-miterlimit="10"/></g><g transform="translate(-334,-190) scale(1,1)"><path fill="none" stroke="#000000" d="M 992 345 L 1089.79736328125 345" stroke-miterlimit="10"/></g><g transform="translate(-334,-190) scale(1,1)"><path fill="none" stroke="#000000" d="M 992 355 L 1089.79736328125 355" stroke-miterlimit="10"/></g><g transform="translate(-334,-190) scale(1,1)"><g><path fill="none" stroke="none"/><text fill="#000000" stroke="none" font-family="Arial" font-size="13px" font-style="normal" font-weight="bold" text-decoration="none" x="1025.898681640625" y="339.5">Node</text></g></g><g transform="translate(-334,-190) scale(1,1)"><path fill="none" stroke="#000000" d="M 811 607 L 1020 365" stroke-miterlimit="10"/></g><g transform="translate(-334,-190) scale(1,1)"><path fill="#FFFFFF" stroke="none" d="M 1013.0866673331118 385.88554120526777 L 1020 365 L 1000.343227775649 374.87984340564077"/></g><g transform="translate(-334,-190) scale(1,1)"><path fill="none" stroke="#000000" d="M 1013.0866673331118 385.88554120526777 L 1020 365 L 1000.343227775649 374.87984340564077 L 1013.0866673331118 385.88554120526777" stroke-miterlimit="10"/></g><g transform="translate(-334,-190) scale(1,1)"><rect fill="#C0C0C0" stroke="none" x="1247" y="631" width="70.6865234375" height="44" opacity="0.2"/></g><g transform="translate(-334,-190) scale(1,1)"><rect fill="#ffffff" stroke="none" x="1240" y="624" width="70.6865234375" height="44"/></g><g transform="translate(-334,-190) scale(1,1)"><path fill="none" stroke="#000000" d="M 1240 624 L 1310.6865234375 624 L 1310.6865234375 668 L 1240 668 L 1240 624 Z Z" stroke-miterlimit="10"/></g><g transform="translate(-334,-190) scale(1,1)"><path fill="none" stroke="#000000" d="M 1240 649 L 1310.6865234375 649" stroke-miterlimit="10"/></g><g transform="translate(-334,-190) scale(1,1)"><path fill="none" stroke="#000000" d="M 1240 659 L 1310.6865234375 659" stroke-miterlimit="10"/></g><g transform="translate(-334,-190) scale(1,1)"><g><path fill="none" stroke="none"/><text fill="#000000" stroke="none" font-family="Arial" font-size="13px" font-style="normal" font-weight="bold" text-decoration="none" x="1248.34326171875" y="643.5">TextField</text></g></g><g transform="translate(-334,-190) scale(1,1)"><path fill="none" stroke="#000000" d="M 1257 623 L 1058 365" stroke-miterlimit="10"/></g><g transform="translate(-334,-190) scale(1,1)"><path fill="#FFFFFF" stroke="none" d="M 1077.080076378111 375.95220002581425 L 1058 365 L 1063.7472764853549 386.2360262996844"/></g><g transform="translate(-334,-190) scale(1,1)"><path fill="none" stroke="#000000" d="M 1077.080076378111 375.95220002581425 L 1058 365 L 1063.7472764853549 386.2360262996844 L 1077.080076378111 375.95220002581425" stroke-miterlimit="10"/></g><g transform="translate(-334,-190) scale(1,1)"><rect fill="#C0C0C0" stroke="none" x="351" y="487" width="294.60009765625" height="72" opacity="0.2"/></g><g transform="translate(-334,-190) scale(1,1)"><rect fill="#ffffff" stroke="none" x="344" y="480" width="294.60009765625" height="72"/></g><g transform="translate(-334,-190) scale(1,1)"><path fill="none" stroke="#000000" d="M 344 480 L 638.60009765625 480 L 638.60009765625 552 L 344 552 L 344 480 Z Z" stroke-miterlimit="10"/></g><g transform="translate(-334,-190) scale(1,1)"><path fill="none" stroke="#000000" d="M 344 505 L 638.60009765625 505" stroke-miterlimit="10"/></g><g transform="translate(-334,-190) scale(1,1)"><path fill="none" stroke="#000000" d="M 344 515 L 638.60009765625 515" stroke-miterlimit="10"/></g><g transform="translate(-334,-190) scale(1,1)"><g><path fill="none" stroke="none"/><text fill="#000000" stroke="none" font-family="Arial" font-size="13px" font-style="normal" font-weight="bold" text-decoration="none" x="453.800048828125" y="499.5">ImageLoader</text></g></g><g transform="translate(-334,-190) scale(1,1)"><g><path fill="none" stroke="none"/><text fill="#000000" stroke="none" font-family="Arial" font-size="13px" font-style="normal" font-weight="normal" text-decoration="none" x="349" y="532.5">+static Image load(const string&amp;)</text></g></g><g transform="translate(-334,-190) scale(1,1)"><g><path fill="none" stroke="none"/><text fill="#000000" stroke="none" font-family="Arial" font-size="13px" font-style="normal" font-weight="normal" text-decoration="none" x="349" y="547.5">+static vector_Image loadBatch(const string&amp;)</text></g></g><g transform="translate(-334,-190) scale(1,1)"><path fill="none" stroke="#000000" d="M 696 607 L 574 553" stroke-miterlimit="10"/></g><g transform="translate(-334,-190) scale(1,1)"><path fill="#FFFFFF" stroke="none" d="M 685.0031686871806 606.7359903838948 L 696 607 L 688.4107489969874 599.0373830172944 L 675.8825694673511 598.0955635347292"/></g><g transform="translate(-334,-190) scale(1,1)"><path fill="none" stroke="#000000" d="M 685.0031686871806 606.7359903838948 L 696 607 L 688.4107489969874 599.0373830172944 L 675.8825694673511 598.0955635347292 L 685.0031686871806 606.7359903838948" stroke-miterlimit="10"/></g><g transform="translate(-334,-190) scale(1,1)"><path fill="none" stroke="#000000" d="M 526 553 L 752 791" stroke-miterlimit="10"/></g><g transform="translate(-334,-190) scale(1,1)"><path fill="#FFFFFF" stroke="none" d="M 741.9495525229336 786.5291493526703 L 752 791 L 748.0546292454062 780.731891624608 L 736.8510355093409 775.0466657133767"/></g><g transform="translate(-334,-190) scale(1,1)"><path fill="none" stroke="#000000" d="M 741.9495525229336 786.5291493526703 L 752 791 L 748.0546292454062 780.731891624608 L 736.8510355093409 775.0466657133767 L 741.9495525229336 786.5291493526703" stroke-miterlimit="10"/></g><g transform="translate(-334,-190) scale(1,1)"><rect fill="#C0C0C0" stroke="none" x="999" y="207" width="92" height="44" opacity="0.2"/></g><g transform="translate(-334,-190) scale(1,1)"><rect fill="#ffffff" stroke="none" x="992" y="200" width="92" height="44"/></g><g transform="translate(-334,-190) scale(1,1)"><path fill="none" stroke="#000000" d="M 992 200 L 1084 200 L 1084 244 L 992 244 L 992 200 Z Z" stroke-miterlimit="10"/></g><g transform="translate(-334,-190) scale(1,1)"><path fill="none" stroke="#000000" d="M 992 225 L 1084 225" stroke-miterlimit="10"/></g><g transform="translate(-334,-190) scale(1,1)"><path fill="none" stroke="#000000" d="M 992 235 L 1084 235" stroke-miterlimit="10"/></g><g transform="translate(-334,-190) scale(1,1)"><g><path fill="none" stroke="none"/><text fill="#000000" stroke="none" font-family="Arial" font-size="13px" font-style="normal" font-weight="bold" text-decoration="none" x="999.5" y="219.5">VisibleObject</text></g></g><g transform="translate(-334,-190) scale(1,1)"><path fill="none" stroke="#000000" d="M 1040 319 L 1038 245" stroke-miterlimit="10"/></g><g transform="translate(-334,-190) scale(1,1)"><path fill="#FFFFFF" stroke="none" d="M 1046.9650955631382 265.09047190943505 L 1038 245 L 1030.1331709422811 265.54538879107986"/></g><g transform="translate(-334,-190) scale(1,1)"><path fill="none" stroke="#000000" d="M 1046.9650955631382 265.09047190943505 L 1038 245 L 1030.1331709422811 265.54538879107986 L 1046.9650955631382 265.09047190943505" stroke-miterlimit="10"/></g><g transform="translate(-334,-190) scale(1,1)"><rect fill="#C0C0C0" stroke="none" x="775" y="207" width="50" height="44" opacity="0.2"/></g><g transform="translate(-334,-190) scale(1,1)"><rect fill="#ffffff" stroke="none" x="768" y="200" width="50" height="44"/></g><g transform="translate(-334,-190) scale(1,1)"><path fill="none" stroke="#000000" d="M 768 200 L 818 200 L 818 244 L 768 244 L 768 200 Z Z" stroke-miterlimit="10"/></g><g transform="translate(-334,-190) scale(1,1)"><path fill="none" stroke="#000000" d="M 768 225 L 818 225" stroke-miterlimit="10"/></g><g transform="translate(-334,-190) scale(1,1)"><path fill="none" stroke="#000000" d="M 768 235 L 818 235" stroke-miterlimit="10"/></g><g transform="translate(-334,-190) scale(1,1)"><g><path fill="none" stroke="none"/><text fill="#000000" stroke="none" font-family="Arial" font-size="13px" font-style="normal" font-weight="bold" text-decoration="none" x="775" y="219.5">Image</text></g></g><g transform="translate(-334,-190) scale(1,1)"><path fill="none" stroke="#000000" d="M 991 222 L 819 222" stroke-miterlimit="10"/></g><g transform="translate(-334,-190) scale(1,1)"><path fill="#000000" stroke="none" d="M 829.1626748576241 217.790482243984 L 819 222 L 829.1626748576241 226.209517756016 L 841 222"/></g><g transform="translate(-334,-190) scale(1,1)"><path fill="none" stroke="#000000" d="M 829.1626748576241 217.790482243984 L 819 222 L 829.1626748576241 226.209517756016 L 841 222 L 829.1626748576241 217.790482243984" stroke-miterlimit="10"/></g><g transform="translate(-334,-190) scale(1,1)"><rect fill="#C0C0C0" stroke="none" x="767" y="327" width="69" height="44" opacity="0.2"/></g><g transform="translate(-334,-190) scale(1,1)"><rect fill="#ffffff" stroke="none" x="760" y="320" width="69" height="44"/></g><g transform="translate(-334,-190) scale(1,1)"><path fill="none" stroke="#000000" d="M 760 320 L 829 320 L 829 364 L 760 364 L 760 320 Z Z" stroke-miterlimit="10"/></g><g transform="translate(-334,-190) scale(1,1)"><path fill="none" stroke="#000000" d="M 760 345 L 829 345" stroke-miterlimit="10"/></g><g transform="translate(-334,-190) scale(1,1)"><path fill="none" stroke="#000000" d="M 760 355 L 829 355" stroke-miterlimit="10"/></g><g transform="translate(-334,-190) scale(1,1)"><g><path fill="none" stroke="none"/><text fill="#000000" stroke="none" font-family="Arial" font-size="13px" font-style="normal" font-weight="bold" text-decoration="none" x="766" y="339.5">Geometry</text></g></g><g transform="translate(-334,-190) scale(1,1)"><path fill="none" stroke="#000000" d="M 794 319 L 793 245" stroke-miterlimit="10" stroke-dasharray="3"/></g><g transform="translate(-334,-190) scale(1,1)"><path fill="none" stroke="#000000" d="M 797.3464543541705 255.10486687428946 L 793 245 L 788.9281874581544 255.21862723774913" stroke-miterlimit="10"/></g></g></svg>