<svg version="1.1" xmlns="http://www.w3.org/2000/svg" xmlns:xlink="http://www.w3.org/1999/xlink" width="986.6865234375" height="684"><defs/><g><g transform="translate(-310,-22) scale(1,1)"><rect fill="#C0C0C0" stroke="none" x="647" y="447" width="230.67919921875" height="72" opacity="0.2"/></g><g transform="translate(-310,-22) scale(1,1)"><rect fill="#ffffff" stroke="none" x="640" y="440" width="230.67919921875" height="72"/></g><g transform="translate(-310,-22) scale(1,1)"><path fill="none" stroke="#000000" d="M 640 440 L 870.67919921875 440 L 870.67919921875 512 L 640 512 L 640 440 Z Z" stroke-miterlimit="10"/></g><g transform="translate(-310,-22) scale(1,1)"><path fill="none" stroke="#000000" d="M 640 465 L 870.67919921875 465" stroke-miterlimit="10"/></g><g transform="translate(-310,-22) scale(1,1)"><path fill="none" stroke="#000000" d="M 640 475 L 870.67919921875 475" stroke-miterlimit="10"/></g><g transform="translate(-310,-22) scale(1,1)"><g><path fill="none" stroke="none"/><text fill="#000000" stroke="none" font-family="Arial" font-size="13px" font-style="normal" font-weight="bold" text-decoration="none" x="738.339599609375" y="459.5">Sprite</text></g></g><g transform="translate(-310,-22) scale(1,1)"><g><path fill="none" stroke="none"/><text fill="#000000" stroke="none" font-family="Arial" font-size="13px" font-style="normal" font-weight="normal" text-decoration="none" x="645" y="492.5">+static Sprite* create(const string&amp;)</text></g></g><g transform="translate(-310,-22) scale(1,1)"><g><path fill="none" stroke="none"/><text fill="#000000" stroke="none" font-family="Arial" font-size="13px" font-style="normal" font-weight="normal" text-decoration="none" x="645" y="507.5">+Sprite()</text></g></g><g transform="translate(-310,-22) scale(1,1)"><rect fill="#C0C0C0" stroke="none" x="639" y="631" width="263.61083984375" height="72" opacity="0.2"/></g><g transform="translate(-310,-22) scale(1,1)"><rect fill="#ffffff" stroke="none" x="632" y="624" width="263.61083984375" height="72"/></g><g transform="translate(-310,-22) scale(1,1)"><path fill="none" stroke="#000000" d="M 632 624 L 895.61083984375 624 L 895.61083984375 696 L 632 696 L 632 624 Z Z" stroke-miterlimit="10"/></g><g transform="translate(-310,-22) scale(1,1)"><path fill="none" stroke="#000000" d="M 632 649 L 895.61083984375 649" stroke-miterlimit="10"/></g><g transform="translate(-310,-22) scale(1,1)"><path fill="none" stroke="#000000" d="M 632 659 L 895.61083984375 659" stroke-miterlimit="10"/></g><g transform="translate(-310,-22) scale(1,1)"><g><path fill="none" stroke="none"/><text fill="#000000" stroke="none" font-family="Arial" font-size="13px" font-style="normal" font-weight="bold" text-decoration="none" x="731.805419921875" y="643.5">AnimSprite</text></g></g><g transform="translate(-310,-22) scale(1,1)"><g><path fill="none" stroke="none"/><text fill="#000000" stroke="none" font-family="Arial" font-size="13px" font-style="normal" font-weight="normal" text-decoration="none" x="637" y="676.5">+static AnimSprite* create(const string&amp;)</text></g></g><g transform="translate(-310,-22) scale(1,1)"><g><path fill="none" stroke="none"/><text fill="#000000" stroke="none" font-family="Arial" font-size="13px" font-style="normal" font-weight="normal" text-decoration="none" x="637" y="691.5">+void displayImage(int)</text></g></g><g transform="translate(-310,-22) scale(1,1)"><path fill="none" stroke="#000000" d="M 761 623 L 757 513" stroke-miterlimit="10"/></g><g transform="translate(-310,-22) scale(1,1)"><path fill="#FFFFFF" stroke="none" d="M 766.1520901683334 533.0059802446842 L 757 513 L 749.3251407247591 533.6178693153596"/></g><g transform="translate(-310,-22) scale(1,1)"><path fill="none" stroke="#000000" d="M 766.1520901683334 533.0059802446842 L 757 513 L 749.3251407247591 533.6178693153596 L 766.1520901683334 533.0059802446842" stroke-miterlimit="10"/></g><g transform="translate(-310,-22) scale(1,1)"><rect fill="#C0C0C0" stroke="none" x="975" y="159" width="97.79736328125" height="44" opacity="0.2"/></g><g transform="translate(-310,-22) scale(1,1)"><rect fill="#ffffff" stroke="none" x="968" y="152" width="97.79736328125" height="44"/></g><g transform="translate(-310,-22) scale(1,1)"><path fill="none" stroke="#000000" d="M 968 152 L 1065.79736328125 152 L 1065.79736328125 196 L 968 196 L 968 152 Z Z" stroke-miterlimit="10"/></g><g transform="translate(-310,-22) scale(1,1)"><path fill="none" stroke="#000000" d="M 968 177 L 1065.79736328125 177" stroke-miterlimit="10"/></g><g transform="translate(-310,-22) scale(1,1)"><path fill="none" stroke="#000000" d="M 968 187 L 1065.79736328125 187" stroke-miterlimit="10"/></g><g transform="translate(-310,-22) scale(1,1)"><g><path fill="none" stroke="none"/><text fill="#000000" stroke="none" font-family="Arial" font-size="13px" font-style="normal" font-weight="bold" text-decoration="none" x="1001.898681640625" y="171.5">Node</text></g></g><g transform="translate(-310,-22) scale(1,1)"><path fill="none" stroke="#000000" d="M 787 439 L 996 197" stroke-miterlimit="10"/></g><g transform="translate(-310,-22) scale(1,1)"><path fill="#FFFFFF" stroke="none" d="M 989.0866673331118 217.88554120526774 L 996 197 L 976.343227775649 206.87984340564077"/></g><g transform="translate(-310,-22) scale(1,1)"><path fill="none" stroke="#000000" d="M 989.0866673331118 217.88554120526774 L 996 197 L 976.343227775649 206.87984340564077 L 989.0866673331118 217.88554120526774" stroke-miterlimit="10"/></g><g transform="translate(-310,-22) scale(1,1)"><rect fill="#C0C0C0" stroke="none" x="1223" y="463" width="70.6865234375" height="44" opacity="0.2"/></g><g transform="translate(-310,-22) scale(1,1)"><rect fill="#ffffff" stroke="none" x="1216" y="456" width="70.6865234375" height="44"/></g><g transform="translate(-310,-22) scale(1,1)"><path fill="none" stroke="#000000" d="M 1216 456 L 1286.6865234375 456 L 1286.6865234375 500 L 1216 500 L 1216 456 Z Z" stroke-miterlimit="10"/></g><g transform="translate(-310,-22) scale(1,1)"><path fill="none" stroke="#000000" d="M 1216 481 L 1286.6865234375 481" stroke-miterlimit="10"/></g><g transform="translate(-310,-22) scale(1,1)"><path fill="none" stroke="#000000" d="M 1216 491 L 1286.6865234375 491" stroke-miterlimit="10"/></g><g transform="translate(-310,-22) scale(1,1)"><g><path fill="none" stroke="none"/><text fill="#000000" stroke="none" font-family="Arial" font-size="13px" font-style="normal" font-weight="bold" text-decoration="none" x="1224.34326171875" y="475.5">TextField</text></g></g><g transform="translate(-310,-22) scale(1,1)"><path fill="none" stroke="#000000" d="M 1233 455 L 1034 197" stroke-miterlimit="10"/></g><g transform="translate(-310,-22) scale(1,1)"><path fill="#FFFFFF" stroke="none" d="M 1053.080076378111 207.95220002581428 L 1034 197 L 1039.7472764853549 218.2360262996844"/></g><g transform="translate(-310,-22) scale(1,1)"><path fill="none" stroke="#000000" d="M 1053.080076378111 207.95220002581428 L 1034 197 L 1039.7472764853549 218.2360262996844 L 1053.080076378111 207.95220002581428" stroke-miterlimit="10"/></g><g transform="translate(-310,-22) scale(1,1)"><rect fill="#C0C0C0" stroke="none" x="327" y="319" width="294.60009765625" height="72" opacity="0.2"/></g><g transform="translate(-310,-22) scale(1,1)"><rect fill="#ffffff" stroke="none" x="320" y="312" width="294.60009765625" height="72"/></g><g transform="translate(-310,-22) scale(1,1)"><path fill="none" stroke="#000000" d="M 320 312 L 614.60009765625 312 L 614.60009765625 384 L 320 384 L 320 312 Z Z" stroke-miterlimit="10"/></g><g transform="translate(-310,-22) scale(1,1)"><path fill="none" stroke="#000000" d="M 320 337 L 614.60009765625 337" stroke-miterlimit="10"/></g><g transform="translate(-310,-22) scale(1,1)"><path fill="none" stroke="#000000" d="M 320 347 L 614.60009765625 347" stroke-miterlimit="10"/></g><g transform="translate(-310,-22) scale(1,1)"><g><path fill="none" stroke="none"/><text fill="#000000" stroke="none" font-family="Arial" font-size="13px" font-style="normal" font-weight="bold" text-decoration="none" x="429.800048828125" y="331.5">ImageLoader</text></g></g><g transform="translate(-310,-22) scale(1,1)"><g><path fill="none" stroke="none"/><text fill="#000000" stroke="none" font-family="Arial" font-size="13px" font-style="normal" font-weight="normal" text-decoration="none" x="325" y="364.5">+static Image load(const string&amp;)</text></g></g><g transform="translate(-310,-22) scale(1,1)"><g><path fill="none" stroke="none"/><text fill="#000000" stroke="none" font-family="Arial" font-size="13px" font-style="normal" font-weight="normal" text-decoration="none" x="325" y="379.5">+static vector_Image loadBatch(const string&amp;)</text></g></g><g transform="translate(-310,-22) scale(1,1)"><path fill="none" stroke="#000000" d="M 672 439 L 550 385" stroke-miterlimit="10"/></g><g transform="translate(-310,-22) scale(1,1)"><path fill="#FFFFFF" stroke="none" d="M 661.0031686871806 438.7359903838947 L 672 439 L 664.4107489969874 431.0373830172944 L 651.8825694673511 430.0955635347292"/></g><g transform="translate(-310,-22) scale(1,1)"><path fill="none" stroke="#000000" d="M 661.0031686871806 438.7359903838947 L 672 439 L 664.4107489969874 431.0373830172944 L 651.8825694673511 430.0955635347292 L 661.0031686871806 438.7359903838947" stroke-miterlimit="10"/></g><g transform="translate(-310,-22) scale(1,1)"><path fill="none" stroke="#000000" d="M 502 385 L 728 623" stroke-miterlimit="10"/></g><g transform="translate(-310,-22) scale(1,1)"><path fill="#FFFFFF" stroke="none" d="M 717.9495525229336 618.5291493526703 L 728 623 L 724.0546292454062 612.731891624608 L 712.8510355093409 607.0466657133767"/></g><g transform="translate(-310,-22) scale(1,1)"><path fill="none" stroke="#000000" d="M 717.9495525229336 618.5291493526703 L 728 623 L 724.0546292454062 612.731891624608 L 712.8510355093409 607.0466657133767 L 717.9495525229336 618.5291493526703" stroke-miterlimit="10"/></g><g transform="translate(-310,-22) scale(1,1)"><rect fill="#C0C0C0" stroke="none" x="975" y="39" width="92" height="44" opacity="0.2"/></g><g transform="translate(-310,-22) scale(1,1)"><rect fill="#ffffff" stroke="none" x="968" y="32" width="92" height="44"/></g><g transform="translate(-310,-22) scale(1,1)"><path fill="none" stroke="#000000" d="M 968 32 L 1060 32 L 1060 76 L 968 76 L 968 32 Z Z" stroke-miterlimit="10"/></g><g transform="translate(-310,-22) scale(1,1)"><path fill="none" stroke="#000000" d="M 968 57 L 1060 57" stroke-miterlimit="10"/></g><g transform="translate(-310,-22) scale(1,1)"><path fill="none" stroke="#000000" d="M 968 67 L 1060 67" stroke-miterlimit="10"/></g><g transform="translate(-310,-22) scale(1,1)"><g><path fill="none" stroke="none"/><text fill="#000000" stroke="none" font-family="Arial" font-size="13px" font-style="normal" font-weight="bold" text-decoration="none" x="975.5" y="51.5">VisibleObject</text></g></g><g transform="translate(-310,-22) scale(1,1)"><path fill="none" stroke="#000000" d="M 1016 151 L 1014 77" stroke-miterlimit="10"/></g><g transform="translate(-310,-22) scale(1,1)"><path fill="#FFFFFF" stroke="none" d="M 1022.9650955631382 97.09047190943505 L 1014 77 L 1006.1331709422811 97.54538879107986"/></g><g transform="translate(-310,-22) scale(1,1)"><path fill="none" stroke="#000000" d="M 1022.9650955631382 97.09047190943505 L 1014 77 L 1006.1331709422811 97.54538879107986 L 1022.9650955631382 97.09047190943505" stroke-miterlimit="10"/></g></g></svg>